<svg xmlns="http://www.w3.org/2000/svg" viewBox="0 0 48 48"><path d="M28.27,41.48A1.26,1.26,0,0,1,27.93,39,15.51,15.51,0,0,0,24,8.5,18.92,18.92,0,0,0,9.75,15.3h4.92a1.27,1.27,0,0,1,1.26,1.26,1.25,1.25,0,0,1-1.24,1.27H7.27a1.1,1.1,0,0,1-.35,0,1.66,1.66,0,0,1-.4-.2,1.06,1.06,0,0,1-.35-.38A1.45,1.45,0,0,1,6,16.68V8.93a1.26,1.26,0,0,1,2.51,0v4A21,21,0,0,1,24,6a18,18,0,0,1,4.59,35.45Z" fill="#f8f8f2"/><path d="M22.81,42a.27.27,0,0,1-.12,0,17.35,17.35,0,0,1-5.22-1.17,1.26,1.26,0,0,1-.8-1.19,1.32,1.32,0,0,1,.08-.44,1.27,1.27,0,0,1,1.62-.72,15.56,15.56,0,0,0,4.51,1h0a1.25,1.25,0,0,1,1.18,1.27v.07A1.28,1.28,0,0,1,22.81,42Zm-9.22-3.6a1.26,1.26,0,0,1-.79-.27,18,18,0,0,1-3.65-3.94,1.23,1.23,0,0,1-.24-.7,1.22,1.22,0,0,1,.56-1,1.26,1.26,0,0,1,1.74.32,14.94,14.94,0,0,0,3.16,3.38,1.26,1.26,0,0,1,.47,1,1.28,1.28,0,0,1-.27.81A1.24,1.24,0,0,1,13.59,38.4ZM8,30.22a1.23,1.23,0,0,1-1.19-.87A18.17,18.17,0,0,1,6,24a1.26,1.26,0,1,1,2.51,0,15.62,15.62,0,0,0,.69,4.57,1.6,1.6,0,0,1,.05.39,1.25,1.25,0,0,1-.87,1.19A1.74,1.74,0,0,1,8,30.22Z" fill="#f8f8f2"/><path d="M24,30.72A6.71,6.71,0,1,0,17.3,24,6.7,6.7,0,0,0,24,30.72Z" fill="#f8f8f2"/></svg>