<svg xmlns="http://www.w3.org/2000/svg" viewBox="0 0 48 48"><path d="M20.52,31.4H8.2a2.2,2.2,0,0,1,0-4.4H20.52a2.2,2.2,0,0,1,0,4.4Z" fill="#f8f8f2"/><path d="M20.52,37.85H8.2a2.2,2.2,0,0,1,0-4.4H20.52a2.2,2.2,0,0,1,0,4.4Z" fill="#f8f8f2"/><path d="M39.8,14.61H27.48a2.21,2.21,0,0,1,0-4.41H39.8a2.21,2.21,0,0,1,0,4.41Z" fill="#f8f8f2"/><path d="M39.8,21.06H27.48a2.21,2.21,0,0,1,0-4.41H39.8a2.21,2.21,0,0,1,0,4.41Z" fill="#f8f8f2"/><path d="M22.38,12v7.3a4.11,4.11,0,0,1-4.18,4H10.29a4.12,4.12,0,0,1-4.18-4V12a4.11,4.11,0,0,1,4.18-4H18.2A4.1,4.1,0,0,1,22.38,12Z" fill="#f8f8f2"/><path d="M42,28.72V36a4.11,4.11,0,0,1-4.18,4H29.91a4.11,4.11,0,0,1-4.18-4v-7.3a4.12,4.12,0,0,1,4.18-4h7.91A4.12,4.12,0,0,1,42,28.72Z" fill="#f8f8f2"/></svg>