<svg xmlns="http://www.w3.org/2000/svg" viewBox="0 0 48 48"><path d="M39.57,33.24H28.86a2.44,2.44,0,0,0,0,4.87H39.57a2.44,2.44,0,0,0,0-4.87Zm-20.43,0H8.43a2.44,2.44,0,0,0,0,4.87H19.14a2.44,2.44,0,0,0,0-4.87Zm20.43-7.78H28.86a2.43,2.43,0,0,0,0,4.86H39.57a2.43,2.43,0,0,0,0-4.86Zm-20.43,0H8.43a2.43,2.43,0,0,0,0,4.86H19.14a2.43,2.43,0,0,0,0-4.86Zm20.43-7.78H28.86a2.43,2.43,0,0,0,0,4.86H39.57a2.43,2.43,0,0,0,0-4.86Zm-20.43,0H8.43a2.43,2.43,0,0,0,0,4.86H19.14a2.43,2.43,0,0,0,0-4.86ZM39.57,9.89H28.86a2.44,2.44,0,0,0,0,4.87H39.57a2.44,2.44,0,0,0,0-4.87Zm-20.43,0H8.43a2.44,2.44,0,0,0,0,4.87H19.14a2.44,2.44,0,0,0,0-4.87Z" fill="#f8f8f2"/></svg>