<svg xmlns="http://www.w3.org/2000/svg" viewBox="0 0 48 48"><path d="M24.92,14.74H8.43a2.44,2.44,0,0,1,0-4.87H24.92a2.44,2.44,0,0,1,0,4.87Z" fill="#f8f8f2"/><path d="M21.25,26.43H8.43a2.43,2.43,0,0,1,0-4.86H21.25a2.43,2.43,0,1,1,0,4.86Z" fill="#f8f8f2"/><path d="M21.25,38.13H8.43a2.44,2.44,0,0,1,0-4.87H21.25a2.44,2.44,0,1,1,0,4.87Z" fill="#f8f8f2"/><path d="M41.34,31.51,36,37.24a2.61,2.61,0,0,1-.78.62,1.69,1.69,0,0,1-.31.13,2.3,2.3,0,0,1-1.58,0,1.69,1.69,0,0,1-.31-.13,2.61,2.61,0,0,1-.78-.62L26.8,31.51a2.43,2.43,0,0,1,3.55-3.33l1.29,1.38V12.31a2.43,2.43,0,1,1,4.86,0V29.56l1.3-1.38a2.43,2.43,0,0,1,3.54,3.33Z" fill="#f8f8f2"/></svg>