<svg xmlns="http://www.w3.org/2000/svg" viewBox="0 0 48 48"><path d="M39.57,9.46H25.73a2.44,2.44,0,0,0,0,4.87H39.57a2.44,2.44,0,0,0,0-4.87Zm-5.19,6.92H25.73a2.44,2.44,0,0,0,0,4.87h8.65a2.44,2.44,0,0,0,0-4.87Zm5.19,10.37H25.73a2.44,2.44,0,0,0,0,4.87H39.57a2.44,2.44,0,0,0,0-4.87Zm-5.19,6.92H25.73a2.44,2.44,0,0,0,0,4.87h8.65a2.44,2.44,0,0,0,0-4.87Z" fill="#f8f8f2"/><path d="M21.25,29.19V36.1a4.17,4.17,0,0,1-4.17,4.17H10.16A4.17,4.17,0,0,1,6,36.1V29.19A4.16,4.16,0,0,1,10.16,25h6.92A4.17,4.17,0,0,1,21.25,29.19Z" fill="#f8f8f2"/><path d="M21.25,11.9v6.91A4.17,4.17,0,0,1,17.08,23H10.16A4.16,4.16,0,0,1,6,18.81V11.9a4.17,4.17,0,0,1,4.16-4.17h6.92A4.17,4.17,0,0,1,21.25,11.9Z" fill="#f8f8f2"/></svg>