<svg xmlns="http://www.w3.org/2000/svg" viewBox="0 0 48 48"><path d="M18.41,11.54,16.17,7.82a3.69,3.69,0,0,0-4.08-1.69A3.6,3.6,0,0,0,10,11.43l2.32,3.81a.9.9,0,0,0,1.21.3l4.59-2.79A.87.87,0,0,0,18.41,11.54Z" fill="#f8f8f2"/><path d="M37.59,27.88l-4.94-6.67a7.1,7.1,0,0,0-7.51-2.65s0,0,0,0l-2.91-4.8a1.8,1.8,0,0,0-2.44-.58l-6.1,3.71a1.77,1.77,0,0,0-.59,2.44L16,24.09a0,0,0,0,0,0,0A7.1,7.1,0,0,0,14.92,32l3.65,7.44a4.39,4.39,0,0,0,6,2,.33.33,0,0,0,.12-.47L22,36.49a1.35,1.35,0,0,1,.44-1.85,1.37,1.37,0,0,1,1.84.44L27,39.61a.35.35,0,0,0,.47.12l1.69-1a.37.37,0,0,0,.12-.48l-2.76-4.53A1.38,1.38,0,0,1,27,31.87a1.37,1.37,0,0,1,1.85.44l2.75,4.53a.37.37,0,0,0,.48.12l1.68-1a.37.37,0,0,0,.13-.47l-2.76-4.53a1.34,1.34,0,1,1,2.28-1.41l2.78,4.52a.34.34,0,0,0,.47.1A4.37,4.37,0,0,0,37.59,27.88Z" fill="#f8f8f2"/></svg>