<svg xmlns="http://www.w3.org/2000/svg" viewBox="0 0 48 48"><path d="M40.21,42H7.79a1.35,1.35,0,1,1,0-2.7H40.21a1.35,1.35,0,0,1,0,2.7Z" fill="#f8f8f2"/><path d="M36.64,8.65c-3.49-3.49-6.91-3.58-10.5,0L24,10.83a.74.74,0,0,0-.19.72,14.66,14.66,0,0,0,10,10,.85.85,0,0,0,.22,0,.73.73,0,0,0,.52-.22l2.16-2.18c1.78-1.76,2.65-3.47,2.65-5.2S38.44,10.44,36.64,8.65Z" fill="#f8f8f2"/><path d="M30.5,23.15c-.52-.25-1-.51-1.51-.79s-.78-.49-1.15-.76a11.82,11.82,0,0,1-1-.77,2.82,2.82,0,0,1-.31-.27,15.74,15.74,0,0,1-1.85-1.88,1.45,1.45,0,0,1-.27-.32,11.55,11.55,0,0,1-.76-1,9.28,9.28,0,0,1-.7-1.06c-.29-.49-.54-1-.79-1.48a1.89,1.89,0,0,1-.11-.25,1,1,0,0,0-1.52-.31L10.21,24.59a2.14,2.14,0,0,0-.51,1l-1,6.9a3.69,3.69,0,0,0,.92,3.15,3.59,3.59,0,0,0,2.52,1,4.74,4.74,0,0,0,.65-.05l6.91-1a2,2,0,0,0,1-.5L31,24.77a1,1,0,0,0-.32-1.53Z" fill="#f8f8f2"/></svg>