<svg xmlns="http://www.w3.org/2000/svg" viewBox="0 0 48 48"><path d="M38.29,25.15A1.15,1.15,0,0,0,39.44,24a1.14,1.14,0,0,0-1.15-1.15H36.36v-3.4h1.93a1.15,1.15,0,0,0,1.15-1.16,1.17,1.17,0,0,0-1.15-1.17H36L32.13,21v6.5a4.65,4.65,0,0,1-4.63,4.63H21L17.14,36v2.28a1.17,1.17,0,0,0,2.33,0V36.35h3.4v1.92A1.15,1.15,0,0,0,24,39.43a1.17,1.17,0,0,0,1.15-1.16V36.35h3.39v1.92a1.17,1.17,0,0,0,1.15,1.16,1.18,1.18,0,0,0,1.17-1.16V36A7.69,7.69,0,0,0,36,30.88h2.29a1.17,1.17,0,0,0,1.15-1.17,1.15,1.15,0,0,0-1.15-1.16H36.36v-3.4ZM15.88,27.49v-7a4.65,4.65,0,0,1,4.63-4.63h7a4.62,4.62,0,0,1,3.82,2l3.33-3.35A7.51,7.51,0,0,0,30.88,12V9.73a1.18,1.18,0,0,0-1.17-1.16,1.17,1.17,0,0,0-1.15,1.16v1.92h-3.4V9.73a1.16,1.16,0,1,0-2.31,0v1.92H19.47V9.73a1.17,1.17,0,0,0-2.33,0V12A7.66,7.66,0,0,0,12,17.12H9.72a1.17,1.17,0,0,0-1.15,1.17,1.15,1.15,0,0,0,1.15,1.16h1.93v3.4H9.72A1.14,1.14,0,0,0,8.57,24a1.16,1.16,0,0,0,1.15,1.15h1.93v3.4H9.72a1.15,1.15,0,0,0-1.15,1.16,1.17,1.17,0,0,0,1.15,1.17H12a7.67,7.67,0,0,0,2.57,3.78l3.34-3.35A4.6,4.6,0,0,1,15.88,27.49Z" fill="#f8f8f2"/><path d="M30.07,19.14,19.16,30.07a3.45,3.45,0,0,1-1.71-3V20.92a3.48,3.48,0,0,1,3.49-3.49h6.14A3.43,3.43,0,0,1,30.07,19.14Z" fill="#f8f8f2"/><path d="M30.58,22.54v4.52a3.49,3.49,0,0,1-3.5,3.49h-4.5Z" fill="#f8f8f2"/><path d="M41.58,6.41a1.37,1.37,0,0,0-2,0L6.41,39.64a1.37,1.37,0,0,0,0,2,1.39,1.39,0,0,0,1,.4,1.36,1.36,0,0,0,1-.41L41.58,8.35A1.33,1.33,0,0,0,41.58,6.41Z" fill="#f8f8f2"/></svg>