<svg xmlns="http://www.w3.org/2000/svg" viewBox="0 0 48 48"><path d="M34.82,43.86a2.44,2.44,0,0,1-1.72-.71L27.35,37.4a2.44,2.44,0,0,1,1.72-4.16h11.5a2.44,2.44,0,0,1,1.72,4.16l-5.75,5.75A2.46,2.46,0,0,1,34.82,43.86Z" fill="#f8f8f2"/><path d="M40.57,14.81H9.43a2.44,2.44,0,0,1,0-4.87H40.57a2.44,2.44,0,0,1,0,4.87Z" fill="#f8f8f2"/><path d="M40.57,26.48H9.43a2.43,2.43,0,0,1,0-4.86H40.57a2.43,2.43,0,0,1,0,4.86Z" fill="#f8f8f2"/><path d="M22.82,35.73a2.43,2.43,0,0,1-2.43,2.43h-11a2.44,2.44,0,0,1,0-4.87h11A2.43,2.43,0,0,1,22.82,35.73Z" fill="#f8f8f2"/></svg>