<svg xmlns="http://www.w3.org/2000/svg" viewBox="0 0 48 48"><path d="M30.21,9.82V7.24a1.25,1.25,0,0,0-2.49,0V9.72H17V7.24a1.25,1.25,0,0,0-2.49,0V9.82c-4.47.42-6.63,3.08-7,7a.84.84,0,0,0,.83.88h28a.83.83,0,0,0,.83-.88C36.84,12.9,34.68,10.24,30.21,9.82Z" fill="#f8f8f2"/><path d="M35.59,20.22H9.1a1.65,1.65,0,0,0-1.65,1.65v10.2c0,5,2.48,8.27,8.27,8.27h8.16a1.65,1.65,0,0,0,1.58-2.18,9.71,9.71,0,0,1-.62-2.78A9.12,9.12,0,0,1,34,26.28a8.33,8.33,0,0,1,1.42.11,1.65,1.65,0,0,0,1.89-1.62V21.89A1.69,1.69,0,0,0,35.59,20.22Zm-17.86,13a1.9,1.9,0,0,1-.55.35,1.69,1.69,0,0,1-.63.13,1.74,1.74,0,0,1-1.17-.48,1.71,1.71,0,0,1-.48-1.17,1.73,1.73,0,0,1,0-.32,1.12,1.12,0,0,1,.1-.31,1.05,1.05,0,0,1,.15-.3c.05-.08.13-.16.2-.25a1.7,1.7,0,0,1,.54-.34,1.62,1.62,0,0,1,1.26,0,1.86,1.86,0,0,1,.55.34c.06.09.15.17.2.25a1.35,1.35,0,0,1,.14.3.87.87,0,0,1,.1.31,1.58,1.58,0,0,1-.44,1.49Zm0-5.79a1.9,1.9,0,0,1-.55.35,1.69,1.69,0,0,1-.63.13,1.73,1.73,0,0,1-.63-.13,1.62,1.62,0,0,1-.54-.35,1.71,1.71,0,0,1-.48-1.17,1.73,1.73,0,0,1,.48-1.18,1.93,1.93,0,0,1,.54-.35,1.71,1.71,0,0,1,1.26,0,2.14,2.14,0,0,1,.55.35c.06.08.15.17.2.25a1.35,1.35,0,0,1,.14.3.91.91,0,0,1,.1.29,2.23,2.23,0,0,1,0,.34A1.76,1.76,0,0,1,17.73,27.45Zm5.79,0a1.7,1.7,0,0,1-1.18.48,1.64,1.64,0,0,1-.62-.13,1.67,1.67,0,0,1-.55-.35,1.71,1.71,0,0,1-.48-1.17c0-.1,0-.22,0-.34a1.25,1.25,0,0,1,.1-.29,1.4,1.4,0,0,1,.15-.3l.2-.25a1.74,1.74,0,0,1,2.35,0l.2.25a2.1,2.1,0,0,1,.15.3,1.25,1.25,0,0,1,.1.29c0,.12,0,.24,0,.34A1.71,1.71,0,0,1,23.52,27.45Z" fill="#f8f8f2"/><path d="M33.93,28.76a6.62,6.62,0,1,0,6.62,6.62A6.62,6.62,0,0,0,33.93,28.76Zm3.31,7a1.34,1.34,0,0,1-.38.94l-2,2a1.35,1.35,0,0,1-1.88,0l-2-2a1.34,1.34,0,0,1-.38-.94,1.25,1.25,0,0,1,.4-.94,1.26,1.26,0,0,1,.92-.38,1.29,1.29,0,0,1,.67.18V33.06a1.33,1.33,0,0,1,2.65,0v1.51a1.26,1.26,0,0,1,.66-.18,1.34,1.34,0,0,1,.94.38A1.31,1.31,0,0,1,37.24,35.71Z" fill="#f8f8f2"/></svg>