<svg xmlns="http://www.w3.org/2000/svg" viewBox="0 0 48 48"><path d="M34.22,18.15V29.83a4.38,4.38,0,0,1-4.38,4.37H18.16a4.38,4.38,0,0,1-4.38-4.37V18.15a4.38,4.38,0,0,1,4.38-4.37H29.84A4.38,4.38,0,0,1,34.22,18.15Z" fill="#f8f8f2"/><path d="M24,42a2.44,2.44,0,1,1,2.43-2.45v0A2.43,2.43,0,0,1,24,42Z" fill="#f8f8f2"/><path d="M31.78,42a2.44,2.44,0,1,1,2.43-2.45v0A2.43,2.43,0,0,1,31.78,42Z" fill="#f8f8f2"/><path d="M16.22,42a2.44,2.44,0,1,1,2.43-2.45v0A2.43,2.43,0,0,1,16.22,42Z" fill="#f8f8f2"/><path d="M8.44,42a2.44,2.44,0,1,1,2.43-2.45v0A2.43,2.43,0,0,1,8.44,42Z" fill="#f8f8f2"/><path d="M8.44,34.22a2.44,2.44,0,1,1,2.43-2.45v0A2.43,2.43,0,0,1,8.44,34.22Z" fill="#f8f8f2"/><path d="M8.44,26.44A2.44,2.44,0,1,1,10.87,24v0A2.43,2.43,0,0,1,8.44,26.44Z" fill="#f8f8f2"/><path d="M8.44,18.66a2.44,2.44,0,1,1,2.43-2.45v0A2.43,2.43,0,0,1,8.44,18.66Z" fill="#f8f8f2"/><path d="M8.44,10.88a2.44,2.44,0,1,1,2.43-2.45v0A2.43,2.43,0,0,1,8.44,10.88Z" fill="#f8f8f2"/><path d="M16.22,10.88a2.44,2.44,0,1,1,2.43-2.45v0A2.43,2.43,0,0,1,16.22,10.88Z" fill="#f8f8f2"/><path d="M24,10.88a2.44,2.44,0,1,1,2.43-2.45v0A2.43,2.43,0,0,1,24,10.88Z" fill="#f8f8f2"/><path d="M31.78,10.88a2.44,2.44,0,1,1,2.43-2.45v0A2.43,2.43,0,0,1,31.78,10.88Z" fill="#f8f8f2"/><path d="M39.56,10.88A2.44,2.44,0,1,1,42,8.43v0A2.43,2.43,0,0,1,39.56,10.88Z" fill="#f8f8f2"/><path d="M39.56,18.66A2.44,2.44,0,1,1,42,16.21v0A2.43,2.43,0,0,1,39.56,18.66Z" fill="#f8f8f2"/><path d="M39.56,26.44A2.44,2.44,0,1,1,42,24v0A2.43,2.43,0,0,1,39.56,26.44Z" fill="#f8f8f2"/><path d="M39.56,34.22A2.44,2.44,0,1,1,42,31.77v0A2.43,2.43,0,0,1,39.56,34.22Z" fill="#f8f8f2"/><path d="M39.56,42A2.44,2.44,0,1,1,42,39.55v0A2.43,2.43,0,0,1,39.56,42Z" fill="#f8f8f2"/></svg>