<svg xmlns="http://www.w3.org/2000/svg" viewBox="0 0 48 48"><path d="M22.2,31.47v4.86c0,4.05-1.62,5.67-5.67,5.67H11.67C7.62,42,6,40.38,6,36.33V31.47c0-4,1.62-5.67,5.67-5.67h4.86C20.58,25.8,22.2,27.42,22.2,31.47Z" fill="#f8f8f2"/><path d="M33.9,22.2a8.1,8.1,0,1,0-8.1-8.1A8.1,8.1,0,0,0,33.9,22.2Z" fill="#f8f8f2"/><path d="M29,42a1.37,1.37,0,0,1-1.17-.68,1.39,1.39,0,0,1,0-1.37L29.6,37a1.35,1.35,0,1,1,2.32,1.39L31.6,39a10.32,10.32,0,0,0,7.72-10,1.36,1.36,0,0,1,1.35-1.35A1.34,1.34,0,0,1,42,29,13,13,0,0,1,29,42Z" fill="#f8f8f2"/><path d="M7.35,20.35A1.35,1.35,0,0,1,6,19,13,13,0,0,1,19,6a1.36,1.36,0,0,1,1.17,2.05L18.42,11A1.35,1.35,0,1,1,16.1,9.56L16.42,9A10.34,10.34,0,0,0,8.7,19,1.35,1.35,0,0,1,7.35,20.35Z" fill="#f8f8f2"/></svg>