<svg xmlns="http://www.w3.org/2000/svg" viewBox="0 0 48 48"><path d="M41.29,19.49a2.41,2.41,0,0,1-3.44,0l-2.08-2.07v19a2.43,2.43,0,1,1-4.86,0v-19l-2.07,2.07a2.44,2.44,0,0,1-3.45-3.44l6.23-6.23A3.51,3.51,0,0,1,32,9.53l.06,0a2.6,2.6,0,0,1,2.45-.09,1.07,1.07,0,0,1,.21.13,2.68,2.68,0,0,1,.36.29l6.23,6.23A2.45,2.45,0,0,1,41.29,19.49Z" fill="#f8f8f2"/><path d="M21.25,10.5v8.31a3.48,3.48,0,0,1-3.48,3.47H9.47A3.48,3.48,0,0,1,6,18.81V10.5A3.48,3.48,0,0,1,9.47,7h8.3A3.48,3.48,0,0,1,21.25,10.5Z" fill="#f8f8f2"/><path d="M21.25,29.19V37.5A3.48,3.48,0,0,1,17.77,41H9.47A3.48,3.48,0,0,1,6,37.5V29.19a3.48,3.48,0,0,1,3.47-3.47h8.3A3.48,3.48,0,0,1,21.25,29.19Z" fill="#f8f8f2"/><path d="M34.49,9.4A2.6,2.6,0,0,0,32,9.49a2.39,2.39,0,0,1,1.3-.38A2.45,2.45,0,0,1,34.49,9.4Z" fill="#f8f8f2"/></svg>