<svg xmlns="http://www.w3.org/2000/svg" viewBox="0 0 48 48"><path d="M12.07,20.53A6.07,6.07,0,1,0,6,14.46,6.07,6.07,0,0,0,12.07,20.53Z" fill="#f8f8f2"/><path d="M12.07,39.61A6.07,6.07,0,1,0,6,33.54,6.06,6.06,0,0,0,12.07,39.61Z" fill="#f8f8f2"/><path d="M29,24l12.49-9.34a1.3,1.3,0,1,0-1.56-2.08l-13.1,9.8-9.63-7.22a1.32,1.32,0,0,0-1.82.26,1.31,1.31,0,0,0,.26,1.83l9,6.75L14.41,31.63a1.32,1.32,0,0,0-.26,1.83,1.3,1.3,0,0,0,1,.52,1.33,1.33,0,0,0,.78-.26L26.82,25.6l13.1,9.8a1.28,1.28,0,0,0,.78.26,1.27,1.27,0,0,0,1-.52,1.31,1.31,0,0,0-.26-1.82Z" fill="#f8f8f2"/></svg>