<svg xmlns="http://www.w3.org/2000/svg" viewBox="0 0 48 48"><path d="M39,44.5A2.5,2.5,0,0,1,36.5,42V38.5h-3V42a2.5,2.5,0,0,1-5,0V32c0-4.13,2.37-6.5,6.5-6.5s6.5,2.37,6.5,6.5V42A2.5,2.5,0,0,1,39,44.5Zm-5.5-11h3V32c0-1.37-.13-1.5-1.5-1.5s-1.5.13-1.5,1.5Z" fill="#f8f8f2"/><path d="M39,22.5H31a2.5,2.5,0,0,1-2.17-3.74L34.69,8.5H31a2.5,2.5,0,0,1,0-5h8a2.5,2.5,0,0,1,2.17,3.74L35.31,17.5H39a2.5,2.5,0,0,1,0,5Z" fill="#f8f8f2"/><path d="M22.77,31.77l-6,6a2.51,2.51,0,0,1-3.54,0l-6-6a2.5,2.5,0,0,1,3.54-3.54L12.5,30V12a2.5,2.5,0,0,1,5,0V30l1.73-1.73a2.5,2.5,0,0,1,3.54,3.54Z" fill="#f8f8f2"/></svg>