<svg xmlns="http://www.w3.org/2000/svg" viewBox="0 0 48 48"><path d="M21.25,15H8.43a2.44,2.44,0,0,1,0-4.87H21.25a2.44,2.44,0,0,1,0,4.87Z" fill="#f8f8f2"/><path d="M21.25,26.43H8.43a2.43,2.43,0,0,1,0-4.86H21.25a2.43,2.43,0,0,1,0,4.86Z" fill="#f8f8f2"/><path d="M24.92,37.91H8.43a2.44,2.44,0,0,1,0-4.87H24.92a2.44,2.44,0,0,1,0,4.87Z" fill="#f8f8f2"/><path d="M41.25,20a2.45,2.45,0,0,1-3.45-.08l-1.3-1.36V35.47a2.43,2.43,0,1,1-4.86,0V18.58l-1.31,1.36A2.41,2.41,0,0,1,26.9,20a2.44,2.44,0,0,1-.08-3.44L32.19,11a.8.8,0,0,1,.13-.13l.11-.12a1.37,1.37,0,0,1,.28-.21,1.57,1.57,0,0,1,.31-.18,2.66,2.66,0,0,1,2,0,3,3,0,0,1,.4.21,2.18,2.18,0,0,1,.41.34l5.5,5.73A2.44,2.44,0,0,1,41.25,20Z" fill="#f8f8f2"/><path d="M35,10.3a2.66,2.66,0,0,0-2,0,2.39,2.39,0,0,1,2,0Z" fill="#f8f8f2"/></svg>