<svg xmlns="http://www.w3.org/2000/svg" viewBox="0 0 48 48"><path d="M31.62,29.19a2.43,2.43,0,0,1-.42,1.36,4.57,4.57,0,0,1-.29.36l-8.3,8.3a2.44,2.44,0,1,1-3.45-3.44l4.16-4.15H14.66A8.66,8.66,0,0,1,6,23V10.5a2.43,2.43,0,0,1,4.86,0V23a3.8,3.8,0,0,0,3.8,3.79h8.66l-4.16-4.14a2.44,2.44,0,1,1,3.45-3.45l8.21,8.23.09.08A2.4,2.4,0,0,1,31.62,29.19Z" fill="#f8f8f2"/><path d="M31.26,39.92a2.37,2.37,0,0,1-1.71-.71,2.43,2.43,0,0,1,0-3.44l6.58-6.58-6.58-6.58A2.43,2.43,0,0,1,33,19.17l8.31,8.3a2.43,2.43,0,0,1,0,3.44L33,39.21A2.38,2.38,0,0,1,31.26,39.92Z" fill="#f8f8f2"/></svg>