<svg xmlns="http://www.w3.org/2000/svg" viewBox="0 0 48 48"><path d="M21.25,10.5v8.31a3.48,3.48,0,0,1-3.48,3.47H9.47A3.48,3.48,0,0,1,6,18.81V10.5A3.48,3.48,0,0,1,9.47,7h8.3A3.48,3.48,0,0,1,21.25,10.5Z" fill="#f8f8f2"/><path d="M21.25,29.19V37.5A3.48,3.48,0,0,1,17.77,41H9.47A3.48,3.48,0,0,1,6,37.5V29.19a3.48,3.48,0,0,1,3.47-3.47h8.3A3.48,3.48,0,0,1,21.25,29.19Z" fill="#f8f8f2"/><path d="M41.29,32l-6.23,6.23a2.68,2.68,0,0,1-.36.29,2.43,2.43,0,0,1-1.36.42A2.46,2.46,0,0,1,32,38.47a3.51,3.51,0,0,1-.36-.29L25.39,32a2.44,2.44,0,0,1,3.45-3.44l2.07,2.07v-19a2.43,2.43,0,1,1,4.86,0v19l2.08-2.07A2.43,2.43,0,0,1,41.29,32Z" fill="#f8f8f2"/></svg>