<svg xmlns="http://www.w3.org/2000/svg" viewBox="0 0 48 48"><path d="M28.23,6H19.77a3.39,3.39,0,0,0-3.4,3.38v1.7a3.38,3.38,0,0,0,3.38,3.38h8.48a3.38,3.38,0,0,0,3.39-3.38V9.38A3.38,3.38,0,0,0,28.23,6Z" fill="#f8f8f2"/><path d="M33.43,11.08a5.22,5.22,0,0,1-5.2,5.2H19.77a5.22,5.22,0,0,1-5.2-5.2,1.34,1.34,0,0,0-2-1.17A8,8,0,0,0,8.32,17V34a8.07,8.07,0,0,0,8.05,8H31.63a8.07,8.07,0,0,0,8.05-8V17a8,8,0,0,0-4.27-7.11A1.34,1.34,0,0,0,33.43,11.08ZM24.68,32.91H16.8a1.35,1.35,0,0,1,0-2.7h7.88a1.35,1.35,0,1,1,0,2.7Zm4.72-7.2H16.8a1.35,1.35,0,1,1,0-2.7H29.4a1.35,1.35,0,1,1,0,2.7Z" fill="#f8f8f2"/></svg>