<svg xmlns="http://www.w3.org/2000/svg" viewBox="0 0 48 48"><path d="M40.65,25.35a1.35,1.35,0,1,0,0-2.7H38.4v-4h2.25a1.35,1.35,0,1,0,0-2.7H38a9,9,0,0,0-6-6V7.35a1.35,1.35,0,1,0-2.7,0V9.6h-4V7.35a1.35,1.35,0,0,0-2.7,0V9.6H18.71V7.35a1.35,1.35,0,0,0-2.7,0V10a9,9,0,0,0-6,6H7.35a1.35,1.35,0,1,0,0,2.7H9.6v4H7.35a1.35,1.35,0,1,0,0,2.7H9.6v4H7.35a1.35,1.35,0,0,0,0,2.7H10a9,9,0,0,0,6,6v2.66a1.35,1.35,0,0,0,2.7,0V38.4h4v2.25a1.35,1.35,0,0,0,2.7,0V38.4h3.94v2.25a1.35,1.35,0,0,0,2.7,0V38a9,9,0,0,0,6-6h2.66a1.35,1.35,0,0,0,0-2.7H38.4v-4Zm-7.18,2.72a5.42,5.42,0,0,1-5.4,5.4H19.93a5.42,5.42,0,0,1-5.4-5.4V19.93a5.42,5.42,0,0,1,5.4-5.4h8.14a5.42,5.42,0,0,1,5.4,5.4Z" fill="#f8f8f2"/><path d="M20.44,31.65h7.14a4.09,4.09,0,0,0,4.09-4.09V20.41a4.08,4.08,0,0,0-4.09-4.08H20.44a4.09,4.09,0,0,0-4.09,4.08v7.15A4.08,4.08,0,0,0,20.44,31.65Z" fill="#f8f8f2"/></svg>