<svg xmlns="http://www.w3.org/2000/svg" viewBox="0 0 48 48"><path d="M34.38,42a7.63,7.63,0,0,1-7.62-7.62,8.26,8.26,0,0,1,.06-1l-7.79-4a7.62,7.62,0,1,1,0-10.74l7.79-4a8.26,8.26,0,0,1-.06-1A7.61,7.61,0,1,1,29,19l-7.79,4a8.36,8.36,0,0,1,0,2L29,29a7.62,7.62,0,1,1,5.41,13Zm-2.54-8.71a2.83,2.83,0,0,0-.22,1.09,2.77,2.77,0,1,0,.33-1.3l-.08.16Zm-18.22-12a2.76,2.76,0,1,0,2.43,4.06c0-.05.05-.11.08-.17l0,0a2.81,2.81,0,0,0,0-2.18l0,0c0-.06-.05-.12-.08-.17A2.75,2.75,0,0,0,13.62,21.24ZM32,14.92a2.75,2.75,0,1,0-.33-1.3,2.83,2.83,0,0,0,.22,1.09l0,0Z" fill="#f8f8f2"/></svg>