<svg xmlns="http://www.w3.org/2000/svg" viewBox="0 0 48 48"><path d="M35.65,23.37H31V22.09a2.22,2.22,0,1,0-4.44,0v1.28H11.43a5.78,5.78,0,0,0-5.68,5.87v7.14a5.78,5.78,0,0,0,5.68,5.87H35.65a5.78,5.78,0,0,0,5.68-5.87V29.24A5.78,5.78,0,0,0,35.65,23.37Zm1.24,13a1.26,1.26,0,0,1-1.24,1.28H11.43a1.26,1.26,0,0,1-1.24-1.28V29.24A1.26,1.26,0,0,1,11.43,28H35.65a1.26,1.26,0,0,1,1.24,1.28Z" fill="#f8f8f2"/><path d="M32.19,35.12a2.3,2.3,0,1,1,2.22-2.31v0A2.25,2.25,0,0,1,32.19,35.12Z" fill="#f8f8f2"/><path d="M25.27,35.12a2.3,2.3,0,1,1,2.22-2.31v0A2.25,2.25,0,0,1,25.27,35.12Z" fill="#f8f8f2"/><path d="M23.11,19.9a1.75,1.75,0,0,1-1-.34A1.87,1.87,0,0,1,21.66,17,8.54,8.54,0,0,1,33.8,14.93a8.94,8.94,0,0,1,2,2.07,1.88,1.88,0,0,1-.41,2.56,1.74,1.74,0,0,1-2.48-.42,5.47,5.47,0,0,0-1.18-1.22,5,5,0,0,0-7.18,1.22A1.75,1.75,0,0,1,23.11,19.9Z" fill="#f8f8f2"/><path d="M17.48,15.88a1.74,1.74,0,0,1-1-.34A1.88,1.88,0,0,1,16,13a15.32,15.32,0,0,1,21.79-3.7A16,16,0,0,1,41.42,13,1.88,1.88,0,0,1,41,15.54a1.74,1.74,0,0,1-2.48-.42,12.14,12.14,0,0,0-2.77-2.86,11.82,11.82,0,0,0-16.83,2.86A1.75,1.75,0,0,1,17.48,15.88Z" fill="#f8f8f2"/></svg>