<svg xmlns="http://www.w3.org/2000/svg" viewBox="0 0 48 48"><path d="M20.76,29.46a2.43,2.43,0,0,1-.49,3.4,11.11,11.11,0,0,1-6.64,2.22H8.43a2.43,2.43,0,0,1,0-4.86h5.2A6.19,6.19,0,0,0,17.35,29,2.44,2.44,0,0,1,20.76,29.46Z" fill="#f8f8f2"/><path d="M41.89,31.92a2.48,2.48,0,0,1,0,1.46l-.08.21a2.48,2.48,0,0,1-.52.78l-5.2,5.19a2.4,2.4,0,0,1-1.71.71,2.44,2.44,0,0,1-1.72-4.16l1-1H30.92A11.09,11.09,0,0,1,19.84,24a6.23,6.23,0,0,0-6.22-6.22H8.43a2.43,2.43,0,1,1,0-4.86h5.19A11.09,11.09,0,0,1,24.7,24a6.23,6.23,0,0,0,6.22,6.22H33.7l-1-1a2.43,2.43,0,0,1,3.43-3.44l5.2,5.19a2.48,2.48,0,0,1,.52.78Z" fill="#f8f8f2"/><path d="M23.79,18.54a2.42,2.42,0,0,1,.48-3.4,11.09,11.09,0,0,1,6.64-2.22h2.78l-1-1a2.43,2.43,0,1,1,3.43-3.45l5.2,5.19a2.48,2.48,0,0,1,.52.78l.08.21a2.48,2.48,0,0,1,0,1.46l-.08.21a2.48,2.48,0,0,1-.52.78l-5.2,5.19a2.36,2.36,0,0,1-1.71.71,2.43,2.43,0,0,1-1.72-4.15l1-1H30.91A6.17,6.17,0,0,0,27.19,19a2.44,2.44,0,0,1-3.4-.49Z" fill="#f8f8f2"/></svg>