<svg xmlns="http://www.w3.org/2000/svg" viewBox="0 0 48 48"><path d="M25.29,30H30c4.8,0,6-1.2,6-6V16.8c0-4.8-1.2-6-6-6H26.4a1.91,1.91,0,0,1-1.92-1l-1.8-2.4A2.84,2.84,0,0,0,19.8,6H18c-4.8,0-6,1.2-6,6V24c0,4.8,1.2,6,6,6h4.71v5.14a.94.94,0,0,0,.06.24,3.44,3.44,0,0,0-2,2,.93.93,0,0,0-.24-.05H13.71a1.29,1.29,0,0,0,0,2.57h6.86a1.69,1.69,0,0,0,.24,0,3.42,3.42,0,0,0,6.38,0,1.69,1.69,0,0,0,.24,0h6.86a1.29,1.29,0,0,0,0-2.57H27.43a.93.93,0,0,0-.24.05,3.44,3.44,0,0,0-2-2,.94.94,0,0,0,.06-.24Z" fill="#f8f8f2" style="isolation:isolate"/></svg>