<svg xmlns="http://www.w3.org/2000/svg" viewBox="0 0 48 48"><path d="M15.43,6H12C8.07,6,6,8.07,6,12v3.42c0,3.93,2.07,6,6,6h3.42c3.93,0,6-2.07,6-6V12C21.43,8.07,19.36,6,15.43,6Z" fill="#f8f8f2"/><path d="M36,6H32.59c-3.93,0-6,2.07-6,6v3.42c0,3.93,2.07,6,6,6H36c3.92,0,6-2.07,6-6V12C42,8.07,39.93,6,36,6Z" fill="#f8f8f2"/><path d="M36,26.57H32.59c-3.93,0-6,2.07-6,6V36c0,3.92,2.07,6,6,6H36c3.92,0,6-2.07,6-6V32.57C42,28.64,39.93,26.57,36,26.57Z" fill="#f8f8f2"/><path d="M15.43,26.57H12c-3.94,0-6,2.07-6,6V36c0,3.94,2.07,6,6,6h3.42c3.93,0,6-2.07,6-6V32.59C21.43,28.64,19.36,26.57,15.43,26.57Z" fill="#f8f8f2"/></svg>