<svg xmlns="http://www.w3.org/2000/svg" viewBox="0 0 48 48"><path d="M13,32.22a2.34,2.34,0,0,1-1.83-.88l-4.7-5.87a2.37,2.37,0,0,1,0-2.94l4.7-5.87a2.35,2.35,0,0,1,3.67,2.94L11.35,24l3.53,4.4a2.35,2.35,0,0,1-.37,3.3A2.32,2.32,0,0,1,13,32.22Z" fill="#8bc34a"/><path d="M35,32.22a2.32,2.32,0,0,1-1.47-.52,2.35,2.35,0,0,1-.37-3.3L36.65,24l-3.53-4.4a2.35,2.35,0,0,1,3.67-2.94l4.7,5.87a2.37,2.37,0,0,1,0,2.94l-4.7,5.87A2.34,2.34,0,0,1,35,32.22Z" fill="#8bc34a"/><path d="M19.77,36.91a2.43,2.43,0,0,1-.87-.16,2.36,2.36,0,0,1-1.31-3.06l8.46-21.13a2.35,2.35,0,0,1,4.36,1.75L22,35.44A2.33,2.33,0,0,1,19.77,36.91Z" fill="#8bc34a"/></svg>