<svg xmlns="http://www.w3.org/2000/svg" viewBox="0 0 48 48"><path d="M31.55,6H16.46C9.91,6,6,9.91,6,16.46V31.52C6,38.09,9.91,42,16.46,42H31.54C38.09,42,42,38.09,42,31.54V16.46C42,9.91,38.11,6,31.55,6Z" fill="#bbdefb"/><path d="M37.48,23.79,26.41,33.37a1.58,1.58,0,0,1-1.66.24,1.53,1.53,0,0,1-.91-1.41V29.65a.89.89,0,0,0-1.19-.83c-2.66,1-5.83,3.23-9.47,6.74a2.5,2.5,0,0,1-1.62.94,1.47,1.47,0,0,1-.72-.19A1.57,1.57,0,0,1,10,34.66c1.83-9.59,6.25-15.37,13.15-17.25a.87.87,0,0,0,.67-.84V13a1.52,1.52,0,0,1,.91-1.4,1.55,1.55,0,0,1,1.66.24l11.07,9.58A1.52,1.52,0,0,1,38,22.63,1.55,1.55,0,0,1,37.48,23.79Z" fill="#3f51b5"/></svg>