<svg xmlns="http://www.w3.org/2000/svg" viewBox="0 0 48 48"><path d="M32.71,42H15.29a5,5,0,0,1-5-5V11a5,5,0,0,1,5-5H27.07a5,5,0,0,1,3.54,1.46l5.64,5.65a5,5,0,0,1,1.46,3.53V37A5,5,0,0,1,32.71,42Z" fill="#f55"/><path d="M35.22,15.43H28.79a.5.5,0,0,1-.5-.5V8.49a.5.5,0,0,1,.85-.35l6.44,6.44A.5.5,0,0,1,35.22,15.43Z" fill="#bf4040"/><path d="M32.07,28c-1.2-1.31-4.09-.95-5.32-.79l-.2,0a18.28,18.28,0,0,1-2.08-2.77l-.06-.09a13.72,13.72,0,0,0,.72-4.07c0-1.34-.54-2.78-2-2.78a1.53,1.53,0,0,0-1.35.8c-.6,1.06-.41,3.06.5,5.24a.22.22,0,0,1,0,.16A35.19,35.19,0,0,1,20.09,29a.23.23,0,0,1-.12.1c-1.15.46-4.17,1.82-4.44,3.52A1.52,1.52,0,0,0,16,34a1.76,1.76,0,0,0,1.33.49c1.45,0,3.07-1.57,4.82-4.66a.18.18,0,0,1,.11-.1,26.45,26.45,0,0,1,3.7-1,.23.23,0,0,1,.2.06,6.49,6.49,0,0,0,4.28,1.86c1.28,0,1.77-.59,1.93-1.06A1.49,1.49,0,0,0,32.07,28ZM17,33.43a.46.46,0,0,1-.33-.09.59.59,0,0,1-.08-.51c.07-.59,1.06-1.38,2.55-2.12a.23.23,0,0,1,.3.34C18.44,32.52,17.55,33.43,17,33.43Zm5.77-14.67a.47.47,0,0,1,.42-.26c.41,0,.49.51.49.94a15.17,15.17,0,0,1-.35,2.31.24.24,0,0,1-.46,0A5,5,0,0,1,22.74,18.76Zm.16,9.14c.25-.57.5-1.27.68-1.77a.23.23,0,0,1,.41,0,15.67,15.67,0,0,0,1,1.3.23.23,0,0,1-.13.37c-.4.08-1,.25-1.66.45A.23.23,0,0,1,22.9,27.9ZM30.75,29c-.09.34-.5.68-1.24.51a5.92,5.92,0,0,1-2-.93.23.23,0,0,1,.11-.42,8.9,8.9,0,0,1,2.42,0A.77.77,0,0,1,30.75,29Z" fill="#f8f8f2"/></svg>