<svg xmlns="http://www.w3.org/2000/svg" viewBox="0 0 48 48"><path d="M26.71,16a2,2,0,0,1,0-1H21.57a1.55,1.55,0,0,1,.13,1c0,.42-4.44,17-4.44,17h3.47l1-3.6h4.73l.84,3.6H32C32.13,33,26.71,16.39,26.71,16Zm-4.59,10.8,1.95-5.68,1.81,5.68Zm5-11.77h5.28l2.92,12.19S38.52,16.39,38.66,16a2.18,2.18,0,0,0-.41-1H42a8.67,8.67,0,0,0-.28,1c0,.28-4.45,13.71-4.45,13.71a7,7,0,0,0-.41,1.66,4.34,4.34,0,0,0,.55,1.52H32.69v-1c0-.27-4.87-15.5-5-15.92A1.57,1.57,0,0,0,27.13,15ZM16.7,15H10.17a2.56,2.56,0,0,1,0,1.11C10,16.67,7.53,27.88,6.56,31.9A2.29,2.29,0,0,1,6,33h7.23C17.81,33,22,27.19,22,21S16.15,15,16.7,15ZM13.23,30.37H11.14l3.2-12.74h1.39c.42,0,2.36.14,2.36,3.88S15.31,30.37,13.23,30.37Z" fill="#f8f8f2"/></svg>