<svg xmlns="http://www.w3.org/2000/svg" viewBox="0 0 48 48"><path d="M25.29,30H30c4.8,0,6-1.2,6-6V16.8c0-4.8-1.2-6-6-6H26.4a1.91,1.91,0,0,1-1.92-1l-1.8-2.4A2.84,2.84,0,0,0,19.8,6H18c-4.8,0-6,1.2-6,6V24c0,4.8,1.2,6,6,6h4.71v5.14a.94.94,0,0,0,.06.24,3.44,3.44,0,0,0-2,2,.93.93,0,0,0-.24-.05H13.71a1.29,1.29,0,0,0,0,2.57h6.86a1.69,1.69,0,0,0,.24,0,3.42,3.42,0,0,0,6.38,0,1.69,1.69,0,0,0,.24,0h6.86a1.29,1.29,0,0,0,0-2.57H27.43a.93.93,0,0,0-.24.05,3.44,3.44,0,0,0-2-2,.94.94,0,0,0,.06-.24Zm-1-5.07-.2.05L24,25l-.12,0a6.5,6.5,0,0,1-4.67-7.93l.06-.2a.49.49,0,0,1,.49-.34,5.53,5.53,0,0,0,3.92-1.39.49.49,0,0,1,.64,0,5.53,5.53,0,0,0,3.92,1.39.48.48,0,0,1,.49.34,6.51,6.51,0,0,1-4.41,8.08ZM24,18.51a1,1,0,0,0-1,1,1,1,0,0,0,.51.85v.9a.48.48,0,1,0,1,0v-.9A1,1,0,0,0,25,19.5,1,1,0,0,0,24,18.51Zm0,0a1,1,0,0,0-1,1,1,1,0,0,0,.51.85v.9a.48.48,0,1,0,1,0v-.9A1,1,0,0,0,25,19.5,1,1,0,0,0,24,18.51Zm0,0a1,1,0,0,0-1,1,1,1,0,0,0,.51.85v.9a.48.48,0,1,0,1,0v-.9A1,1,0,0,0,25,19.5,1,1,0,0,0,24,18.51Z" fill="#f8f8f2"/></svg>