<svg xmlns="http://www.w3.org/2000/svg" viewBox="0 0 48 48"><path d="M27.32,8.65a5.37,5.37,0,0,0-1.61,4v.9H8.44a2.44,2.44,0,1,1,0-4.88Z" fill="#fff"/><path d="M8.44,18.41H25.69v4.87H8.44a2.44,2.44,0,1,1,0-4.87Z" fill="#fff"/><path d="M34.93,22a2.4,2.4,0,0,1-2.12,1.24h-2.3V20.56Z" fill="#fff"/><path d="M8.44,27.75h7.45a8,8,0,0,0-1.6,4.82v0H8.44a2.43,2.43,0,1,1,0-4.86Z" fill="#fff"/><path d="M35.25,30.19a2.43,2.43,0,0,1-2.44,2.42h-2.3V27.75h2.3A2.44,2.44,0,0,1,35.25,30.19Z" fill="#fff"/><path d="M42,15.87v1.68a4,4,0,0,1-1.53,3.29,3.69,3.69,0,0,1-2.16.67,4.42,4.42,0,0,1-1.46-.24l-7.68-2.56V32.57A6.8,6.8,0,1,1,27,27.65V18h0V12.63a4,4,0,0,1,1.55-3.3,3.89,3.89,0,0,1,3.6-.42L38.49,11A5.47,5.47,0,0,1,42,15.87Z" fill="#f55"/></svg>