<svg xmlns="http://www.w3.org/2000/svg" viewBox="0 0 48 48"><path d="M39.17,12.66c-2.69-.27-5.39-.47-8.1-.62h0L30.7,9.85C30.45,8.31,30.08,6,26.17,6H21.78c-3.9,0-4.26,2.21-4.53,3.83L16.9,12c-1.56.11-3.12.21-4.67.36l-3.42.33A1.27,1.27,0,0,0,7.67,14a1.25,1.25,0,0,0,1.38,1.12l3.41-.33a133.26,133.26,0,0,1,26.48.35h.13A1.27,1.27,0,0,0,40.33,14,1.29,1.29,0,0,0,39.17,12.66Z" fill="#f8f8f2"/><path d="M36.09,17.53a2.1,2.1,0,0,0-1.52-.65H13.42a2.1,2.1,0,0,0-1.53.65,2.2,2.2,0,0,0-.57,1.57l1,17.18c.19,2.54.42,5.72,6.26,5.72H29.37c5.84,0,6.07-3.16,6.25-5.72l1-17.16A2.13,2.13,0,0,0,36.09,17.53ZM26.77,33.62H21.2a1.26,1.26,0,1,1,0-2.52h5.57a1.26,1.26,0,1,1,0,2.52Zm1.41-6.7H19.81a1.26,1.26,0,1,1,0-2.51h8.37a1.26,1.26,0,0,1,0,2.51Z" fill="#f8f8f2"/></svg>