<svg xmlns="http://www.w3.org/2000/svg" viewBox="0 0 48 48"><path d="M32.71,42H15.29a5,5,0,0,1-5-5V11a5,5,0,0,1,5-5H27.07a5,5,0,0,1,3.54,1.46l5.64,5.65a5,5,0,0,1,1.46,3.53V37A5,5,0,0,1,32.71,42Z" fill="#90caf9"/><path d="M35.22,15.43H28.79a.5.5,0,0,1-.5-.5V8.49a.5.5,0,0,1,.85-.35l6.44,6.44A.5.5,0,0,1,35.22,15.43Z" fill="#e1f5fe"/><path d="M17.63,21.43h13.6a.47.47,0,0,1,.48.48v.75a.47.47,0,0,1-.48.48H17.63a.48.48,0,0,1-.49-.48v-.75A.48.48,0,0,1,17.63,21.43Zm0,3.43H27.8a.48.48,0,0,1,.49.48v.75a.48.48,0,0,1-.49.48H17.63a.48.48,0,0,1-.49-.48v-.75A.48.48,0,0,1,17.63,24.86Zm0,3.43h13.6a.47.47,0,0,1,.48.48v.75a.48.48,0,0,1-.48.48H17.63a.49.49,0,0,1-.49-.48v-.75A.48.48,0,0,1,17.63,28.29Zm0,3.42H27.8a.49.49,0,0,1,.49.49V33a.49.49,0,0,1-.49.48H17.63a.49.49,0,0,1-.49-.48V32.2A.49.49,0,0,1,17.63,31.71Z" fill="#1976d2"/></svg>