<svg xmlns="http://www.w3.org/2000/svg" viewBox="0 0 48 48"><path d="M14.44,34.67a4.3,4.3,0,0,1-3,7.33,4.29,4.29,0,1,1,0-8.58A4.12,4.12,0,0,1,14.44,34.67Z" fill="#8e959f"/><path d="M39.73,16l-4.57.75a.49.49,0,0,0-.27.84l3.28,3.32a1,1,0,0,1-.12,1.51l-3.33,2.43a1,1,0,0,1-1.48-.35l-2.15-4.14a.5.5,0,0,0-.89,0l-2.15,4.17a1,1,0,0,1-1.48.35l-3.33-2.42A1,1,0,0,1,23.11,21l3.26-3.33a.5.5,0,0,0-.27-.84L21.5,16a1,1,0,0,1-.79-1.29l1.23-3.79a1,1,0,0,1,1.39-.59l4.2,2a.5.5,0,0,0,.71-.52l-.66-4.71a1,1,0,0,1,1-1.14h4.15a1,1,0,0,1,1,1.14L33,11.88a.5.5,0,0,0,.72.52l4.13-2.08a1,1,0,0,1,1.4.58l1.26,3.81A1,1,0,0,1,39.73,16Z" fill="#b3b9bf"/></svg>