<svg xmlns="http://www.w3.org/2000/svg" viewBox="0 0 48 48"><path d="M32.71,42H15.29a5,5,0,0,1-5-5V11a5,5,0,0,1,5-5H27.07a5,5,0,0,1,3.54,1.46l5.64,5.65a5,5,0,0,1,1.46,3.53V37A5,5,0,0,1,32.71,42Z" fill="#76b83f"/><path d="M24,18.36A7.67,7.67,0,0,0,21.55,33.3c-.19-.4-.37-.84-.53-1.26L17.8,23.35a.31.31,0,0,1,.27-.42l2.26-.44a.49.49,0,0,1,.51.27l1.55,3.9a3.54,3.54,0,0,0,.4.67,2.78,2.78,0,0,0,2.71,1.16,2,2,0,0,0,1.65-1.67,1.11,1.11,0,0,0-.12-.65l-1.86-4.24a.27.27,0,0,1,.2-.38l1.89-.34a.44.44,0,0,1,.45.24l2.06,4.44a3.33,3.33,0,0,0,.38.62,1.23,1.23,0,0,0,1.11.5,1,1,0,0,0,.36-.09,8.65,8.65,0,0,0,.05-.88A7.67,7.67,0,0,0,24,18.36Zm4.58,10c-.18-.11-.36-.29-.41-.29a3,3,0,0,1-2.29,2.19,3,3,0,0,1-2.35-.1l.21.53c.08.21.22.56.31.77,0,0,.52,1.25,1,2.16a7.65,7.65,0,0,0,6.15-4.93l-.25.09A2.71,2.71,0,0,1,28.58,28.38Z" fill="#fff" fill-rule="evenodd"/></svg>