<svg xmlns="http://www.w3.org/2000/svg" viewBox="0 0 48 48"><path d="M32.71,42H15.29a5,5,0,0,1-5-5V11a5,5,0,0,1,5-5H27.07a5,5,0,0,1,3.54,1.46l5.64,5.65a5,5,0,0,1,1.46,3.53V37A5,5,0,0,1,32.71,42Z" fill="#268bff"/><rect x="16.33" y="29.73" width="11.08" height="2.05" rx="0.5" fill="#fff"/><rect x="16.33" y="24.82" width="15.35" height="2.05" rx="0.5" fill="#fff"/><rect x="16.33" y="19.91" width="15.35" height="2.05" rx="0.5" fill="#fff"/><path d="M35.22,15.43H28.79a.5.5,0,0,1-.5-.5V8.49a.5.5,0,0,1,.85-.35l6.44,6.44A.5.5,0,0,1,35.22,15.43Z" fill="#80caff"/></svg>