<svg xmlns="http://www.w3.org/2000/svg" viewBox="0 0 48 48"><path d="M25.62,31.79l3-2.5-3-2.75Z" fill="#f8f8f2"/><path d="M25.62,21.47l3-2.76-3-2.5Z" fill="#f8f8f2"/><path d="M29.4,6H18.6c-5.4,0-9,3.6-9,9V33c0,5.4,3.6,9,9,9H29.4c5.4,0,9-3.6,9-9V15C38.4,9.6,34.8,6,29.4,6Zm1.3,21.51a2.43,2.43,0,0,1,.79,1.84,2.46,2.46,0,0,1-.88,1.8l-3.73,3.11a2.75,2.75,0,0,1-1.8.74,2.34,2.34,0,0,1-.88-.18,2.42,2.42,0,0,1-1.3-2.41V27.6l-4.14,3.8a1.35,1.35,0,0,1-1.82-2L22.85,24l-5.91-5.42a1.36,1.36,0,0,1,1.84-2l4.14,3.82V15.59a2.3,2.3,0,0,1,4-1.87l3.71,3.1a2.44,2.44,0,0,1,.88,1.8,2.38,2.38,0,0,1-.79,1.83L26.84,24Z" fill="#f8f8f2"/></svg>