<svg xmlns="http://www.w3.org/2000/svg" viewBox="0 0 48 48"><path d="M21.16,26.55h5.12l.57-5.11H21.74Z" fill="#f8f8f2"/><path d="M31.55,6H16.47C9.91,6,6,9.91,6,16.46V31.52C6,38.09,9.91,42,16.47,42H31.53C38.08,42,42,38.09,42,31.54V16.46C42,9.91,38.1,6,31.55,6Zm4.73,15.44H29.5l-.58,5.13H35a1.32,1.32,0,0,1,0,2.63H28.63l-.73,6.59A1.33,1.33,0,0,1,26.58,37h-.14a1.33,1.33,0,0,1-1.17-1.46l.7-6.3H20.86l-.74,6.59A1.32,1.32,0,0,1,18.81,37h-.15a1.33,1.33,0,0,1-1.17-1.46l.7-6.3H11.73a1.32,1.32,0,0,1,0-2.63h6.79l.57-5.13H13a1.31,1.31,0,1,1,0-2.62h6.35l.74-6.59a1.32,1.32,0,1,1,2.63.29l-.7,6.3h5.11l.74-6.59a1.32,1.32,0,1,1,2.62.29l-.7,6.3h6.5a1.31,1.31,0,0,1,1.31,1.31A1.35,1.35,0,0,1,36.28,21.44Z" fill="#f8f8f2"/></svg>