<svg xmlns="http://www.w3.org/2000/svg" viewBox="0 0 48 48"><path d="M16.91,24a5.44,5.44,0,0,1-2.12-1.32l-3.51-3.51a5.27,5.27,0,0,1-.57-.68h0a5.58,5.58,0,0,0,.87,11.1h5A5.6,5.6,0,0,0,22.13,24a5.16,5.16,0,0,0-.06-.79,5.53,5.53,0,0,1-1.5.79A5.6,5.6,0,0,0,16.91,24Z" fill="#ff79c6"/><path d="M29.51,10.7a5.57,5.57,0,0,0-11,0,7.08,7.08,0,0,1,.68.57l3.51,3.51A5.57,5.57,0,0,1,24,16.9a5.63,5.63,0,0,1,0,3.67,5.53,5.53,0,0,1-.79,1.5,4.55,4.55,0,0,0,1.59,0,5.24,5.24,0,0,0,1.63-.5A5.61,5.61,0,0,0,29,19a5.53,5.53,0,0,0,.57-2.43v-5A5.17,5.17,0,0,0,29.51,10.7Z" fill="#ffb86c"/><path d="M28.83,36.73l-3.51-3.51A5.62,5.62,0,0,1,24,27.43a5.57,5.57,0,0,1,.8-1.5,4.55,4.55,0,0,0-1.59,0,5.24,5.24,0,0,0-1.63.5,5.63,5.63,0,0,0-3.16,5v5a5.17,5.17,0,0,0,.08.89,5.57,5.57,0,0,0,11,0A5.27,5.27,0,0,1,28.83,36.73Z" fill="#44475a"/><path d="M37.3,18.49a5.27,5.27,0,0,1-.57.68l-3.51,3.51A5.52,5.52,0,0,1,31.1,24a5.6,5.6,0,0,1-3.66,0,5.35,5.35,0,0,1-1.51-.8,5.36,5.36,0,0,0,0,1.6,5.41,5.41,0,0,0,.5,1.63A5.65,5.65,0,0,0,29,29a5.53,5.53,0,0,0,2.43.57h5a5.14,5.14,0,0,0,.88-.08,5.58,5.58,0,0,0,0-11Z" fill="#50fa7b"/><path d="M36.73,11.27a5.61,5.61,0,0,0-7.22-.57,5.17,5.17,0,0,1,.08.89v5A5.53,5.53,0,0,1,29,19a5.61,5.61,0,0,1-2.59,2.59,5.24,5.24,0,0,1-1.63.5,5.07,5.07,0,0,0,.52.61,4.94,4.94,0,0,0,.61.52,5.35,5.35,0,0,0,1.51.8,5.6,5.6,0,0,0,3.66,0,5.52,5.52,0,0,0,2.12-1.32l3.51-3.51a5.27,5.27,0,0,0,.57-.68A5.61,5.61,0,0,0,36.73,11.27Z" fill="#f1fa8c"/><path d="M37.3,29.51a5.14,5.14,0,0,1-.88.08h-5A5.53,5.53,0,0,1,29,29a5.65,5.65,0,0,1-2.59-2.59,5.41,5.41,0,0,1-.5-1.63,4.94,4.94,0,0,0-.61.52,5.07,5.07,0,0,0-.52.61,5.57,5.57,0,0,0-.8,1.5,5.62,5.62,0,0,0,1.32,5.79l3.51,3.51a5.27,5.27,0,0,0,.68.57,5.58,5.58,0,0,0,7.79-7.79Z" fill="#8be9fd"/><path d="M24,16.9a5.57,5.57,0,0,0-1.31-2.12l-3.51-3.51a7.08,7.08,0,0,0-.68-.57,5.58,5.58,0,0,0-7.79,7.79,5,5,0,0,1,.87-.08h5a5.61,5.61,0,0,1,5.52,4.8h0a4.94,4.94,0,0,0,.61-.52,5.07,5.07,0,0,0,.52-.61,5.53,5.53,0,0,0,.79-1.5A5.63,5.63,0,0,0,24,16.9Z" fill="#f55"/><path d="M16.55,18.41h-5a5,5,0,0,0-.87.08h0a5.27,5.27,0,0,0,.57.68l3.51,3.51A5.44,5.44,0,0,0,16.91,24a5.6,5.6,0,0,1,3.66,0,5.53,5.53,0,0,0,1.5-.79A5.61,5.61,0,0,0,16.55,18.41Z" fill="#ff79c6"/><path d="M22.69,25.32a4.94,4.94,0,0,0-.61-.52,5.49,5.49,0,0,0-1.51-.8,5.6,5.6,0,0,0-3.66,0,5.44,5.44,0,0,0-2.12,1.32l-3.51,3.51a5.27,5.27,0,0,0-.57.68A5.58,5.58,0,0,0,18.5,37.3a5.17,5.17,0,0,1-.08-.89v-5a5.63,5.63,0,0,1,3.16-5,5.24,5.24,0,0,1,1.63-.5A5.07,5.07,0,0,0,22.69,25.32Z" fill="#bd93f9"/></svg>