<svg xmlns="http://www.w3.org/2000/svg" viewBox="0 0 48 48"><path d="M24,42c-8.51,0-15.43-2.31-15.43-5.14V31.71a2.26,2.26,0,0,1,.54-1.28c1.72,2.21,7.72,3.86,14.89,3.86s13.17-1.65,14.89-3.86a2.11,2.11,0,0,1,.54,1.28v5.15C39.43,39.69,32.51,42,24,42Z" fill="#696c7b" fill-rule="evenodd"/><path d="M24,31.71c-8.51,0-15.43-2.31-15.43-5.14V21.43a1.76,1.76,0,0,1,.23-.8,3.12,3.12,0,0,1,.31-.49C10.83,22.35,16.83,24,24,24s13.17-1.65,14.89-3.86a3.12,3.12,0,0,1,.31.49,2,2,0,0,1,.23.8v5.14C39.43,29.4,32.51,31.71,24,31.71Z" fill="#696c7b" fill-rule="evenodd"/><path d="M24,21.43c-8.51,0-15.43-2.32-15.43-5.14V11.14C8.57,8.31,15.49,6,24,6s15.43,2.31,15.43,5.14v5.15C39.43,19.11,32.51,21.43,24,21.43ZM34.29,11.14c0,1.42-4.61,2.57-10.29,2.57s-10.29-1.15-10.29-2.57S18.32,8.57,24,8.57,34.29,9.73,34.29,11.14Z" fill="#696c7b" fill-rule="evenodd"/></svg>