<svg xmlns="http://www.w3.org/2000/svg" viewBox="0 0 48 48"><path d="M34.81,15h-3.6a1.81,1.81,0,0,0-1.8,1.81v3.6a1.81,1.81,0,0,0,1.8,1.8v1.48L25.8,25.82V14.07h1.8A1.8,1.8,0,0,0,29,11.15l-3.6-4.51a1.88,1.88,0,0,0-2.82,0L19,11.15a1.8,1.8,0,0,0-.21,1.9,1.77,1.77,0,0,0,1.62,1h1.8V28l-5.41-3.24V21.69A3.6,3.6,0,0,0,15,15a3.6,3.6,0,0,0-1.8,6.72v4.09a1.81,1.81,0,0,0,.87,1.55l7.45,4.47a5.42,5.42,0,1,0,4.29-.29V29.7l7.88-3.15a1.8,1.8,0,0,0,1.13-1.67v-2.7a1.8,1.8,0,0,0,1.8-1.8v-3.6A1.8,1.8,0,0,0,34.81,15ZM24,38.4a1.81,1.81,0,1,1,1.8-1.81A1.81,1.81,0,0,1,24,38.4Z" fill="#f8f8f2"/></svg>