<svg xmlns="http://www.w3.org/2000/svg" viewBox="0 0 48 48"><path d="M31.23,40.18A1.81,1.81,0,0,1,29.42,42H18.58a1.8,1.8,0,0,1-1.8-1.79l0-3.58a3.6,3.6,0,0,1,3.6-3.6h7.23a3.61,3.61,0,0,1,3.6,3.58Z" fill="#f8f8f2"/><path d="M35.71,20.41v3.91a3.62,3.62,0,0,0,1.06,2.56l1.48,1.48a3.59,3.59,0,0,1,1.07,2.56V33c0,4.14-1.64,7.19-5.22,8.4A.83.83,0,0,1,33,40.62v-4a5.46,5.46,0,0,0-5.41-5.37H20.38A5.42,5.42,0,0,0,15,36.63v4a.83.83,0,0,1-1.07.82c-3.62-1.2-5.22-4.27-5.22-8.43V15c0-4.34,1.72-7.51,5.67-8.58a.83.83,0,0,1,1,.84l-.06,4a3.21,3.21,0,0,0,.87,2.27,3.16,3.16,0,0,0,2.29,1,3.11,3.11,0,0,0,2.31-1,.58.58,0,0,1,.8,0,3.19,3.19,0,0,0,2.29,1,3.15,3.15,0,0,0,2.35-1.06.54.54,0,0,1,.77,0,3.19,3.19,0,0,0,2.29,1,3.13,3.13,0,0,0,3.15-3.1l.07-4a.85.85,0,0,1,1-.83c4,1.06,5.76,4.25,5.76,8.6v1.8a1.81,1.81,0,0,1-1.81,1.8A1.81,1.81,0,0,0,35.71,20.41Z" fill="#f8f8f2"/><path d="M19,6a.89.89,0,0,1,.9.91l-.07,4.41a1.37,1.37,0,0,1-1.35,1.34h0a1.36,1.36,0,0,1-1.34-1.39V6.91A.91.91,0,0,1,18,6Z" fill="#f8f8f2"/><path d="M24.42,6a.9.9,0,0,1,.9.92l-.08,4.4a1.35,1.35,0,0,1-1.35,1.31h0a1.35,1.35,0,0,1-1.33-1.37V6.9a.9.9,0,0,1,.9-.9Z" fill="#f8f8f2"/><path d="M29.83,6a.9.9,0,0,1,.89.92l-.07,4.28a1.35,1.35,0,0,1-1.35,1.33h0A1.34,1.34,0,0,1,28,11.17V6.91a.89.89,0,0,1,.9-.9Z" fill="#f8f8f2"/></svg>