<svg xmlns="http://www.w3.org/2000/svg" viewBox="0 0 48 48"><path d="M41.1,29.62H6.9c-1.2,0-1.2-11.24,0-11.24H41.1C42.3,18.38,42.3,29.62,41.1,29.62Z" fill="#6065a9"/><path d="M41.1,40.88H6.9c-1.2,0-1.2-11.25,0-11.25H41.1C42.3,29.63,42.3,40.88,41.1,40.88Z" fill="#52ac62"/><path d="M41.1,18.37H6.9c-1.2,0-1.2-11.25,0-11.25H41.1C42.3,7.12,42.3,18.37,41.1,18.37Z" fill="#d34a44"/><rect x="19.02" y="6" width="9.96" height="36" rx="1.73" fill="#ed8132"/><path d="M28,33.16H20a2.59,2.59,0,0,1-2.37-2.88L18,22.35a1.7,1.7,0,0,1,1.6-1.68h8.86A1.7,1.7,0,0,1,30,22.35l.32,7.93A2.59,2.59,0,0,1,28,33.16Z" fill="#f8f8f2"/><path d="M28.11,30H19.89a.87.87,0,0,1-.87-.87V12.24a4.33,4.33,0,0,1,4.32-4.32h1.32A4.33,4.33,0,0,1,29,12.24V29.16A.87.87,0,0,1,28.11,30Zm-2.91-3a1,1,0,0,0-.84-1.13h-.79a1,1,0,0,0-.84,1.13L23,30h2Z" fill="#fca755"/><rect x="18.45" y="13.2" width="11.1" height="4.87" rx="0.67" fill="#f59949"/></svg>