<svg xmlns="http://www.w3.org/2000/svg" viewBox="0 0 48 48"><path d="M18.6,21.09a4.29,4.29,0,1,0-4.28-4.29A4.29,4.29,0,0,0,18.6,21.09Z" fill="#f8f8f2"/><path d="M31.54,6H16.46C9.91,6,6,9.91,6,16.46V31.54a12,12,0,0,0,1,5.11C8.56,40.07,11.87,42,16.46,42H31.54C38.09,42,42,38.09,42,31.54V16.46C42,9.91,38.09,6,31.54,6Zm7.53,18.9a4,4,0,0,0-5.08,0L26.5,31.33a4,4,0,0,1-5.07,0l-.62-.51a4,4,0,0,0-4.75-.25L9.33,35.09a9.54,9.54,0,0,1-.63-3.55V16.46c0-5.08,2.68-7.76,7.76-7.76H31.54c5.08,0,7.76,2.68,7.76,7.76V25.1Z" fill="#f8f8f2"/></svg>