<svg xmlns="http://www.w3.org/2000/svg" viewBox="0 0 48 48"><path d="M38.4,13.2H22.2L18.6,9.6h-9A3.61,3.61,0,0,0,6,13.2v7.2H42V16.8A3.61,3.61,0,0,0,38.4,13.2Z" fill="#d68600"/><path d="M38.4,13.2H9.6A3.61,3.61,0,0,0,6,16.8v18a3.61,3.61,0,0,0,3.6,3.6H38.4A3.61,3.61,0,0,0,42,34.8v-18a3.61,3.61,0,0,0-3.6-3.6Z" fill="#ffca28"/><path d="M25.85,25.23V24h-3.7v1.26a11.77,11.77,0,0,0-2,5.78,3.83,3.83,0,0,0,7.65,0A11.75,11.75,0,0,0,25.85,25.23ZM24,33a1.86,1.86,0,1,1,1.86-1.85A1.85,1.85,0,0,1,24,33Z" fill="#d68600"/><rect x="22.15" y="13.17" width="3.7" height="1.83" fill="#d68600"/><rect x="22.15" y="15.87" width="3.7" height="1.83" fill="#d68600"/><rect x="22.15" y="18.57" width="3.7" height="1.83" fill="#d68600"/><rect x="22.15" y="21.27" width="3.7" height="1.83" fill="#d68600"/></svg>