<svg xmlns="http://www.w3.org/2000/svg" viewBox="0 0 48 48"><path d="M36.35,27.91A8,8,0,0,1,30.91,30H14.35c-7-.5-7-10.63,0-11.12h.07C9.64,5.57,29.85.28,32.16,14.23,38.63,15.05,41.25,23.64,36.35,27.91Z" fill="#f8f8f2"/><path d="M35.57,38.57a1.3,1.3,0,0,1-1.28,1.29H27.43a.51.51,0,0,1-.24,0,3.42,3.42,0,0,1-6.38,0,.49.49,0,0,1-.24,0H13.72a1.29,1.29,0,1,1,0-2.57h6.85a.63.63,0,0,1,.24,0,3.43,3.43,0,0,1,1.94-1.94.63.63,0,0,1,0-.24V30h2.57v5.14a.49.49,0,0,1,0,.24,3.4,3.4,0,0,1,1.94,1.94.66.66,0,0,1,.24,0h6.86A1.29,1.29,0,0,1,35.57,38.57Z" fill="#f8f8f2"/></svg>