<svg xmlns="http://www.w3.org/2000/svg" viewBox="0 0 48 48"><path d="M39.9,33a1.79,1.79,0,0,1-1.56-.9,12.64,12.64,0,0,1-1.68-6.3V24c0-.07,0-.13,0-.2a12.59,12.59,0,0,0-1.73-7.86A1.8,1.8,0,0,1,38,14.08a16.26,16.26,0,0,1,2.23,10V25.8a9.06,9.06,0,0,0,1.2,4.49A1.8,1.8,0,0,1,39.9,33Z" fill="#f8f8f2"/><path d="M34.87,36.58a1.76,1.76,0,0,1-1.44-.72,19.89,19.89,0,0,1-4-11.86V22.2a5.39,5.39,0,0,0-10.78,0,1.8,1.8,0,1,1-3.6,0,9,9,0,0,1,18,0V24a16.25,16.25,0,0,0,3.24,9.7,1.79,1.79,0,0,1-1.44,2.88Z" fill="#f8f8f2"/><path d="M28.58,42a1.8,1.8,0,0,1-1.48-.77,26.82,26.82,0,0,1-4.82-15.42V22.2a1.8,1.8,0,1,1,3.6,0v3.6a23.27,23.27,0,0,0,4.17,13.35,1.8,1.8,0,0,1-.45,2.51A1.83,1.83,0,0,1,28.58,42Z" fill="#f8f8f2"/><path d="M20.13,42a1.79,1.79,0,0,1-1.61-1A34.2,34.2,0,0,1,15.1,29.6a1.8,1.8,0,0,1,3.58-.42,30.34,30.34,0,0,0,3.05,10.19,1.8,1.8,0,0,1-.8,2.42A1.77,1.77,0,0,1,20.13,42Z" fill="#f8f8f2"/><path d="M11.31,38.38A1.79,1.79,0,0,1,9.59,37.1,41.3,41.3,0,0,1,7.9,23.94V22.2A16.18,16.18,0,0,1,24,6a16.25,16.25,0,0,1,8.13,2.17,1.8,1.8,0,1,1-1.8,3.11,12.61,12.61,0,0,0-6.29-1.68h0A12.58,12.58,0,0,0,11.5,22.19V24A37.67,37.67,0,0,0,13,36.07a1.81,1.81,0,0,1-1.21,2.24A1.86,1.86,0,0,1,11.31,38.38Z" fill="#f8f8f2"/></svg>