<svg xmlns="http://www.w3.org/2000/svg" viewBox="0 0 48 48"><path d="M31.34,24a7.15,7.15,0,1,1-7.14-7.14A7.14,7.14,0,0,1,31.34,24Z" fill="#f8f8f2"/><path d="M24.2,13.56a2,2,0,0,1-2-2V8a2,2,0,0,1,4,0v3.56A2,2,0,0,1,24.2,13.56Z" fill="#f8f8f2"/><path d="M32.94,17.11a2,2,0,0,1-1.4-.57,2,2,0,0,1,0-2.83L34,11.22A2,2,0,0,1,36.81,14l-2.45,2.49A2,2,0,0,1,32.94,17.11Z" fill="#f8f8f2"/><path d="M39.93,26h-3.5a2,2,0,0,1,0-4h3.5a2,2,0,0,1,0,4Z" fill="#f8f8f2"/><path d="M35.38,37.38a2,2,0,0,1-1.42-.6l-2.45-2.49a2,2,0,1,1,2.85-2.8L36.81,34a2,2,0,0,1-1.43,3.4Z" fill="#f8f8f2"/><path d="M24.16,42a2,2,0,0,1-2-2V36.44a2,2,0,0,1,4,0V40A2,2,0,0,1,24.16,42Z" fill="#f8f8f2"/><path d="M13,37.38a2,2,0,0,1-1.4-.58,2,2,0,0,1,0-2.82L14,31.49a2,2,0,1,1,2.85,2.8l-2.44,2.49A2,2,0,0,1,13,37.38Z" fill="#f8f8f2"/><path d="M12.57,26H9.07a2,2,0,0,1,0-4h3.5a2,2,0,0,1,0,4Z" fill="#f8f8f2"/><path d="M15.46,17.11a2,2,0,0,1-1.43-.6L11.58,14a2,2,0,0,1,2.86-2.8l2.44,2.49a2,2,0,0,1-1.42,3.4Z" fill="#f8f8f2"/></svg>