<svg xmlns="http://www.w3.org/2000/svg" viewBox="0 0 48 48"><path d="M40.3,23.68l-.28-.4a5.84,5.84,0,0,0-1.79-1.46,6.12,6.12,0,0,0-3-.79H12.78a6.21,6.21,0,0,0-3,.79,6.08,6.08,0,0,0-1.85,1.55,6.38,6.38,0,0,0-1.35,4.56l.66,8.4c.24,2.54.54,5.67,6.25,5.67H34.54c5.71,0,6-3.13,6.25-5.69l.67-8.37A6,6,0,0,0,40.3,23.68Zm-12,9.93H19.68a1.26,1.26,0,0,1,0-2.52H28.3a1.27,1.27,0,0,1,1.26,1.26A1.25,1.25,0,0,1,28.3,33.61Z" fill="#f8f8f2"/><path d="M39.41,17.87a1,1,0,0,1-1.34.93,9.06,9.06,0,0,0-2.86-.45H12.79a9.1,9.1,0,0,0-2.91.47,1,1,0,0,1-1.4-.91V14.39C8.48,8,10.45,6,16.87,6H19a4.59,4.59,0,0,1,4.42,2.18l2.16,2.88c.45.61.47.65,1.26.65h4.29C36.75,11.71,39,13.21,39.41,17.87Z" fill="#f8f8f2"/></svg>