<svg xmlns="http://www.w3.org/2000/svg" viewBox="0 0 48 48"><path d="M43.55,6.05v5a8.48,8.48,0,0,1-2.27,5.22L31.5,24.91a7.42,7.42,0,0,0-2.27,5.23v9.78a5.05,5.05,0,0,1-2.05,3.86l-3.18,2A4.63,4.63,0,0,1,17,42v-12a8.85,8.85,0,0,0-1.81-4.77L14.07,24a2.28,2.28,0,0,1-.28-2.78L25.43,2.57A2.27,2.27,0,0,1,27.36,1.5H39A4.57,4.57,0,0,1,43.55,6.05Z" fill="#f8f8f2"/><path d="M20.25,5,12.18,17.91a2.28,2.28,0,0,1-3.57.37L6.5,16.05a7.52,7.52,0,0,1-2-4.55V6.27A4.62,4.62,0,0,1,9,1.5h9.32A2.28,2.28,0,0,1,20.25,5Z" fill="#f8f8f2"/></svg>