<svg xmlns="http://www.w3.org/2000/svg" viewBox="0 0 48 48"><path d="M40.42,15,33,7.58A6.31,6.31,0,0,0,29.22,6H18.78A6.31,6.31,0,0,0,15,7.58L7.58,15A6.31,6.31,0,0,0,6,18.78V29.22A6.31,6.31,0,0,0,7.58,33L15,40.42A6.31,6.31,0,0,0,18.78,42H29.22A6.31,6.31,0,0,0,33,40.42L40.42,33A6.31,6.31,0,0,0,42,29.22V18.78A6.31,6.31,0,0,0,40.42,15ZM31.25,29.35a1.34,1.34,0,1,1-1.9,1.9L24,25.91l-5.35,5.34a1.34,1.34,0,0,1-1.9-1.9L22.09,24l-5.34-5.35a1.34,1.34,0,0,1,1.9-1.9L24,22.09l5.35-5.34a1.34,1.34,0,0,1,1.9,1.9L25.91,24Z" fill="#f8f8f2"/></svg>