<svg xmlns="http://www.w3.org/2000/svg" viewBox="0 0 48 48"><path d="M40.85,22.65H38.6V20.4a1.35,1.35,0,0,0-2.7,0v2.25H33.66a1.35,1.35,0,0,0,0,2.7H35.9V27.6a1.35,1.35,0,0,0,2.7,0V25.35h2.25a1.35,1.35,0,1,0,0-2.7Z" fill="#f8f8f2"/><path d="M27.35,10.39c-1.86-1-4.23-.76-6.64.74l-4.84,3a2.13,2.13,0,0,1-1.09.32H12.41c-4,0-6.21,2.2-6.21,6.21v6.62c0,4,2.2,6.21,6.21,6.21h2.37a2.13,2.13,0,0,1,1.09.32l4.84,3a8,8,0,0,0,4.2,1.36,5,5,0,0,0,2.44-.61c1.84-1,2.86-3.17,2.86-6V16.4C30.21,13.55,29.19,11.41,27.35,10.39Z" fill="#f8f8f2"/></svg>