<svg xmlns="http://www.w3.org/2000/svg" viewBox="0 0 48 48"><circle cx="24" cy="24" r="8.86" fill="#f8f8f2"/><path d="M24,10a2,2,0,1,1,2-2V8A2,2,0,0,1,24,10Z" fill="#f8f8f2"/><path d="M35.43,14.6a2,2,0,1,1,2-2v0A2,2,0,0,1,35.43,14.6Z" fill="#f8f8f2"/><path d="M40,26a2,2,0,1,1,2-2v0A2,2,0,0,1,40,26Z" fill="#f8f8f2"/><path d="M35.43,37.45a2,2,0,1,1,2-2v0A2,2,0,0,1,35.43,37.45Z" fill="#f8f8f2"/><path d="M24,42a2,2,0,1,1,2-2v0A2,2,0,0,1,24,42Z" fill="#f8f8f2"/><path d="M12.57,37.45a2,2,0,1,1,2-2v0A2,2,0,0,1,12.57,37.45Z" fill="#f8f8f2"/><path d="M8,26a2,2,0,1,1,2-2v0A2,2,0,0,1,8,26Z" fill="#f8f8f2"/><path d="M12.57,14.6a2,2,0,0,1,0-4,2,2,0,0,1,2,2v0A2,2,0,0,1,12.57,14.6Z" fill="#f8f8f2"/></svg>