<svg xmlns="http://www.w3.org/2000/svg" viewBox="0 0 48 48"><path d="M20.75,20.59h6.5c4,0,5.67-2.86,3.67-6.34L30,12.69A1.22,1.22,0,0,0,29,12.08H19a1.22,1.22,0,0,0-1.06.61l-.9,1.56C15.08,17.73,16.72,20.59,20.75,20.59Z" fill="#f8f8f2"/><path d="M20.1,10.86h7.82a.6.6,0,0,0,.52-.91l-.78-1.33c-2-3.49-5.31-3.49-7.32,0L19.57,10A.61.61,0,0,0,20.1,10.86Z" fill="#f8f8f2"/><path d="M20.75,27.41h6.5c4,0,5.67,2.86,3.67,6.35L30,35.31a1.22,1.22,0,0,1-1.06.61H19A1.22,1.22,0,0,1,18,35.31l-.9-1.55C15.08,30.27,16.72,27.41,20.75,27.41Z" fill="#f8f8f2"/><path d="M20.1,37.14h7.82a.6.6,0,0,1,.52.91l-.78,1.33c-2,3.49-5.31,3.49-7.32,0l-.77-1.33A.61.61,0,0,1,20.1,37.14Z" fill="#f8f8f2"/></svg>