<svg xmlns="http://www.w3.org/2000/svg" viewBox="0 0 48 48"><path d="M41.81,26.55,39.2,24l2.52-2.52a1.35,1.35,0,0,0-1.91-1.91L37.29,22l-2.61-2.61a1.35,1.35,0,1,0-1.91,1.91L35.38,24,32.7,26.63a1.35,1.35,0,0,0,0,1.9,1.34,1.34,0,0,0,1.91,0l2.68-2.68,2.61,2.61a1.34,1.34,0,0,0,1.91,0A1.36,1.36,0,0,0,41.81,26.55Z" fill="#f8f8f2"/><path d="M27.35,10.39c-1.86-1-4.22-.76-6.64.74l-4.84,3a2.13,2.13,0,0,1-1.09.32H12.41c-4,0-6.21,2.2-6.21,6.21v6.62c0,4,2.2,6.21,6.21,6.21h2.37a2.13,2.13,0,0,1,1.09.32l4.84,3a8,8,0,0,0,4.2,1.36,4.92,4.92,0,0,0,2.44-.62c1.84-1,2.86-3.16,2.86-6V16.4C30.21,13.55,29.19,11.41,27.35,10.39Z" fill="#f8f8f2"/></svg>