<svg xmlns="http://www.w3.org/2000/svg" viewBox="0 0 48 48"><path d="M31.54,6H16.46A10.46,10.46,0,0,0,6,16.46v4.39a1.81,1.81,0,0,0,1.8,1.8H40.2a1.81,1.81,0,0,0,1.8-1.8V16.46A10.46,10.46,0,0,0,31.54,6Zm-17,11.25a1.35,1.35,0,0,1-2.7,0v-3.6a1.35,1.35,0,0,1,2.7,0Zm7.2,0a1.35,1.35,0,0,1-2.7,0v-3.6a1.35,1.35,0,0,1,2.7,0Zm13-.45H27.6a1.35,1.35,0,1,1,0-2.7h7.2a1.35,1.35,0,1,1,0,2.7Z" fill="#f8f8f2"/><path d="M6,31.54A10.46,10.46,0,0,0,16.46,42H31.52A10.46,10.46,0,0,0,42,31.54V27.15a1.81,1.81,0,0,0-1.8-1.8H7.8A1.81,1.81,0,0,0,6,27.15Zm21.6.11h7.2a1.35,1.35,0,0,1,0,2.7H27.6a1.35,1.35,0,1,1,0-2.7Zm-8.55-.45a1.35,1.35,0,0,1,2.7,0v3.6a1.35,1.35,0,0,1-2.7,0Zm-7.2,0a1.35,1.35,0,0,1,2.7,0v3.6a1.35,1.35,0,0,1-2.7,0Z" fill="#f8f8f2"/></svg>