<svg xmlns="http://www.w3.org/2000/svg" viewBox="0 0 48 48"><path d="M37,12.21,27,8.47a9.89,9.89,0,0,0-6,0L11,12.21a6.94,6.94,0,0,0-4.18,6V33.1A9.72,9.72,0,0,0,10.25,40l8.61,6.43a9.1,9.1,0,0,0,10.28,0L37.75,40a9.72,9.72,0,0,0,3.46-6.88V18.23A7.05,7.05,0,0,0,37,12.21ZM23.84,18.05A4.28,4.28,0,0,1,24,26.6h-.2a4.28,4.28,0,0,1,0-8.55Zm4.52,18.67A8.1,8.1,0,0,1,24,37.94a7.89,7.89,0,0,1-4.38-1.22,3.62,3.62,0,0,1-1.78-2.94,3.63,3.63,0,0,1,1.78-3,8.63,8.63,0,0,1,8.78,0,3.57,3.57,0,0,1,1.78,2.94A3.7,3.7,0,0,1,28.36,36.72Z" fill="#f8f8f2"/></svg>