<svg xmlns="http://www.w3.org/2000/svg" viewBox="0 0 48 48"><path d="M40.67,18.92A26,26,0,0,0,39,16.59a1.81,1.81,0,0,0-2.68-.16l-5.4,5.4a7.12,7.12,0,0,1,.11,4A7.23,7.23,0,0,1,25.83,31a7.12,7.12,0,0,1-4-.1l-4.42,4.43a1.81,1.81,0,0,0,.59,3,16.54,16.54,0,0,0,6,1.11,17.36,17.36,0,0,0,9.16-2.68,24.13,24.13,0,0,0,7.61-7.81A10.41,10.41,0,0,0,40.67,18.92Z" fill="#f8f8f2"/><path d="M27.63,20.36l-7.27,7.28A5.24,5.24,0,0,1,18.85,24,5.15,5.15,0,0,1,24,18.85,5.22,5.22,0,0,1,27.63,20.36Z" fill="#f8f8f2"/><path d="M35.24,12.74l-6.1,6.11a7.28,7.28,0,0,0-10.29,10.3l-6.09,6.1h0a25.51,25.51,0,0,1-5.4-6.14,10.38,10.38,0,0,1,0-10.24,24,24,0,0,1,7.48-7.62A17.59,17.59,0,0,1,24,8.57,17.89,17.89,0,0,1,35.24,12.74Z" fill="#f8f8f2"/><path d="M29.13,24A5.15,5.15,0,0,1,24,29.14a1.09,1.09,0,0,1-.31,0l5.42-5.42A1.05,1.05,0,0,1,29.13,24Z" fill="#f8f8f2"/><path d="M41.57,6.41a1.37,1.37,0,0,0-2,0L6.41,39.64a1.38,1.38,0,0,0,1,2.36,1.34,1.34,0,0,0,1-.41L41.57,8.35A1.33,1.33,0,0,0,41.57,6.41Z" fill="#f8f8f2"/></svg>