<svg xmlns="http://www.w3.org/2000/svg" viewBox="0 0 48 48"><path d="M31.55,6H16.47C9.91,6,6,9.91,6,16.46V31.52C6,38.09,9.91,42,16.47,42H31.53C38.08,42,42,38.09,42,31.54V16.46C42,9.91,38.1,6,31.55,6ZM24,31a7,7,0,1,1,7-7A7,7,0,0,1,24,31Zm10.65-16.2a2.07,2.07,0,0,1-.37.6,2.1,2.1,0,0,1-.6.38,1.76,1.76,0,0,1-.68.14,1.78,1.78,0,0,1-1.28-.52,2.1,2.1,0,0,1-.38-.6,1.72,1.72,0,0,1,0-1.36,1.86,1.86,0,0,1,.38-.6,1.79,1.79,0,0,1,1.62-.48,1,1,0,0,1,.34.1,1.3,1.3,0,0,1,.33.17,2.47,2.47,0,0,1,.27.21,1.84,1.84,0,0,1,.37.6,1.62,1.62,0,0,1,0,1.36Z" fill="#f8f8f2"/></svg>