<svg xmlns="http://www.w3.org/2000/svg" viewBox="0 0 48 48"><path d="M36,29.94A5.94,5.94,0,1,1,42,24a6,6,0,0,1-6,5.94m0-9.74A3.8,3.8,0,1,0,39.85,24,3.82,3.82,0,0,0,36,20.2M20.19,23c-.58,0-.58,2.08,0,2.08h7.88c.57,0,.57-2.08,0-2.08H20.19m-.28-3.61c-.57.08-.29,2.14.28,2.07L28,20.36c.57-.08.29-2.14-.28-2.06l-7.81,1.05m0,9.3,7.81,1.05c.57.08.85-2,.28-2.06l-7.81-1.05c-.57-.07-.85,2-.28,2.06m-7-9.75c0-.58-2.08-.58-2.08,0V29.24c0,.58,2.08.58,2.08,0V18.9m3.45-.29c-.08-.57-2.14-.29-2.07.28l1.41,10.26c.07.57,2.13.29,2.06-.28l-1.4-10.26m-9,0L6,28.87c-.07.57,2,.85,2.06.28l1.4-10.26c.08-.57-2-.85-2.06-.28" fill="#f8f8f2"/></svg>