<svg xmlns="http://www.w3.org/2000/svg" viewBox="0 0 48 48"><path d="M19.79,6s5.36,4.69,4.63,8.84c-.32,1.85-2.78,4.9-1.46,7.8,1.44,3.13,2.18,9.15-4.26,7.59s-5.85-9.31-1.14-13.41S20.73,8.08,19.79,6m4.89,14.05c-.35,3.17,3.15,6.32.37,10.6-1.93,3,1,7.13,4.82,6.37,4.16-.83,5.19-3.46,5.08-6.51-.15-3.88-1.69-5-5.12-7.87-3.71-3.15-.84-9.1-.84-9.1s-3.91,3-4.31,6.51m-11.3,9.26c-.26-.33-.67,2.34.13,4.6C14.26,36,15.4,39.34,20,41c3.83,1.43,9.2,1.68,12.29-2.27.69-.89-.21-.55-1.16-.19a7.5,7.5,0,0,1-7-1.34c-2.63-2.21-1.61-4.67-2.92-4.69-4.35-.1-6.62-1.8-7.8-3.24" fill="#f8f8f2" style="isolation:isolate"/></svg>