<svg xmlns="http://www.w3.org/2000/svg" viewBox="0 0 48 48"><path d="M41.68,31.54a1.39,1.39,0,0,1-.18,1.89,1.49,1.49,0,0,1-2-.18L36.38,29.2l-3.06,4a1.4,1.4,0,0,1-2,.18,1.32,1.32,0,0,1-.27-1.89l3.59-4.67L31.08,22.1a1.41,1.41,0,1,1,2.24-1.7l3.06,4,3.15-3.86a1.37,1.37,0,1,1,2.15,1.7l-3.5,4.59ZM25.32,31a4.14,4.14,0,0,1-4.22-4.13,4.23,4.23,0,0,1,8.45,0A4.26,4.26,0,0,1,25.32,31Zm-12.4,0A4.14,4.14,0,0,1,8.7,26.87a4.23,4.23,0,0,1,8.45,0A4.15,4.15,0,0,1,12.92,31Zm12.4-11a7,7,0,0,0-6.11,3.59A7,7,0,0,0,13,20a7.41,7.41,0,0,0-4.22,1.34V15.63a1.38,1.38,0,0,0-1.35-1.35A1.4,1.4,0,0,0,6,15.63V27a6.89,6.89,0,0,0,6.92,6.74A7.07,7.07,0,0,0,19.12,30a7,7,0,0,0,6.11,3.69,7,7,0,0,0,7-6.92A6.77,6.77,0,0,0,25.32,20Z" fill="#f8f8f2"/></svg>