<svg xmlns="http://www.w3.org/2000/svg" viewBox="0 0 48 48"><path d="M12.48,25c-3.91.84-5.36-3.68-4.93-5.8,0,0,.46-4.57,3.63-4.86,2.52-.22,4.37,2.54,4.56,4.12.12,1,.65,5.7-3.26,6.54m7.27-7.85c2.16,0,3.9-2.49,3.9-5.56S21.91,6,19.75,6s-3.92,2.48-3.92,5.56,1.75,5.56,3.92,5.56m9.31.37c2.89.38,4.74-2.71,5.11-5a5.27,5.27,0,0,0-3.53-5.52c-2.05-.47-4.61,2.81-4.84,5-.28,2.62.37,5.23,3.26,5.6m11.45,3.93c0-1.12-.93-4.49-4.37-4.49s-3.91,3.18-3.91,5.43.18,5.13,4.46,5,3.82-4.86,3.82-6m-4.37,9.81A39.85,39.85,0,0,1,29.06,24c-3.54-5.51-8.57-3.26-10.25-.46a23.48,23.48,0,0,1-4.65,5c-.38.47-5.4,3.18-4.29,8.13s5,4.86,5,4.86a22.21,22.21,0,0,0,6.23-.46,13.1,13.1,0,0,1,6.24.18s7.83,2.62,10-2.43-1.2-7.66-1.2-7.66" fill="#f8f8f2" style="isolation:isolate"/></svg>