<svg xmlns="http://www.w3.org/2000/svg" viewBox="0 0 48 48"><path d="M36.16,11.34a10.52,10.52,0,0,1,1.11,8.13,12.81,12.81,0,0,1-.47,1.32,9.69,9.69,0,0,0-3.31-3.27,6.5,6.5,0,0,0-.86-4.06,6.33,6.33,0,0,0-4-3.07,6.62,6.62,0,0,0-7.8,3.78,8.87,8.87,0,0,0-4.46,1.07c.08-.43.17-.86.29-1.31a10.6,10.6,0,0,1,13-7.54,10.23,10.23,0,0,1,6.47,5Zm-.29,10.35a3.44,3.44,0,0,0-.29-.47,7.5,7.5,0,0,0-2.44-2.32,6.85,6.85,0,0,0-1.95-.8l-8.77-2.35a8,8,0,0,0-2-.28,7.35,7.35,0,0,0-3.84,1,2.37,2.37,0,0,0-.33.22A7.09,7.09,0,0,0,14.7,18,6.94,6.94,0,0,0,13,21.18L10.65,30a7.69,7.69,0,0,0,5.43,9.42l8.79,2.36a7.76,7.76,0,0,0,9.42-5.42l2.36-8.77a7.46,7.46,0,0,0-.53-5.38,3.42,3.42,0,0,0-.25-.47ZM28.19,31.92a1.88,1.88,0,0,0-1.17.31,1.45,1.45,0,0,0-.49.49,3.89,3.89,0,0,1-.37.35,1,1,0,0,1-.37.22,3.93,3.93,0,0,1-1.91.43,3.19,3.19,0,0,1-2.57-1,4.05,4.05,0,0,1-1-2.86H31.7a1.1,1.1,0,0,0,.05-.43v-.68a9.18,9.18,0,0,0-2.1-6.42,8.1,8.1,0,0,0-6.12-2.24,7.53,7.53,0,0,0-5.85,2.3,8.92,8.92,0,0,0-2,6.22A9,9,0,0,0,17.74,35a7.5,7.5,0,0,0,5.85,2.3,8.71,8.71,0,0,0,5.12-1.42,6.8,6.8,0,0,0,2.77-4H28.19m-7.9-4.85H27a4,4,0,0,0-.92-2.5,3.24,3.24,0,0,0-2.43-.87,3.27,3.27,0,0,0-2.36.87,3.53,3.53,0,0,0-1,2.5" fill="#f8f8f2" fill-rule="evenodd"/></svg>