<svg xmlns="http://www.w3.org/2000/svg" viewBox="0 0 48 48"><path d="M41.9,25.74A9.65,9.65,0,0,1,36,33.11a11.77,11.77,0,0,1-7.07.26c-3-.77-5.69-2.45-8.54-3.69a22.55,22.55,0,0,0-5.17-1.31h0a4.47,4.47,0,0,0,2-.34,1.41,1.41,0,0,0,.4-2.11,4.16,4.16,0,0,0-2.49-1.46,11.87,11.87,0,0,0-4.89-.24,7.46,7.46,0,0,0-3.34,1.24A2.7,2.7,0,0,0,6,26.53c1.51-4.17,4.5-3.7,6.36-4.84a1.06,1.06,0,0,0,.32-1.46,1.08,1.08,0,0,0-1.09-.47,3.52,3.52,0,0,0-1.43.72l-.42.32s1.49-2.53,6.38-2.53a25.06,25.06,0,0,1,4.57.49,23.54,23.54,0,0,0,4.32.75,1.87,1.87,0,0,0,2-1.72,1.91,1.91,0,0,0-2-1.74,6.52,6.52,0,0,0-1.91.31l.5-.33a12.82,12.82,0,0,1,7.38-1.8A12.85,12.85,0,0,1,38.67,17,9.74,9.74,0,0,1,41.9,25.74ZM37.37,24.5a3.92,3.92,0,0,0-3.91-3.92h0c-2,0-2.81,1.26-5,2.45-3.75,2-6,1.17-6,1.28s1.51.74,5.23,2.55a13.21,13.21,0,0,0,5.74,1.54A3.91,3.91,0,0,0,37.37,24.5Z" fill="#f8f8f2"/></svg>