<svg xmlns="http://www.w3.org/2000/svg" viewBox="0 0 48 48"><path d="M42,29.78a5.78,5.78,0,0,1-5.66,5.77H14.57a8.56,8.56,0,0,1-1.08-17,11.45,11.45,0,0,0-1.05,4.79c0,.1,0,.19,0,.28a11.56,11.56,0,0,1,23.11.05V23.3a11.35,11.35,0,0,0-1-4.77,5.65,5.65,0,0,1,.59,0,4.82,4.82,0,0,1,2.21,9.11,4.82,4.82,0,0,0,2.51-2.32A5.77,5.77,0,0,1,42,29.78ZM33.25,24A9.25,9.25,0,1,0,24,33.25,9.26,9.26,0,0,0,33.25,24Zm-1.14,0A8.11,8.11,0,1,1,24,15.9,8.11,8.11,0,0,1,32.11,24Zm-3.82-1.41a3.44,3.44,0,0,0-3.44-3.44H21a1.3,1.3,0,0,0-1.3,1.31v7.09a1.31,1.31,0,0,0,2.61,0V26h2.53A3.44,3.44,0,0,0,28.29,22.59Zm-2.41,0a1,1,0,0,1-1,1H22.31v-2h2.55A1,1,0,0,1,25.88,22.59Z" fill="#f8f8f2"/></svg>