<svg xmlns="http://www.w3.org/2000/svg" viewBox="0 0 48 48"><path d="M44.17,15.63c-1.5-2.26-5.58-3-10.83-2.19a47.63,47.63,0,0,0-12.79,4A47.78,47.78,0,0,0,9.23,24.68c-4,3.52-6.05,7.1-5.28,9.7a3.5,3.5,0,0,1-.29-.54c-1.14-2.43,0-5.63,2.66-8.87a36.22,36.22,0,0,0,4.45-6.67,15.22,15.22,0,0,1,16.69-7.79,44.61,44.61,0,0,0,8,.88c4.22,0,7.38,1.23,8.51,3.67A3.54,3.54,0,0,1,44.17,15.63Zm-14.9-3.08c-.8-.12-1.55-.26-2.18-.4a13.52,13.52,0,0,0-14.82,6.91q-.5,1-1,1.89a55.18,55.18,0,0,1,18-8.4ZM28,33.52c-11.12,5.19-21.82,5.8-23.89,1.37S9.42,22.65,20.55,17.47s21.82-5.8,23.89-1.37S39.16,28.33,28,33.52ZM27,31.21c5.27-2.46,8.85-5.94,8-7.77s-5.82-1.33-11.09,1.13-8.85,5.93-8,7.77S21.69,33.66,27,31.21Z" fill="#f8f8f2"/></svg>