<svg xmlns="http://www.w3.org/2000/svg" viewBox="0 0 48 48"><path d="M34.1,19.35a3.91,3.91,0,0,0-.58.1,5.41,5.41,0,0,0-.79.21,6.63,6.63,0,0,0-.88.33l-4.19,1.76-7.55-4.51a7.14,7.14,0,0,0-1.22-.65l-.31-.14A8.81,8.81,0,0,0,17.3,16a2.3,2.3,0,0,0-.35-.1A10.7,10.7,0,0,1,34.1,19.35Zm-15.45.34h0a8.06,8.06,0,0,0-4.32-1.23h0A8.3,8.3,0,0,0,6,26.84a8.4,8.4,0,0,0,.89,3.65l17.49-7.36Zm19.94,3.18A6.45,6.45,0,0,0,36,22.11h-.44a6.17,6.17,0,0,0-2.55.53l-2.27.94,5.62,3.37.49.29,5,3A6.49,6.49,0,0,0,38.59,22.87ZM34.85,29.4,27.43,25,8.68,32.84A8.29,8.29,0,0,0,14.27,35H35.53a6.53,6.53,0,0,0,4.93-2.26Z" fill="#f8f8f2"/></svg>