<svg xmlns="http://www.w3.org/2000/svg" viewBox="0 0 48 48"><path d="M37.21,28.48l-1.8-3a6.6,6.6,0,0,1-.72-2.66V18.28a10.65,10.65,0,0,0-6.07-9.6,5.34,5.34,0,0,0-9.3.06,10.66,10.66,0,0,0-5.94,9.54v4.55a6.67,6.67,0,0,1-.72,2.65l-1.82,3a4.22,4.22,0,0,0,2.36,6.36A33.84,33.84,0,0,0,24,36.6a34.17,34.17,0,0,0,10.84-1.75,4.34,4.34,0,0,0,2.34-6.37Z" fill="#f8f8f2"/><path d="M29.09,38.42A5.42,5.42,0,0,1,24,42a5.36,5.36,0,0,1-3.82-1.6,4.9,4.9,0,0,1-1.26-2c.23,0,.47.05.72.09.41,0,.85.11,1.28.14,1,.09,2.07.15,3.11.15s2-.06,3.06-.15c.38,0,.76-.05,1.12-.1Z" fill="#f8f8f2"/></svg>