<svg xmlns="http://www.w3.org/2000/svg" viewBox="0 0 48 48"><path d="M28.23,6H19.77a3.39,3.39,0,0,0-3.4,3.38v1.7a3.38,3.38,0,0,0,3.38,3.38h8.48a3.38,3.38,0,0,0,3.39-3.38V9.38A3.38,3.38,0,0,0,28.23,6Z" fill="#f8f8f2"/><path d="M33.43,11.08a5.22,5.22,0,0,1-5.2,5.2H19.77a5.22,5.22,0,0,1-5.2-5.2,1.34,1.34,0,0,0-2-1.17A8,8,0,0,0,8.32,17V34a8.07,8.07,0,0,0,8.05,8H31.63a8.07,8.07,0,0,0,8.05-8V17a8,8,0,0,0-4.27-7.11A1.34,1.34,0,0,0,33.43,11.08ZM30,25.31l-7.2,7.2a1.33,1.33,0,0,1-.95.4,1.36,1.36,0,0,1-1-.4l-2.7-2.7a1.35,1.35,0,0,1,1.91-1.9l1.75,1.74,6.24-6.24A1.35,1.35,0,0,1,30,25.31Z" fill="#f8f8f2"/></svg>