<svg xmlns="http://www.w3.org/2000/svg" viewBox="0 0 48 48"><path d="M35.87,25a1.27,1.27,0,0,1-.77-.27,17.73,17.73,0,0,0-22.21,0,1.25,1.25,0,1,1-1.54-2,20.14,20.14,0,0,1,25.27,0,1.23,1.23,0,0,1,.22,1.76A1.15,1.15,0,0,1,35.87,25Z" fill="#f8f8f2"/><path d="M40.74,19.17A1.21,1.21,0,0,1,40,18.9,25.48,25.48,0,0,0,8,18.9a1.27,1.27,0,0,1-1.76-.21,1.25,1.25,0,0,1,.22-1.76,28,28,0,0,1,35,0,1.25,1.25,0,0,1,.22,1.76A1.26,1.26,0,0,1,40.74,19.17Z" fill="#f8f8f2"/><path d="M32.72,31.11a1.21,1.21,0,0,1-.77-.27,12.69,12.69,0,0,0-15.9,0,1.25,1.25,0,1,1-1.54-2,15.13,15.13,0,0,1,19,0,1.23,1.23,0,0,1,.22,1.76A1.21,1.21,0,0,1,32.72,31.11Z" fill="#f8f8f2"/><path d="M28.35,37.24a1.27,1.27,0,0,1-.77-.27,5.72,5.72,0,0,0-7.18,0,1.25,1.25,0,1,1-1.54-2A8.16,8.16,0,0,1,29.1,35a1.23,1.23,0,0,1,.22,1.76A1.21,1.21,0,0,1,28.35,37.24Z" fill="#f8f8f2"/></svg>