<svg xmlns="http://www.w3.org/2000/svg" viewBox="0 0 48 48"><path d="M42,35s0-.07,0-.11a1.93,1.93,0,0,0-.09-.43,1.71,1.71,0,0,0-.28-.42,0,0,0,0,0,0,0,1.3,1.3,0,0,0-.44-.29,1.23,1.23,0,0,0-.53-.11l-8.63,0h0a3.57,3.57,0,0,1-2.85-1.4l-2.25-2.9a1.38,1.38,0,1,0-2.18,1.7L27,34a6.42,6.42,0,0,0,5,2.47h0l5.26,0L36,37.74a1.41,1.41,0,0,0,0,2,1.38,1.38,0,0,0,2,0L41.61,36a1.63,1.63,0,0,0,.3-.44A2.18,2.18,0,0,0,42,35Z" fill="#f8f8f2"/><path d="M17.39,14.19a6.37,6.37,0,0,0-5.17-2.64h0l-4.8,0a1.39,1.39,0,0,0,0,2.77l4.82,0h0a3.58,3.58,0,0,1,2.92,1.49l2,2.77a1.43,1.43,0,0,0,1.13.58,1.52,1.52,0,0,0,.81-.26A1.38,1.38,0,0,0,19.38,17Z" fill="#f8f8f2"/><path d="M42,13.06A.41.41,0,0,1,42,13a1.41,1.41,0,0,0-.11-.54,1.49,1.49,0,0,0-.3-.44L37.9,8.29a1.39,1.39,0,0,0-2,2l1.31,1.31-5,0h0a6.34,6.34,0,0,0-5.3,2.85L15.08,32.07a3.6,3.6,0,0,1-3,1.61h0l-4.69,0a1.39,1.39,0,0,0,0,2.77l4.71,0h0a6.31,6.31,0,0,0,5.3-2.84L29.22,15.9a3.61,3.61,0,0,1,3-1.61h0l8.38,0a1.49,1.49,0,0,0,.54-.11,1.46,1.46,0,0,0,.44-.29,0,0,0,0,1,0,0,1.39,1.39,0,0,0,.28-.43A1.84,1.84,0,0,0,42,13.06Z" fill="#f8f8f2"/></svg>