<svg xmlns="http://www.w3.org/2000/svg" viewBox="0 0 48 48"><path d="M33.08,11.29H12.93l3.15-3.15A1.26,1.26,0,1,0,14.3,6.36L9,11.66a1.23,1.23,0,0,0-.27.4,1.23,1.23,0,0,0,0,1,1.34,1.34,0,0,0,.27.4l5.29,5.29a1.26,1.26,0,0,0,1.78,0,1.27,1.27,0,0,0,0-1.77L12.93,13.8H33.08a3.78,3.78,0,0,1,3.77,3.77v5.56a1.26,1.26,0,0,0,2.51,0V17.57A6.28,6.28,0,0,0,33.08,11.29Z" fill="#f8f8f2"/><path d="M39.36,35.45a1.29,1.29,0,0,0-.1-.48,1.39,1.39,0,0,0-.27-.41L33.7,29.27a1.26,1.26,0,0,0-1.78,1.78l3.15,3.15H14.92a3.79,3.79,0,0,1-3.77-3.77V24.87a1.26,1.26,0,1,0-2.51,0v5.56a6.29,6.29,0,0,0,6.28,6.28H35.07l-3.15,3.15a1.27,1.27,0,0,0,0,1.77,1.26,1.26,0,0,0,1.78,0L39,36.34a1.26,1.26,0,0,0,.37-.89Z" fill="#f8f8f2"/></svg>