<svg xmlns="http://www.w3.org/2000/svg" viewBox="0 0 48 48"><path d="M45.83,29.34c-3.24-3.56-11-2.58-14.39-2.14l-.54.06a49.12,49.12,0,0,1-5.63-7.47l-.16-.27a37.26,37.26,0,0,0,1.95-11C27.06,4.89,25.61,1,21.54,1a4.16,4.16,0,0,0-3.66,2.16c-1.63,2.87-1.1,8.28,1.35,14.18a.7.7,0,0,1,0,.43,95.38,95.38,0,0,1-5.84,14.29.55.55,0,0,1-.31.27c-3.11,1.25-11.29,4.94-12,9.53a4.06,4.06,0,0,0,1.29,3.8A4.75,4.75,0,0,0,5.94,47c3.92,0,8.31-4.24,13-12.61a.61.61,0,0,1,.32-.27,69.05,69.05,0,0,1,10-2.73.67.67,0,0,1,.54.16c4.85,4.37,9.31,5,11.57,5,3.46,0,4.78-1.61,5.22-2.87A4,4,0,0,0,45.83,29.34ZM5,44.1a1.26,1.26,0,0,1-.89-.24,1.56,1.56,0,0,1-.22-1.39c.19-1.59,2.88-3.71,6.9-5.72a.64.64,0,0,1,.82.93C8.94,41.65,6.54,44.1,5,44.1ZM20.6,4.4a1.23,1.23,0,0,1,1.12-.7c1.12,0,1.34,1.39,1.34,2.55a40.49,40.49,0,0,1-1,6.26.64.64,0,0,1-1.24,0C19.77,8.5,20,5.6,20.6,4.4ZM21,29.13c.68-1.53,1.37-3.41,1.83-4.77A.63.63,0,0,1,24,24.24a41.25,41.25,0,0,0,2.65,3.52.62.62,0,0,1-.36,1c-1.06.23-2.79.67-4.47,1.22A.63.63,0,0,1,21,29.13Zm21.23,3c-.22.93-1.34,1.85-3.35,1.39A16.48,16.48,0,0,1,33.61,31a.64.64,0,0,1,.3-1.15,25.15,25.15,0,0,1,6.55,0A2.07,2.07,0,0,1,42.25,32.09Z" fill="#ffb86c"/></svg>