<svg xmlns="http://www.w3.org/2000/svg" viewBox="0 0 48 48"><path d="M30.84,6.38a1.18,1.18,0,0,0-2,.79v6.28a4.91,4.91,0,0,0,5,4.81c1.71,0,4.09,0,6.12,0a1.14,1.14,0,0,0,.85-1.93C38.15,13.74,33.5,9,30.84,6.38Z" fill="#f8f8f2"/><path d="M39.3,20.74H34.1A7.75,7.75,0,0,1,26.36,13V7.8A1.81,1.81,0,0,0,24.56,6H16.93c-5.55,0-10,3.6-10,10V32c0,6.43,4.48,10,10,10H31.07c5.55,0,10-3.6,10-10V22.54A1.81,1.81,0,0,0,39.3,20.74ZM23.1,34.35H15.9a1.35,1.35,0,1,1,0-2.7h7.2a1.35,1.35,0,0,1,0,2.7Zm3.6-7.2H15.9a1.35,1.35,0,0,1,0-2.7H26.7a1.35,1.35,0,1,1,0,2.7Z" fill="#f8f8f2"/></svg>