<svg xmlns="http://www.w3.org/2000/svg" viewBox="0 0 48 48"><path d="M28.91,6H19.09v7.85h9.82Z" fill="#f8f8f2"/><path d="M31.61,6v7.85H41.77C40.85,8.9,37.19,6,31.61,6Z" fill="#f8f8f2"/><path d="M6,16.55v15C6,38.09,9.91,42,16.46,42H31.54C38.09,42,42,38.09,42,31.54v-15Zm22.39,15-3.74,2.16a4.7,4.7,0,0,1-2.29.69A3,3,0,0,1,20.89,34a3.68,3.68,0,0,1-1.62-3.4V26.27a3.67,3.67,0,0,1,1.62-3.4,3.63,3.63,0,0,1,3.76.3l3.74,2.16a3.68,3.68,0,0,1,2.14,3.12A3.69,3.69,0,0,1,28.39,31.52Z" fill="#f8f8f2"/><path d="M16.38,6C10.8,6,7.15,8.9,6.23,13.85H16.38Z" fill="#f8f8f2"/></svg>