<svg xmlns="http://www.w3.org/2000/svg" viewBox="0 0 48 48"><path d="M24,36.3a3.75,3.75,0,1,0-3.75-3.74A3.74,3.74,0,0,0,24,36.3Z" fill="#ffb86c"/><path d="M38.44,18.32V15.44C38.44,9.23,37,1,24,1S9.56,9.23,9.56,15.44v2.88C3.12,19.12,1,22.39,1,30.42v4.27C1,44.12,3.88,47,13.3,47H34.69C44.12,47,47,44.12,47,34.69V30.42C47,22.39,44.88,19.12,38.44,18.32ZM24,39.5a6.95,6.95,0,1,1,7-6.94A7,7,0,0,1,24,39.5ZM13.3,18.11h-.52V15.44C12.78,8.7,14.68,4.22,24,4.22S35.22,8.7,35.22,15.44v2.69H13.3Z" fill="#ffb86c"/></svg>