<svg xmlns="http://www.w3.org/2000/svg" viewBox="0 0 48 48"><circle cx="24" cy="24" r="24" fill="#393a59"/><path d="M44.06,20.11A20.11,20.11,0,0,1,14.29,37.75c-.47-.25-.92-.52-1.36-.81A20.69,20.69,0,0,1,10,34.64a20.11,20.11,0,1,1,34-14.53Z" fill="#6a6577"/><path d="M17.45,21.9A3.25,3.25,0,0,0,15,24.06a3.34,3.34,0,0,0-.16,1.28,2.34,2.34,0,0,0,.07.45h-.28a3.92,3.92,0,0,0-2.89,1.16,3.37,3.37,0,0,0-.65.85,3.82,3.82,0,0,0-.31.68A4,4,0,0,0,11,31.6l0,0a3.95,3.95,0,0,0-6.88-.57L4,31.19a3.16,3.16,0,0,0-1.44-1,3.28,3.28,0,0,0-1.78-.09c-.12-.44-.22-.89-.31-1.34l1.9-3.54L3.1,26a2.92,2.92,0,0,0,3.38.57l-1-1.89.58.13A2.12,2.12,0,0,0,8.5,23.6l.24-.54L9.68,25a2.94,2.94,0,0,0,1.57-2.08,2.8,2.8,0,0,0,0-1l-.15-1,.45.07Z" fill="#393a59"/><path d="M44.33,30a.28.28,0,0,1-.52.06,3.23,3.23,0,0,0-1.71-1.62,3,3,0,0,0-1.27-.25,3.4,3.4,0,0,0-.45,0l0-.15s0-.08,0-.12a4,4,0,0,0-1-3,4.21,4.21,0,0,0-.81-.7A3.48,3.48,0,0,0,38,24a3.92,3.92,0,0,0-3.15.05l0,0a4,4,0,0,0,1-6.83L35.74,17a3.13,3.13,0,0,0,1.06-1.36,3.21,3.21,0,0,0,.05-2.36.28.28,0,0,1,.42-.33l4.18,2.63a.28.28,0,0,1,0,.45l-.49.42a2.93,2.93,0,0,0-.9,3,.29.29,0,0,0,.38.18l1.13-.47a.28.28,0,0,1,.38.34h0A2.11,2.11,0,0,0,43,22h0a.28.28,0,0,1,0,.5L41.84,23a.29.29,0,0,0-.13.4,2.91,2.91,0,0,0,1.82,1.42,3.07,3.07,0,0,0,1,.09l.64-.05a.27.27,0,0,1,.29.34v.07Z" fill="#393a59"/><path d="M19.8,3.05a.28.28,0,0,1,0,.53,3.22,3.22,0,0,0-1.93,1.36,3,3,0,0,0-.48,1.2,3.11,3.11,0,0,0-.06.44l-.14,0-.12,0a4,4,0,0,0-3.09.37,3.88,3.88,0,0,0-.85.66,3.84,3.84,0,0,0-.47.58,3.92,3.92,0,0,0-.55,3.1H12a3.95,3.95,0,0,0-6.5-2.32L5.41,9A3.25,3.25,0,0,0,2,7.18a.28.28,0,0,1-.24-.47L5.11,3.12a.28.28,0,0,1,.45,0l.32.56a2.89,2.89,0,0,0,2.8,1.46.27.27,0,0,0,.25-.33l-.24-1.2a.28.28,0,0,1,.41-.31h0a2.08,2.08,0,0,0,2.6-.53h0a.29.29,0,0,1,.5.13l.24,1.2a.28.28,0,0,0,.36.21,2.9,2.9,0,0,0,1.75-1.52,3,3,0,0,0,.27-.92l.07-.64a.28.28,0,0,1,.39-.23l.07,0Z" fill="#393a59"/><path d="M40.59,41.34a24,24,0,0,1-28.12,3.71,23.71,23.71,0,0,1-5.06-3.71,10.78,10.78,0,0,1,9.67-6.84H30.92A10.78,10.78,0,0,1,40.59,41.34Z" fill="#282942"/><path d="M24,42.06S40.62,30,40,28.91a9,9,0,0,0-3.52-3.48,12.61,12.61,0,0,0-4.35-1.52L18.92,35.14Z" fill="#d863bb"/><path d="M24,42.06S40.62,30,40,28.91a9,9,0,0,0-3.52-3.48c1.34,1.48,2.62,3.73.64,5.7a2.76,2.76,0,0,1-1,.67,9.73,9.73,0,0,0-3.53,2.09Z" fill="#282942"/><path d="M24,42.06S7.38,30,8,28.91a9,9,0,0,1,3.52-3.48,12.61,12.61,0,0,1,4.35-1.52Z" fill="#d863bb"/><path d="M37.75,14l-4.58,2.7v5.5a2.3,2.3,0,0,0,2.29,2.29h0a2.3,2.3,0,0,0,2.29-2.29V14Z" fill="#ccc"/><path d="M10.25,14l4.58,2.7v5.5a2.3,2.3,0,0,1-2.29,2.29h0a2.29,2.29,0,0,1-2.29-2.29V14Z" fill="#ccc"/><path d="M29.08,28.89v5.46A5.08,5.08,0,0,1,24,39.44h0a5.08,5.08,0,0,1-5.08-5.09V28.89Z" fill="#ccc"/><path d="M35.32,13.6v9.6a11.32,11.32,0,0,1-22.64,0V13.6a10.78,10.78,0,0,1,.1-1.52,11.32,11.32,0,0,1,1.5-4.29c2-3.3,17.46-3.3,19.44,0a11.32,11.32,0,0,1,1.5,4.29A12.52,12.52,0,0,1,35.32,13.6Z" fill="#ededed"/><path d="M16,23.2V13.6A11.31,11.31,0,0,1,25.64,2.4,11.11,11.11,0,0,0,24,2.28,11.32,11.32,0,0,0,12.68,13.6v9.6A11.32,11.32,0,0,0,24,34.52a12.66,12.66,0,0,0,1.64-.12A11.32,11.32,0,0,1,16,23.2Z" fill="#ccc"/><path d="M29.63,21V18.8a1,1,0,0,0-1-1h0a1,1,0,0,0-1,1V21a1,1,0,0,0,1,1h0A1,1,0,0,0,29.63,21Z" fill="#393a59"/><path d="M18.36,18.8V21a1,1,0,0,0,1,1h0a1,1,0,0,0,1-1V18.8a1,1,0,0,0-1-1h0A1,1,0,0,0,18.36,18.8Z" fill="#393a59"/><circle cx="28.96" cy="19.18" r="0.67" fill="#7f7d89"/><circle cx="19.74" cy="19.18" r="0.67" fill="#7f7d89"/><circle cx="28.22" cy="20.77" r="0.38" fill="#7f7d89"/><circle cx="19" cy="20.77" r="0.38" fill="#7f7d89"/><path d="M15.18,12.08c0,.11,0,.23,0,.35a4.33,4.33,0,0,1-1.45,3.66,5.36,5.36,0,0,1-1.07.74V13.6a11.26,11.26,0,0,1,1.6-5.81,5.85,5.85,0,0,1,1.31,2.44A4.4,4.4,0,0,0,15.18,12.08Z" fill="#282942"/><path d="M35.32,13.6v3.23a5.74,5.74,0,0,1-1.08-.74,4.35,4.35,0,0,1-1.44-3.66c0-.12,0-.24,0-.35a4.4,4.4,0,0,0-.41-1.85,5.85,5.85,0,0,1,1.31-2.44A11.35,11.35,0,0,1,35.32,13.6Z" fill="#282942"/><rect x="18.03" y="15.57" width="2.55" height="4.44" transform="translate(-4.25 29.38) rotate(-68.86)" fill="#ededed"/><rect x="26.48" y="16.52" width="4.44" height="2.55" transform="translate(-4.48 11.55) rotate(-21.14)" fill="#ededed"/><path d="M29.35,24.16a5.36,5.36,0,0,1-10.71,0,12.63,12.63,0,0,0,1.53.63,11.77,11.77,0,0,0,1.65.43,12,12,0,0,0,4.36,0,12.15,12.15,0,0,0,3.17-1.06Z" fill="#393a59"/><path d="M27,28.56a5.34,5.34,0,0,1-6.08,0,5.39,5.39,0,0,1,6.08,0Z" fill="#e87bc2"/><path d="M30.31,15.93H17.69l3.54,2.65h.39a1.24,1.24,0,0,1,1.23,1.24v1.91A1.17,1.17,0,0,0,24,22.92a1.15,1.15,0,0,0,1.16-1.15V19.82a1.25,1.25,0,0,1,1.24-1.24h.39Z" fill="#ccc"/><path d="M27.83,24.79A8.29,8.29,0,0,1,27.56,26,8.4,8.4,0,0,1,27,27.46L26.48,26l-.3-.81A11.77,11.77,0,0,0,27.83,24.79Z" fill="#f0f0f0"/><path d="M21.82,25.22l-.3.81L21,27.46A9,9,0,0,1,20.44,26a8.29,8.29,0,0,1-.27-1.25A11.77,11.77,0,0,0,21.82,25.22Z" fill="#f0f0f0"/><path d="M15.9,16.66l1-1.5a.58.58,0,0,1,.8-.18l4,2.55a.58.58,0,0,1-.43,1l-4.93-1A.58.58,0,0,1,15.9,16.66Z" fill="#393a59"/><path d="M32.1,16.66l-1-1.5a.58.58,0,0,0-.8-.18l-4,2.55a.58.58,0,0,0,.44,1l4.93-1A.58.58,0,0,0,32.1,16.66Z" fill="#393a59"/><path d="M25.24,31.47H22.76A.46.46,0,0,1,22.3,31h0a.46.46,0,0,1,.46-.45h2.48a.46.46,0,0,1,.46.45h0A.46.46,0,0,1,25.24,31.47Z" fill="#ccc"/><path d="M33.72,7.79a11.32,11.32,0,0,0-20.94,4.29h2.4a4.41,4.41,0,0,1,4.41-4.41h.18a3.87,3.87,0,0,1,3.67,3.9v.6a.56.56,0,0,0,.56.56h0a.55.55,0,0,0,.55-.56v-.6a3.88,3.88,0,0,1,3.68-3.9h.18a4.41,4.41,0,0,1,4.41,4.41h2.4A11.32,11.32,0,0,0,33.72,7.79Z" fill="#282942"/><path d="M24,42.06S7.38,30,8,28.91a9,9,0,0,1,3.52-3.48c-1.34,1.48-2.62,3.73-.65,5.7a2.8,2.8,0,0,0,1.05.67,9.61,9.61,0,0,1,3.52,2.09Z" fill="#282942"/><path d="M28,41.35l-3.71,1.38a.83.83,0,0,1-.54,0L20,41.35a.78.78,0,0,0-1.05.73v2.29A.78.78,0,0,0,20,45.1l3.71-1.37a.72.72,0,0,1,.54,0L28,45.1A.78.78,0,0,0,29,44.37V42.08A.78.78,0,0,0,28,41.35Z" fill="#e87bc2"/><path d="M27.56,26A8.4,8.4,0,0,1,27,27.46L26.48,26a1.5,1.5,0,0,1,.52-.09A1.47,1.47,0,0,1,27.56,26Z" fill="#e87bc2"/><path d="M21.52,26,21,27.46A9,9,0,0,1,20.44,26a1.45,1.45,0,0,1,.55-.1A1.51,1.51,0,0,1,21.52,26Z" fill="#e87bc2"/></svg>