<svg xmlns="http://www.w3.org/2000/svg" viewBox="0 0 48 48"><path d="M41.4,23.16C41.4,33.57,33.45,42,23.63,42c-8,0-14.78-5.63-17-13.35a.84.84,0,0,1,.7-1,12.62,12.62,0,0,0,6.15-2.34,10,10,0,0,0,3.38-4.19c1-2.51,0-3.54.86-6.7a11.5,11.5,0,0,1,2.53-5C23.39,5.93,28.13,6,28.71,6h0a9.65,9.65,0,0,1,5.59,2.14c.21.17.42.34.62.53l3.24-.88a1.92,1.92,0,0,1,2.24,2.66L39,13.64A19.58,19.58,0,0,1,41.4,23.16ZM27.88,26.5a4.86,4.86,0,0,0-4.84-1c-2.67.91-2.89,3.88-5.58,5.28-.17.09-.55.28-.61.61-.16.83,1.75,1.93,3.06,2.43.61.23,4.63,1.76,7.36-.59a5,5,0,0,0,1.84-3.68A4.52,4.52,0,0,0,27.88,26.5ZM31.5,10.84a1.5,1.5,0,1,0,1.5,1.5A1.5,1.5,0,0,0,31.5,10.84Z" fill="#f8f8f2"/></svg>