<svg xmlns="http://www.w3.org/2000/svg" viewBox="0 0 48 48"><path d="M24,6A18,18,0,0,0,8.13,32.49v5.06a2.06,2.06,0,0,0,2.06,2.06H15A18,18,0,1,0,24,6ZM17.71,30.2l-.27-.26a22.66,22.66,0,0,1-2.27-2.66,15.26,15.26,0,0,1-1.6-2.77A7,7,0,0,1,13,21.85a4.1,4.1,0,0,1,.29-1.57,3.67,3.67,0,0,1,.94-1.36,2.37,2.37,0,0,1,1.69-.76,1.62,1.62,0,0,1,.65.14,1.42,1.42,0,0,1,.55.46L19,21.42a2.78,2.78,0,0,1,.32.57,1.35,1.35,0,0,1,.12.49,1.12,1.12,0,0,1-.17.58,2.84,2.84,0,0,1-.46.58l-.62.64a.44.44,0,0,0-.13.33,1.1,1.1,0,0,0,0,.18l.07.16A6.5,6.5,0,0,0,18.92,26c.36.42.75.85,1.17,1.28l.26.25a.8.8,0,0,1,0,1.15l-1.51,1.51A.82.82,0,0,1,17.71,30.2Zm11.4,1.92a1.67,1.67,0,0,1-.08.2,3,3,0,0,1-.56.83,3.67,3.67,0,0,1-1.32,1h0a4.21,4.21,0,0,1-1.56.3,6.6,6.6,0,0,1-2.65-.6,14.07,14.07,0,0,1-2.8-1.61q-.48-.34-.93-.72l2.65-2.66c.24.17.44.3.61.4l.14.06a.56.56,0,0,0,.54-.1l.62-.62a2.4,2.4,0,0,1,.58-.45A1.05,1.05,0,0,1,24.9,28a1.43,1.43,0,0,1,.5.1,3.78,3.78,0,0,1,.57.32l2.69,1.91a1.1,1.1,0,0,1,.44.52,1.55,1.55,0,0,1,.13.63A2,2,0,0,1,29.11,32.12ZM23.64,20.31h0a1,1,0,0,1,1.28-.14,7.47,7.47,0,0,1,2.28,2.3,1,1,0,0,1-.14,1.28,1,1,0,0,1-1.55-.16,5.51,5.51,0,0,0-1.71-1.72A1,1,0,0,1,23.64,20.31Zm7.73,5.24a1.06,1.06,0,0,1-.68.38h-.15a.94.94,0,0,1-.68-.3,1,1,0,0,1-.29-.59,8.2,8.2,0,0,0-7.24-7.24,1,1,0,1,1,.25-2,10.13,10.13,0,0,1,9,9A1.07,1.07,0,0,1,31.37,25.55ZM35,25.22a1,1,0,0,1-.68.38l-.13,0a1.06,1.06,0,0,1-.71-.3,1,1,0,0,1-.29-.59A11.92,11.92,0,0,0,22.66,14.16a1,1,0,0,1-.5-1.79,1,1,0,0,1,.76-.21A13.91,13.91,0,0,1,35.23,24.48,1,1,0,0,1,35,25.22Z" fill="#f8f8f2"/></svg>