<svg xmlns="http://www.w3.org/2000/svg" viewBox="0 0 48 48"><path d="M24,6A18,18,0,0,0,8.13,32.49v5.06a2.06,2.06,0,0,0,2.06,2.06H15A18,18,0,1,0,24,6ZM20.59,27.91l-.27-.26A22.66,22.66,0,0,1,18.05,25a15.19,15.19,0,0,1-1.59-2.77,7,7,0,0,1-.58-2.66A4.29,4.29,0,0,1,16.17,18a3.79,3.79,0,0,1,.94-1.36,2.39,2.39,0,0,1,1.69-.76,1.49,1.49,0,0,1,.66.15,1.37,1.37,0,0,1,.55.45l1.88,2.66a2.86,2.86,0,0,1,.33.57,1.32,1.32,0,0,1,.11.49,1.12,1.12,0,0,1-.17.58,3.15,3.15,0,0,1-.45.58l-.63.64a.44.44,0,0,0-.13.33.57.57,0,0,0,0,.18c0,.07.05.12.06.17a7.82,7.82,0,0,0,.76,1c.37.42.76.85,1.18,1.28l.26.25a.8.8,0,0,1,0,1.15l-1.5,1.51A.84.84,0,0,1,20.59,27.91ZM32,29.83l-.08.2a3.19,3.19,0,0,1-.56.83,3.79,3.79,0,0,1-1.33,1h0a4.09,4.09,0,0,1-1.56.3,6.61,6.61,0,0,1-2.66-.6A13.6,13.6,0,0,1,23,29.92c-.31-.23-.63-.47-.93-.72l2.66-2.66a6.89,6.89,0,0,0,.6.4l.15.06a.44.44,0,0,0,.2,0A.43.43,0,0,0,26,26.9l.63-.62a2.47,2.47,0,0,1,.58-.45,1.08,1.08,0,0,1,.57-.17,1.35,1.35,0,0,1,.5.1,3.35,3.35,0,0,1,.57.32L31.54,28a1.18,1.18,0,0,1,.45.52,1.74,1.74,0,0,1,.13.64A2,2,0,0,1,32,29.83Z" fill="#f8f8f2"/></svg>