<svg xmlns="http://www.w3.org/2000/svg" viewBox="0 0 24 24"><g id="Buttons"><path d="M0,0H24V24H0Z" fill="none"/><path d="M8,9A1,1,0,0,1,9,8h6a1,1,0,0,1,1,1v6a1,1,0,0,1-1,1H9a1,1,0,0,1-1-1Z" fill="none" stroke="#f8f8f2" stroke-linecap="round" stroke-linejoin="round" stroke-width="2"/><path d="M12,20h0" fill="none" stroke="#f8f8f2" stroke-linecap="round" stroke-linejoin="round" stroke-width="2"/><path d="M16,20h0" fill="none" stroke="#f8f8f2" stroke-linecap="round" stroke-linejoin="round" stroke-width="2"/><path d="M8,20H8" fill="none" stroke="#f8f8f2" stroke-linecap="round" stroke-linejoin="round" stroke-width="2"/><path d="M4,20H4" fill="none" stroke="#f8f8f2" stroke-linecap="round" stroke-linejoin="round" stroke-width="2"/><path d="M4,16H4" fill="none" stroke="#f8f8f2" stroke-linecap="round" stroke-linejoin="round" stroke-width="2"/><path d="M4,12H4" fill="none" stroke="#f8f8f2" stroke-linecap="round" stroke-linejoin="round" stroke-width="2"/><path d="M4,8H4" fill="none" stroke="#f8f8f2" stroke-linecap="round" stroke-linejoin="round" stroke-width="2"/><path d="M4,4H4" fill="none" stroke="#f8f8f2" stroke-linecap="round" stroke-linejoin="round" stroke-width="2"/><path d="M8,4H8" fill="none" stroke="#f8f8f2" stroke-linecap="round" stroke-linejoin="round" stroke-width="2"/><path d="M12,4h0" fill="none" stroke="#f8f8f2" stroke-linecap="round" stroke-linejoin="round" stroke-width="2"/><path d="M16,4h0" fill="none" stroke="#f8f8f2" stroke-linecap="round" stroke-linejoin="round" stroke-width="2"/><path d="M20,4h0" fill="none" stroke="#f8f8f2" stroke-linecap="round" stroke-linejoin="round" stroke-width="2"/><path d="M20,8h0" fill="none" stroke="#f8f8f2" stroke-linecap="round" stroke-linejoin="round" stroke-width="2"/><path d="M20,12h0" fill="none" stroke="#f8f8f2" stroke-linecap="round" stroke-linejoin="round" stroke-width="2"/><path d="M20,16h0" fill="none" stroke="#f8f8f2" stroke-linecap="round" stroke-linejoin="round" stroke-width="2"/><path d="M20,20h0" fill="none" stroke="#f8f8f2" stroke-linecap="round" stroke-linejoin="round" stroke-width="2"/></g></svg>