<svg xmlns="http://www.w3.org/2000/svg" viewBox="0 0 24 24"><g id="Buttons"><path d="M0,0H24V24H0Z" fill="none"/><path d="M4,15a1,1,0,0,0,1,1H7a1,1,0,0,0,1-1V9A1,1,0,0,0,7,8H5A1,1,0,0,0,4,9v2a1,1,0,0,0,1,1H8" fill="none" stroke="#f8f8f2" stroke-linecap="round" stroke-linejoin="round" stroke-width="2"/><path d="M16,10v4a2,2,0,0,0,4,0V10a2,2,0,0,0-4,0Z" fill="none" stroke="#f8f8f2" stroke-linecap="round" stroke-linejoin="round" stroke-width="2"/><path d="M11,12h2" fill="none" stroke="#f8f8f2" stroke-linecap="round" stroke-linejoin="round" stroke-width="2"/></g></svg>