<svg xmlns="http://www.w3.org/2000/svg" viewBox="0 0 24 24"><g id="Buttons"><path d="M0,0H24V24H0Z" fill="none"/><path d="M12,3A3,3,0,0,0,9,6V18a3,3,0,0,0,3,3" fill="none" stroke="#f8f8f2" stroke-linecap="round" stroke-linejoin="round" stroke-width="2"/><path d="M6,3A3,3,0,0,1,9,6V18a3,3,0,0,1-3,3" fill="none" stroke="#f8f8f2" stroke-linecap="round" stroke-linejoin="round" stroke-width="2"/><path d="M13,7h7a1,1,0,0,1,1,1v8a1,1,0,0,1-1,1H13" fill="none" stroke="#f8f8f2" stroke-linecap="round" stroke-linejoin="round" stroke-width="2"/><path d="M5,7H4A1,1,0,0,0,3,8v8a1,1,0,0,0,1,1H5" fill="none" stroke="#f8f8f2" stroke-linecap="round" stroke-linejoin="round" stroke-width="2"/></g></svg>