<svg xmlns="http://www.w3.org/2000/svg" viewBox="0 0 24 24"><g id="Buttons"><path d="M0,0H24V24H0Z" fill="none"/><path d="M3,12A3,3,0,1,0,6,9a3,3,0,0,0-3,3" fill="none" stroke="#f8f8f2" stroke-linecap="round" stroke-linejoin="round" stroke-width="2"/><path d="M15,6a3,3,0,1,0,3-3,3,3,0,0,0-3,3" fill="none" stroke="#f8f8f2" stroke-linecap="round" stroke-linejoin="round" stroke-width="2"/><path d="M15,18a3,3,0,1,0,3-3,3,3,0,0,0-3,3" fill="none" stroke="#f8f8f2" stroke-linecap="round" stroke-linejoin="round" stroke-width="2"/><path d="M8.7,10.7l6.6-3.4" fill="none" stroke="#f8f8f2" stroke-linecap="round" stroke-linejoin="round" stroke-width="2"/><path d="M8.7,13.3l6.6,3.4" fill="none" stroke="#f8f8f2" stroke-linecap="round" stroke-linejoin="round" stroke-width="2"/></g></svg>