<svg xmlns="http://www.w3.org/2000/svg" viewBox="0 0 24 24"><g id="Buttons"><path d="M9.6,6.21,6.48,8.11,5.05,5.78a1.83,1.83,0,1,1,3.13-1.9Z" fill="none" stroke="#f8f8f2" stroke-linecap="round" stroke-linejoin="round" stroke-width="2"/><path d="M11.38,9.4,8.5,11.16a3.62,3.62,0,0,0-1.38,4.73L9,19.71a2.24,2.24,0,0,0,3.23.94l5.88-3.57a2.25,2.25,0,0,0,.65-3.31l-2.53-3.42A3.64,3.64,0,0,0,11.38,9.4Z" fill="none" stroke="#f8f8f2" stroke-linecap="round" stroke-linejoin="round" stroke-width="2"/><path d="M10.41,5.69,5.73,8.54l1.9,3.12,4.68-2.85Z" fill="none" stroke="#f8f8f2" stroke-linecap="round" stroke-linejoin="round" stroke-width="2"/><path d="M13.66,16.39l1.51,2.48" fill="none" stroke="#f8f8f2" stroke-linecap="round" stroke-linejoin="round" stroke-width="2"/><path d="M11.32,17.82l1.51,2.47" fill="none" stroke="#f8f8f2" stroke-linecap="round" stroke-linejoin="round" stroke-width="2"/><path d="M16,15l1.51,2.47" fill="none" stroke="#f8f8f2" stroke-linecap="round" stroke-linejoin="round" stroke-width="2"/><path d="M0,0H24V24H0Z" fill="none"/></g></svg>