<svg xmlns="http://www.w3.org/2000/svg" viewBox="0 0 24 24"><g id="Buttons"><path d="M0,0H24V24H0Z" fill="none"/><path d="M5,5.5A.5.5,0,0,1,5.5,5h4a.5.5,0,0,1,.5.5v4a.5.5,0,0,1-.5.5h-4A.5.5,0,0,1,5,9.5Z" fill="none" stroke="#f8f8f2" stroke-linecap="round" stroke-linejoin="round" stroke-width="2"/><path d="M5,14.5a.5.5,0,0,1,.5-.5h4a.5.5,0,0,1,.5.5v4a.5.5,0,0,1-.5.5h-4a.5.5,0,0,1-.5-.5Z" fill="none" stroke="#f8f8f2" stroke-linecap="round" stroke-linejoin="round" stroke-width="2"/><path d="M14,15l3,3,3-3" fill="none" stroke="#f8f8f2" stroke-linecap="round" stroke-linejoin="round" stroke-width="2"/><path d="M17,18V6" fill="none" stroke="#f8f8f2" stroke-linecap="round" stroke-linejoin="round" stroke-width="2"/></g></svg>