<svg xmlns="http://www.w3.org/2000/svg" viewBox="0 0 24 24"><g id="Buttons"><path d="M0,0H24V24H0Z" fill="none"/><path d="M3,15a2,2,0,0,1,2-2H19a2,2,0,0,1,2,2v4a2,2,0,0,1-2,2H5a2,2,0,0,1-2-2Z" fill="none" stroke="#f8f8f2" stroke-linecap="round" stroke-linejoin="round" stroke-width="2"/><path d="M17,17h0" fill="none" stroke="#f8f8f2" stroke-linecap="round" stroke-linejoin="round" stroke-width="2"/><path d="M13,17h0" fill="none" stroke="#f8f8f2" stroke-linecap="round" stroke-linejoin="round" stroke-width="2"/><path d="M15,13V11" fill="none" stroke="#f8f8f2" stroke-linecap="round" stroke-linejoin="round" stroke-width="2"/><path d="M11.75,8.75a4,4,0,0,1,6.5,0" fill="none" stroke="#f8f8f2" stroke-linecap="round" stroke-linejoin="round" stroke-width="2"/><path d="M8.5,6.5a8,8,0,0,1,13,0" fill="none" stroke="#f8f8f2" stroke-linecap="round" stroke-linejoin="round" stroke-width="2"/></g></svg>