<svg xmlns="http://www.w3.org/2000/svg" viewBox="0 0 24 24"><g id="Bookmarks"><path d="M0,0H24V24H0Z" fill="none"/><path d="M15,3V7a1,1,0,0,0,1,1h4" fill="none" stroke="#f8f8f2" stroke-linecap="round" stroke-linejoin="round" stroke-width="2"/><path d="M18,17H11a2,2,0,0,1-2-2V5a2,2,0,0,1,2-2h4l5,5v7A2,2,0,0,1,18,17Z" fill="none" stroke="#f8f8f2" stroke-linecap="round" stroke-linejoin="round" stroke-width="2"/><path d="M16,17v2a2,2,0,0,1-2,2H7a2,2,0,0,1-2-2V9A2,2,0,0,1,7,7H9" fill="none" stroke="#f8f8f2" stroke-linecap="round" stroke-linejoin="round" stroke-width="2"/></g></svg>