<svg xmlns="http://www.w3.org/2000/svg" viewBox="0 0 24 24"><g id="Files"><path d="M20.55,14.81H3.45c-.6,0-.6-5.62,0-5.62h17.1C21.15,9.19,21.15,14.81,20.55,14.81Z" fill="#4384f1"/><path d="M20.55,20.44H3.45c-.6,0-.6-5.63,0-5.63h17.1C21.15,14.81,21.15,20.44,20.55,20.44Z" fill="#1b9d5d"/><path d="M20.55,9.19H3.45c-.6,0-.6-5.63,0-5.63h17.1C21.15,3.56,21.15,9.19,20.55,9.19Z" fill="#df383a"/><rect x="4.04" y="4.24" width="1.02" height="4.27" fill="#f0c345"/><rect x="4.04" y="9.86" width="1.02" height="4.27" fill="#f0c345"/><rect x="4.04" y="15.49" width="1.02" height="4.27" fill="#f0c345"/><rect x="9.51" y="3" width="4.98" height="18" rx="0.86" fill="#ed8132"/><path d="M14,16.58H10a1.29,1.29,0,0,1-1.19-1.44l.17-4a.84.84,0,0,1,.8-.84h4.42a.84.84,0,0,1,.8.84l.17,4A1.29,1.29,0,0,1,14,16.58Z" fill="#f8f8f2"/><path d="M14.06,15H9.94a.43.43,0,0,1-.43-.43V6.12A2.16,2.16,0,0,1,11.67,4h.66a2.16,2.16,0,0,1,2.16,2.16v8.46A.43.43,0,0,1,14.06,15ZM12.6,13.53a.48.48,0,0,0-.42-.57h-.39a.49.49,0,0,0-.43.57L11.49,15h1Z" fill="#fca755"/><rect x="9.22" y="6.6" width="5.55" height="2.43" rx="0.34" fill="#f59949"/></g></svg>