<svg id="Storages" xmlns="http://www.w3.org/2000/svg" viewBox="0 0 24 24"><path d="M12.9,10.46a.89.89,0,0,1-.63.85v.95a.27.27,0,0,1-.54,0v-.95a.9.9,0,1,1,1.17-.85Zm7.54-4.08v8.44a1.69,1.69,0,0,1-1.69,1.69H12.93v1a1.72,1.72,0,0,1,.66.65h3.06a.93.93,0,1,1,0,1.85h-3a1.85,1.85,0,0,1-3.25,0h-3a.93.93,0,1,1,0-1.85H10.4a1.79,1.79,0,0,1,.66-.65v-1H5.25a1.69,1.69,0,0,1-1.69-1.69V4.69A1.69,1.69,0,0,1,5.25,3H9.47l1.69,1.69h7.59A1.69,1.69,0,0,1,20.44,6.38ZM12.93,19.14a.94.94,0,1,0-.94.93A.94.94,0,0,0,12.93,19.14Zm2.28-10a.86.86,0,0,0-.5-.74l-2-.82a1.82,1.82,0,0,0-1.41,0l-2,.82a.86.86,0,0,0-.5.74v1.58a4.17,4.17,0,0,0,3,3.9.73.73,0,0,0,.36,0,4.17,4.17,0,0,0,3-3.9Z" fill="#f8f8f2"/></svg>