<svg xmlns="http://www.w3.org/2000/svg" viewBox="0 0 24 24"><g id="Files"><path d="M20.6,14.31c-1.35-1.48-5-.84-5.92-.74a20.87,20.87,0,0,1-2.51-3.32A14.82,14.82,0,0,0,13,5.82c0-1.39-.54-2.77-2-2.77a1.43,1.43,0,0,0-1.26.74c-.63,1.11-.36,3.32.63,5.62A37,37,0,0,1,7.87,15.5c-1.44.55-4.58,2-4.85,3.69a1.37,1.37,0,0,0,.45,1.29A1.66,1.66,0,0,0,4.73,21c1.88,0,3.77-2.68,5.12-5.08a27.57,27.57,0,0,1,4.49-1.2A6.84,6.84,0,0,0,19,16.78c1.26,0,1.71-.55,1.88-1A1.33,1.33,0,0,0,20.6,14.31Zm-1.26.92c-.09.37-.54.74-1.35.56a6.47,6.47,0,0,1-2.6-1.39,11.83,11.83,0,0,1,3.23-.09A.83.83,0,0,1,19.34,15.23ZM10.63,4.16a.49.49,0,0,1,.45-.27c.45,0,.54.55.54,1A13.46,13.46,0,0,1,11,8.22,6.13,6.13,0,0,1,10.63,4.16Zm-.09,10.43a23.15,23.15,0,0,0,1.17-2.95,16.15,16.15,0,0,0,1.62,2.2A13.27,13.27,0,0,0,10.54,14.59Zm-3,2.12C6.24,18.74,5.07,20,4.35,20A.54.54,0,0,1,4,19.94a.62.62,0,0,1-.09-.55C4,18.65,5.43,17.63,7.49,16.71Z" fill="#f44336" stroke="#f44336" stroke-miterlimit="10" stroke-width="0.5"/></g></svg>