<svg id="Storages" xmlns="http://www.w3.org/2000/svg" viewBox="0 0 24 24"><path d="M21,5.34a.5.5,0,0,0-.51-.5h-17a.5.5,0,0,0-.51.5v9.13a.51.51,0,0,0,.51.51H6.42v1.77a.64.64,0,0,0,.64.64H8.7v1.16a.61.61,0,0,0,.61.61h5.38a.61.61,0,0,0,.61-.61V17.39h1.64a.64.64,0,0,0,.64-.64V15h2.91a.51.51,0,0,0,.51-.51ZM5.83,9.45a.76.76,0,0,1-.76-.76V6.43a.76.76,0,0,1,.76-.77.77.77,0,0,1,.77.77V8.69A.77.77,0,0,1,5.83,9.45Zm3.09,0a.77.77,0,0,1-.77-.76V6.43a.77.77,0,0,1,.77-.77.76.76,0,0,1,.76.77V8.69A.76.76,0,0,1,8.92,9.45Zm3.08,0a.76.76,0,0,1-.76-.76V6.43a.76.76,0,1,1,1.52,0V8.69A.76.76,0,0,1,12,9.45Zm3.08,0a.76.76,0,0,1-.76-.76V6.43a.76.76,0,0,1,.76-.77.77.77,0,0,1,.77.77V8.69A.77.77,0,0,1,15.08,9.45Zm3.09,0a.77.77,0,0,1-.77-.76V6.43a.77.77,0,0,1,.77-.77.76.76,0,0,1,.76.77V8.69A.76.76,0,0,1,18.17,9.45Z" fill="#f8f8f2"/></svg>