<svg id="Storages" xmlns="http://www.w3.org/2000/svg" viewBox="0 0 24 24"><path d="M13.36,8a1,1,0,0,1,0-.49H10.78a.77.77,0,0,1,.07.49c0,.2-2.22,8.51-2.22,8.51h1.74l.48-1.8h2.37l.41,1.8H16C16.07,16.5,13.36,8.19,13.36,8Zm-2.3,5.4,1-2.84.91,2.84Zm2.5-5.89h2.65l1.45,6.09s1.6-5.4,1.67-5.6a1.08,1.08,0,0,0-.21-.49H21a4.46,4.46,0,0,0-.14.49c0,.13-2.22,6.85-2.22,6.85a3.37,3.37,0,0,0-.21.83,2.15,2.15,0,0,0,.28.76H16.34V16c0-.14-2.43-7.76-2.5-8A.78.78,0,0,0,13.56,7.5Zm-5.21,0H5.08a1.26,1.26,0,0,1,0,.55C5,8.33,3.76,13.94,3.28,16A1.18,1.18,0,0,1,3,16.5H6.61c2.3,0,4.38-2.91,4.38-6A2.72,2.72,0,0,0,8.35,7.5ZM6.61,15.18h-1l1.6-6.36h.69c.21,0,1.19.07,1.19,1.93S7.66,15.18,6.61,15.18Z" fill="#f8f8f2"/></svg>