<svg xmlns="http://www.w3.org/2000/svg" viewBox="0 0 24 24"><g id="Files"><path d="M12,21c-4.26,0-7.71-1.16-7.71-2.57V15.86a1.11,1.11,0,0,1,.27-.65c.86,1.11,3.85,1.93,7.44,1.93s6.58-.82,7.44-1.93a1,1,0,0,1,.27.65v2.57C19.71,19.84,16.26,21,12,21Z" fill="#7f8c8d" fill-rule="evenodd"/><path d="M12,15.86c-4.26,0-7.71-1.16-7.71-2.57V10.71a.77.77,0,0,1,.11-.39,1.32,1.32,0,0,1,.16-.25C5.42,11.18,8.41,12,12,12s6.58-.82,7.44-1.93a1.32,1.32,0,0,1,.16.25.77.77,0,0,1,.11.39v2.58C19.71,14.7,16.26,15.86,12,15.86Z" fill="#95a5a6" fill-rule="evenodd"/><path d="M12,10.71c-4.26,0-7.71-1.15-7.71-2.57V5.57C4.29,4.16,7.74,3,12,3s7.71,1.16,7.71,2.57V8.14C19.71,9.56,16.26,10.71,12,10.71Zm5.14-5.14c0,.71-2.3,1.29-5.14,1.29S6.86,6.28,6.86,5.57,9.16,4.29,12,4.29,17.14,4.86,17.14,5.57Z" fill="#bdc3c7" fill-rule="evenodd"/></g></svg>