<svg xmlns="http://www.w3.org/2000/svg" viewBox="0 0 24 24"><g id="Bookmarks"><path d="M0,0H24V24H0Z" fill="none"/><path d="M15,8h0" fill="none" stroke="#f8f8f2" stroke-linecap="round" stroke-linejoin="round" stroke-width="2"/><path d="M3,6A3,3,0,0,1,6,3H18a3,3,0,0,1,3,3V18a3,3,0,0,1-3,3H6a3,3,0,0,1-3-3Z" fill="none" stroke="#f8f8f2" stroke-linecap="round" stroke-linejoin="round" stroke-width="2"/><path d="M3,16l5-5a2,2,0,0,1,3,0l5,5" fill="none" stroke="#f8f8f2" stroke-linecap="round" stroke-linejoin="round" stroke-width="2"/><path d="M14,14l1-1a2,2,0,0,1,3,0l3,3" fill="none" stroke="#f8f8f2" stroke-linecap="round" stroke-linejoin="round" stroke-width="2"/></g></svg>