<svg xmlns="http://www.w3.org/2000/svg" viewBox="0 0 24 24"><g id="Bookmarks"><path d="M0,0H24V24H0Z" fill="none"/><path d="M4,5A1,1,0,0,1,5,4H9a1,1,0,0,1,1,1V9a1,1,0,0,1-1,1H5A1,1,0,0,1,4,9Z" fill="none" stroke="#f8f8f2" stroke-linecap="round" stroke-linejoin="round" stroke-width="2"/><path d="M14,7a3,3,0,0,1,3-3h0a3,3,0,0,1,3,3h0a3,3,0,0,1-3,3h0a3,3,0,0,1-3-3Z" fill="none" stroke="#f8f8f2" stroke-linecap="round" stroke-linejoin="round" stroke-width="2"/><path d="M4,15a1,1,0,0,1,1-1H9a1,1,0,0,1,1,1v4a1,1,0,0,1-1,1H5a1,1,0,0,1-1-1Z" fill="none" stroke="#f8f8f2" stroke-linecap="round" stroke-linejoin="round" stroke-width="2"/><path d="M14,15a1,1,0,0,1,1-1h4a1,1,0,0,1,1,1v4a1,1,0,0,1-1,1H15a1,1,0,0,1-1-1Z" fill="none" stroke="#f8f8f2" stroke-linecap="round" stroke-linejoin="round" stroke-width="2"/></g></svg>