<svg xmlns="http://www.w3.org/2000/svg" viewBox="0 0 24 24"><g id="Files"><path d="M8.45,12a2.77,2.77,0,0,1-1.06-.66L5.64,9.59a4.38,4.38,0,0,1-.29-.34h0a2.79,2.79,0,0,0,.44,5.54H8.27A2.8,2.8,0,0,0,11.07,12c0-.13,0-.27,0-.4a2.73,2.73,0,0,1-.75.4A2.9,2.9,0,0,0,8.45,12Z" fill="#bf4d90"/><path d="M14.76,5.35a2.79,2.79,0,0,0-5.51,0,3.07,3.07,0,0,1,.34.29l1.75,1.75A2.7,2.7,0,0,1,12,8.45a2.74,2.74,0,0,1,0,1.83,2.64,2.64,0,0,1-.4.76,2.69,2.69,0,0,0,.4,0,2.6,2.6,0,0,0,.4,0,3.25,3.25,0,0,0,.82-.25,2.85,2.85,0,0,0,1.29-1.3,2.76,2.76,0,0,0,.28-1.21V5.79A3.25,3.25,0,0,0,14.76,5.35Z" fill="#ed8a19"/><path d="M14.42,18.36l-1.76-1.75A2.82,2.82,0,0,1,12,15.55a2.87,2.87,0,0,1,0-1.83,2.92,2.92,0,0,1,.4-.76,2.6,2.6,0,0,0-.4,0,2.69,2.69,0,0,0-.4,0,3.18,3.18,0,0,0-.81.25,2.87,2.87,0,0,0-1.3,1.3,2.76,2.76,0,0,0-.28,1.21v2.49a3.27,3.27,0,0,0,0,.44,2.79,2.79,0,0,0,5.51,0A2.37,2.37,0,0,1,14.42,18.36Z" fill="#7fabda"/><path d="M18.65,9.25a4.38,4.38,0,0,1-.29.34l-1.75,1.75a2.7,2.7,0,0,1-1.06.66,2.87,2.87,0,0,1-1.83,0,2.64,2.64,0,0,1-.76-.4c0,.13,0,.26,0,.4s0,.27,0,.4a2.8,2.8,0,0,0,2.77,2.39h2.48a2.12,2.12,0,0,0,.44,0,2.78,2.78,0,0,0,0-5.5Z" fill="#a4e869"/><path d="M18.36,5.64a2.78,2.78,0,0,0-3.6-.29,3.25,3.25,0,0,1,0,.44V8.28a2.76,2.76,0,0,1-.28,1.21,2.85,2.85,0,0,1-1.29,1.3,3.25,3.25,0,0,1-.82.25,2.43,2.43,0,0,0,.26.3,3.48,3.48,0,0,0,.3.26,2.64,2.64,0,0,0,.76.4,2.87,2.87,0,0,0,1.83,0,2.7,2.7,0,0,0,1.06-.66l1.75-1.75a4.38,4.38,0,0,0,.29-.34A2.8,2.8,0,0,0,18.36,5.64Z" fill="#efce4a"/><path d="M18.65,14.75a2.12,2.12,0,0,1-.44,0H15.73A2.84,2.84,0,0,1,13,12.4a3.48,3.48,0,0,0-.3.26,2.43,2.43,0,0,0-.26.3,2.92,2.92,0,0,0-.4.76,2.87,2.87,0,0,0,0,1.83,2.82,2.82,0,0,0,.66,1.06l1.76,1.75a2.37,2.37,0,0,0,.34.29,2.79,2.79,0,0,0,3.89-3.9Z" fill="#61b872"/><path d="M12,8.45a2.7,2.7,0,0,0-.66-1.06L9.59,5.64a3.07,3.07,0,0,0-.34-.29,2.79,2.79,0,0,0-3.9,3.89,3.25,3.25,0,0,1,.44,0H8.27A2.8,2.8,0,0,1,11,11.6h0a1.87,1.87,0,0,0,.3-.26,2.43,2.43,0,0,0,.26-.3,2.64,2.64,0,0,0,.4-.76A2.74,2.74,0,0,0,12,8.45Z" fill="#ed7161"/><path d="M8.27,9.21H5.79a2.18,2.18,0,0,0-.44,0h0a4.38,4.38,0,0,0,.29.34l1.75,1.75A2.77,2.77,0,0,0,8.45,12a2.9,2.9,0,0,1,1.84,0,2.73,2.73,0,0,0,.75-.4A2.8,2.8,0,0,0,8.27,9.21Z" fill="#bf4d90"/><path d="M11.34,12.66a1.87,1.87,0,0,0-.3-.26,2.59,2.59,0,0,0-.75-.4,2.9,2.9,0,0,0-1.84,0,2.77,2.77,0,0,0-1.06.66L5.64,14.41a4.38,4.38,0,0,0-.29.34,2.79,2.79,0,0,0,3.9,3.9,3.27,3.27,0,0,1,0-.44V15.72a2.76,2.76,0,0,1,.28-1.21,2.87,2.87,0,0,1,1.3-1.3A3.18,3.18,0,0,1,11.6,13,2.43,2.43,0,0,0,11.34,12.66Z" fill="#9777a8"/></g></svg>