<svg xmlns="http://www.w3.org/2000/svg" viewBox="0 0 24 24"><g id="Files"><circle cx="12" cy="12" r="9" fill="#76b83f"/><path d="M20.52,13.14a1.42,1.42,0,0,1-1.31-.59,4.57,4.57,0,0,1-.44-.73l-2.42-5.2a.53.53,0,0,0-.53-.29l-2.22.42a.3.3,0,0,0-.23.43l2.19,5a1.46,1.46,0,0,1,.14.77,2.34,2.34,0,0,1-1.94,2,3.28,3.28,0,0,1-3.18-1.36,4.18,4.18,0,0,1-.46-.79L8.29,8.16a.54.54,0,0,0-.59-.31L5,8.35a.37.37,0,0,0-.32.49L8.5,19c.19.5.41,1,.64,1.5A9,9,0,0,0,12,21a9.87,9.87,0,0,0,1.22-.08c-.55-1.08-1.16-2.54-1.16-2.54-.11-.25-.27-.65-.37-.9l-.24-.62A3.64,3.64,0,0,0,14.2,17a3.55,3.55,0,0,0,2.69-2.58,5.14,5.14,0,0,1,.48.35,3.17,3.17,0,0,0,2.77.49l.3-.1a8.78,8.78,0,0,0,.5-2.11A1,1,0,0,1,20.52,13.14Z" fill="#f8f8f8" fill-rule="evenodd"/></g></svg>