<svg xmlns="http://www.w3.org/2000/svg" viewBox="0 0 24 24"><g id="Files"><path id="_path_" data-name="&lt;path&gt;" d="M17.15,8.67,18.2,6.55a.89.89,0,1,0-1.6-.8l-1,2a9,9,0,0,0-7.14,0l-1-2a.89.89,0,0,0-1.6.8l1,2.12A9,9,0,0,0,3,16.05V17a1.81,1.81,0,0,0,1.8,1.8H19.2A1.81,1.81,0,0,0,21,17v-.9A9,9,0,0,0,17.15,8.67ZM8,15.15A1.35,1.35,0,1,1,9.3,13.8,1.34,1.34,0,0,1,8,15.15Zm8.1,0A1.35,1.35,0,1,1,17.4,13.8,1.34,1.34,0,0,1,16.05,15.15Z" fill="#8bc34a" fill-rule="evenodd"/><circle cx="16.05" cy="13.8" r="1.35" fill="#f8f8f2"/><circle cx="7.95" cy="13.8" r="1.35" fill="#f8f8f2"/></g></svg>