<svg xmlns="http://www.w3.org/2000/svg" viewBox="0 0 24 24"><g id="Files"><path d="M19.2,6.6H11.1L9.3,4.8H4.8A1.81,1.81,0,0,0,3,6.6v3.6H21V8.4A1.81,1.81,0,0,0,19.2,6.6Z" fill="#d68600"/><path d="M19.2,6.6H4.8A1.81,1.81,0,0,0,3,8.4v9a1.81,1.81,0,0,0,1.8,1.8H19.2A1.81,1.81,0,0,0,21,17.4v-9a1.81,1.81,0,0,0-1.8-1.8Z" fill="#ffca28"/><path d="M12.92,12.61V12H11.07v.63a5.94,5.94,0,0,0-1,2.88,1.91,1.91,0,1,0,3.82,0A5.92,5.92,0,0,0,12.92,12.61ZM12,16.49a.93.93,0,1,1,.93-.93A.93.93,0,0,1,12,16.49Z" fill="#d68600"/><rect x="11.07" y="6.58" width="1.85" height="0.92" fill="#d68600"/><rect x="11.07" y="7.93" width="1.85" height="0.92" fill="#d68600"/><rect x="11.07" y="9.28" width="1.85" height="0.92" fill="#d68600"/><rect x="11.07" y="10.63" width="1.85" height="0.92" fill="#d68600"/></g></svg>