<svg xmlns="http://www.w3.org/2000/svg" viewBox="0 0 24 24"><g id="Files"><path d="M6.52,16.11a1.19,1.19,0,0,1-.92-.44L3.26,12.73a1.15,1.15,0,0,1,0-1.46L5.6,8.33A1.18,1.18,0,0,1,7.44,9.8L5.68,12l1.76,2.2a1.18,1.18,0,0,1-.18,1.65A1.21,1.21,0,0,1,6.52,16.11Z" fill="#8bc34a"/><path d="M17.48,16.11a1.21,1.21,0,0,1-.74-.26,1.18,1.18,0,0,1-.18-1.65L18.32,12,16.56,9.8A1.18,1.18,0,0,1,18.4,8.33l2.34,2.94a1.15,1.15,0,0,1,0,1.46L18.4,15.67A1.19,1.19,0,0,1,17.48,16.11Z" fill="#8bc34a"/><path d="M9.89,18.46a1.12,1.12,0,0,1-.44-.09,1.17,1.17,0,0,1-.65-1.52L13,6.28a1.17,1.17,0,0,1,2.18.87L11,17.72A1.19,1.19,0,0,1,9.89,18.46Z" fill="#8bc34a"/></g></svg>