<svg xmlns="http://www.w3.org/2000/svg" viewBox="0 0 24 24"><g id="Files"><path d="M11.66,6.42H3.79a.79.79,0,0,1,0-1.58h7.87a.79.79,0,0,1,0,1.58Z" fill="#2196f3"/><path d="M11.66,9.57H3.79A.79.79,0,0,1,3.79,8h7.87a.79.79,0,0,1,0,1.58Z" fill="#2196f3"/><path d="M8.51,12.71H3.79a.79.79,0,1,1,0-1.57H8.51a.79.79,0,1,1,0,1.57Z" fill="#2196f3"/><path d="M19.31,5.72l-3-1a1.89,1.89,0,0,0-1.74.21,1.92,1.92,0,0,0-.74,1.59V9.1l4.73,1.58a2.25,2.25,0,0,0,.71.12,1.74,1.74,0,0,0,1-.33A1.92,1.92,0,0,0,21,8.88V8.07A2.65,2.65,0,0,0,19.31,5.72Z" fill="#e91e63" style="isolation:isolate"/><path d="M14.8,9.44v6.7a3.27,3.27,0,1,1-1-2.38V9.1Z" fill="#e91e63"/></g></svg>