<svg xmlns="http://www.w3.org/2000/svg" viewBox="0 0 24 24"><g id="Files"><path d="M0,0H24V24H0Z" fill="none"/><path d="M18.9,7A8,8,0,0,1,20,12v1a6,6,0,0,0,.8,3" fill="none" stroke="#f8f8f8" stroke-linecap="round" stroke-linejoin="round" stroke-width="2"/><path d="M8,11a4,4,0,0,1,8,0v1a10,10,0,0,0,2,6" fill="none" stroke="#f8f8f8" stroke-linecap="round" stroke-linejoin="round" stroke-width="2"/><path d="M12,11v2a14,14,0,0,0,2.5,8" fill="none" stroke="#f8f8f8" stroke-linecap="round" stroke-linejoin="round" stroke-width="2"/><path d="M8,15a17.8,17.8,0,0,0,1.8,6" fill="none" stroke="#f8f8f8" stroke-linecap="round" stroke-linejoin="round" stroke-width="2"/><path d="M4.9,19A22.09,22.09,0,0,1,4,12V11a8,8,0,0,1,8-8,7.89,7.89,0,0,1,4,1.07" fill="none" stroke="#f8f8f8" stroke-linecap="round" stroke-linejoin="round" stroke-width="2"/></g></svg>