<svg xmlns="http://www.w3.org/2000/svg" viewBox="0 0 24 24"><g id="Buttons"><path d="M0,0H24V24H0Z" fill="none"/><path d="M3,7A3,3,0,0,1,6,4H18a3,3,0,0,1,3,3V9a3,3,0,0,1-3,3H6A3,3,0,0,1,3,9Z" fill="none" stroke="#f8f8f2" stroke-linecap="round" stroke-linejoin="round" stroke-width="2"/><path d="M3,15a3,3,0,0,1,3-3H18a3,3,0,0,1,3,3v2a3,3,0,0,1-3,3H6a3,3,0,0,1-3-3Z" fill="none" stroke="#f8f8f2" stroke-linecap="round" stroke-linejoin="round" stroke-width="2"/><path d="M12,8h0" fill="none" stroke="#f8f8f2" stroke-linecap="round" stroke-linejoin="round" stroke-width="2"/><path d="M12,16h0" fill="none" stroke="#f8f8f2" stroke-linecap="round" stroke-linejoin="round" stroke-width="2"/></g></svg>