<svg xmlns="http://www.w3.org/2000/svg" viewBox="0 0 24 24"><g id="Buttons"><path d="M0,0H24V24H0Z" fill="none"/><path d="M17,17H9a2,2,0,0,1-2-2V7" fill="none" stroke="#f8f8f2" stroke-linecap="round" stroke-linejoin="round" stroke-width="2"/><path d="M8.18,4.18A1.89,1.89,0,0,1,9,4h3l2,2h5a2,2,0,0,1,2,2v7a2,2,0,0,1-.58,1.41" fill="none" stroke="#f8f8f2" stroke-linecap="round" stroke-linejoin="round" stroke-width="2"/><path d="M17,17v2a2,2,0,0,1-2,2H5a2,2,0,0,1-2-2V10A2,2,0,0,1,5,8H7" fill="none" stroke="#f8f8f2" stroke-linecap="round" stroke-linejoin="round" stroke-width="2"/><path d="M3,3,21,21" fill="none" stroke="#f8f8f2" stroke-linecap="round" stroke-linejoin="round" stroke-width="2"/></g></svg>