<svg id="Storages" xmlns="http://www.w3.org/2000/svg" viewBox="0 0 24 24"><path d="M18.08,5.67a5.26,5.26,0,0,1,.56,4.06,6.61,6.61,0,0,1-.24.67,4.87,4.87,0,0,0-1.66-1.64,3.25,3.25,0,0,0-.42-2,3.2,3.2,0,0,0-2-1.54,3.31,3.31,0,0,0-2.52.33,3.21,3.21,0,0,0-1.38,1.56,4.44,4.44,0,0,0-2.23.54c0-.22.09-.43.15-.65A5.14,5.14,0,0,1,10.8,3.72a5.11,5.11,0,0,1,4-.52,5.07,5.07,0,0,1,3.24,2.47Zm-.15,5.17a1.76,1.76,0,0,0-.14-.23,3.56,3.56,0,0,0-1.22-1.16,3.42,3.42,0,0,0-1-.4L11.21,7.87a3.93,3.93,0,0,0-1-.13,3.63,3.63,0,0,0-1.92.52l-.17.11A3.41,3.41,0,0,0,7.35,9a3.57,3.57,0,0,0-.85,1.58L5.32,15a3.75,3.75,0,0,0,.38,2.91A3.65,3.65,0,0,0,8,19.68l4.4,1.18a3.64,3.64,0,0,0,2.9-.39,3.66,3.66,0,0,0,1.8-2.32l1.18-4.38a3.68,3.68,0,0,0-.26-2.69,1.36,1.36,0,0,0-.13-.24ZM14.09,16a.91.91,0,0,0-.58.16.58.58,0,0,0-.24.24l-.19.18a.81.81,0,0,1-.18.1,2,2,0,0,1-1,.22,1.63,1.63,0,0,1-1.29-.5,2,2,0,0,1-.49-1.43h5.69a.54.54,0,0,0,0-.22v-.34a4.57,4.57,0,0,0-1.05-3.2,4.07,4.07,0,0,0-3.06-1.12A3.76,3.76,0,0,0,8.84,11.2a4.44,4.44,0,0,0-1,3.1,4.51,4.51,0,0,0,1,3.21,3.75,3.75,0,0,0,2.92,1.15A4.33,4.33,0,0,0,14.36,18a3.39,3.39,0,0,0,1.38-2H14.09m-3.94-2.43H13.5A2,2,0,0,0,13,12.29a1.59,1.59,0,0,0-1.22-.44,1.63,1.63,0,0,0-1.18.44,1.73,1.73,0,0,0-.49,1.24" fill="#f8f8f2" fill-rule="evenodd"/></svg>