<svg id="Storages" xmlns="http://www.w3.org/2000/svg" viewBox="0 0 24 24"><path d="M17.05,9.67l-.29.05-.39.11a2.75,2.75,0,0,0-.45.17l-2.09.88L10.06,8.62a3.24,3.24,0,0,0-.61-.32l-.16-.07A3.77,3.77,0,0,0,8.65,8L8.47,8a5.37,5.37,0,0,1,8.58,1.72Zm-7.72.17h0a4.13,4.13,0,0,0-2.16-.61h0A4.15,4.15,0,0,0,3,13.42a4.29,4.29,0,0,0,.44,1.83l8.75-3.69Zm10,1.59A3.18,3.18,0,0,0,18,11.06h-.23a3.07,3.07,0,0,0-1.27.26l-1.13.48,2.81,1.68.24.14,2.48,1.49A3.23,3.23,0,0,0,19.3,11.43ZM17.43,14.7l-3.71-2.22L4.34,16.42a4.11,4.11,0,0,0,2.79,1.09H17.76a3.26,3.26,0,0,0,2.47-1.13Z" fill="#f8f8f2"/></svg>