<svg id="Storages" xmlns="http://www.w3.org/2000/svg" viewBox="0 0 24 24"><path d="M22.09,7.81c-.76-1.13-2.8-1.48-5.42-1.09a23.84,23.84,0,0,0-6.4,2,23.92,23.92,0,0,0-5.65,3.61c-2,1.76-3,3.55-2.64,4.85a1.43,1.43,0,0,1-.15-.27c-.57-1.21,0-2.81,1.33-4.44A18.27,18.27,0,0,0,5.39,9.15a7.56,7.56,0,0,1,8.34-3.89,23.21,23.21,0,0,0,4,.44c2.11,0,3.69.61,4.26,1.83C22,7.62,22.06,7.72,22.09,7.81ZM14.64,6.27a10.82,10.82,0,0,1-1.09-.2A6.77,6.77,0,0,0,6.13,9.53c-.16.32-.33.63-.52,1A26.65,26.65,0,0,1,9.92,8,27.19,27.19,0,0,1,14.64,6.27ZM14,16.76c-5.57,2.59-10.91,2.9-11.95.68s2.64-6.11,8.2-8.71,10.92-2.9,12-.68S19.58,14.17,14,16.76Zm-.54-1.16c2.63-1.23,4.42-3,4-3.88s-2.9-.66-5.54.56-4.42,3-4,3.89,2.91.66,5.55-.57Z" fill="#f8f8f2"/></svg>