<svg id="Storages" xmlns="http://www.w3.org/2000/svg" viewBox="0 0 24 24"><path d="M18,15a3,3,0,1,1,3-3,3,3,0,0,1-3,3m0-4.87a1.9,1.9,0,1,0,1.9,1.9A1.91,1.91,0,0,0,18,10.1m-7.93,1.38c-.28,0-.28,1,0,1H14c.29,0,.29-1,0-1H10.09M10,9.67c-.29,0-.15,1.07.14,1l3.9-.52c.29,0,.15-1.07-.14-1L10,9.67m0,4.66,3.9.52c.29,0,.43-1,.14-1l-3.9-.52c-.29,0-.43,1-.14,1M6.46,9.45c0-.29-1-.29-1,0v5.17c0,.29,1,.29,1,0V9.45M8.19,9.3c0-.28-1.07-.14-1,.14l.7,5.13c0,.29,1.07.15,1-.14L8.19,9.3M3.7,9.3,3,14.43c0,.29,1,.43,1,.14l.7-5.13c0-.28-1-.42-1-.14" fill="#f8f8f2"/></svg>