<svg id="Storages" xmlns="http://www.w3.org/2000/svg" viewBox="0 0 24 24"><path d="M20.84,15.77a.68.68,0,0,1-.09.94.75.75,0,0,1-1-.09l-1.57-2-1.53,2a.71.71,0,0,1-1,.09.65.65,0,0,1-.13-.94l1.8-2.34-1.8-2.34a.75.75,0,0,1,.13-1,.76.76,0,0,1,1,.14l1.53,2,1.57-1.93a.71.71,0,0,1,1-.14.7.7,0,0,1,.09,1l-1.75,2.29Zm-8.18-.27a2.07,2.07,0,0,1-2.11-2.07,2.11,2.11,0,0,1,4.22,0A2.12,2.12,0,0,1,12.66,15.5Zm-6.2,0a2.07,2.07,0,0,1-2.11-2.07,2.11,2.11,0,0,1,4.22,0A2.07,2.07,0,0,1,6.46,15.5ZM12.66,10a3.47,3.47,0,0,0-3.05,1.8A3.51,3.51,0,0,0,6.51,10a3.76,3.76,0,0,0-2.12.67V7.82a.69.69,0,0,0-.67-.68A.7.7,0,0,0,3,7.82v5.66a3.44,3.44,0,0,0,3.46,3.37A3.52,3.52,0,0,0,9.56,15a3.52,3.52,0,0,0,3.06,1.84,3.47,3.47,0,0,0,3.5-3.46A3.39,3.39,0,0,0,12.66,10Z" fill="#f8f8f2"/></svg>