<svg id="Storages" xmlns="http://www.w3.org/2000/svg" viewBox="0 0 24 24"><path d="M6.24,12.49c-1.95.42-2.68-1.84-2.47-2.9,0,0,.24-2.29,1.82-2.43A2.42,2.42,0,0,1,7.87,9.21c.06.51.33,2.86-1.63,3.28M9.87,8.56c1.08,0,2-1.24,2-2.78S11,3,9.87,3,7.92,4.24,7.92,5.78s.87,2.78,1.95,2.78m4.66.18c1.44.19,2.37-1.35,2.56-2.52a2.63,2.63,0,0,0-1.77-2.75c-1-.24-2.31,1.4-2.42,2.47-.14,1.31.18,2.62,1.63,2.8m5.72,2a2.26,2.26,0,0,0-2.18-2.25c-1.73,0-2,1.59-2,2.72s.09,2.57,2.24,2.52,1.9-2.43,1.9-3m-2.18,4.9A19.53,19.53,0,0,1,14.53,12c-1.77-2.76-4.28-1.64-5.13-.24a11.4,11.4,0,0,1-2.32,2.53c-.19.23-2.7,1.58-2.14,4.06S7.45,20.8,7.45,20.8a11.13,11.13,0,0,0,3.12-.23,6.47,6.47,0,0,1,3.12.09s3.91,1.31,5-1.21a3.17,3.17,0,0,0-.6-3.84" fill="#f8f8f2" style="isolation:isolate"/></svg>