<svg id="Storages" xmlns="http://www.w3.org/2000/svg" viewBox="0 0 24 24"><path d="M21,12.87a4.84,4.84,0,0,1-3,3.69,5.86,5.86,0,0,1-3.54.12,28.64,28.64,0,0,1-4.27-1.84,11.45,11.45,0,0,0-2.59-.66h0a2,2,0,0,0,1-.17.7.7,0,0,0,.2-1,2.1,2.1,0,0,0-1.25-.73,5.91,5.91,0,0,0-2.44-.12,3.73,3.73,0,0,0-1.67.62,1.37,1.37,0,0,0-.44.54c.75-2.09,2.25-1.86,3.18-2.43a.52.52,0,0,0,.16-.72.53.53,0,0,0-.55-.24,1.77,1.77,0,0,0-.71.36l-.21.16s.75-1.27,3.19-1.27a13.37,13.37,0,0,1,2.28.25,12.22,12.22,0,0,0,2.16.38,1,1,0,0,0,1-.87,1,1,0,0,0-1-.87,3.45,3.45,0,0,0-1,.16L11.78,8a6.38,6.38,0,0,1,3.69-.9,6.43,6.43,0,0,1,3.86,1.39A4.87,4.87,0,0,1,21,12.87Zm-2.27-.62a2,2,0,0,0-1.95-2h0c-1,0-1.41.63-2.49,1.23a4.45,4.45,0,0,1-3,.64c0,.05.76.37,2.62,1.27a6.44,6.44,0,0,0,2.87.77A2,2,0,0,0,18.68,12.25Z" fill="#f8f8f2"/></svg>