<svg id="Storages" xmlns="http://www.w3.org/2000/svg" viewBox="0 0 24 24"><path d="M9.9,3s2.67,2.34,2.31,4.42c-.16.92-1.39,2.45-.73,3.9s1.09,4.58-2.13,3.8-2.93-4.66-.57-6.71A4.27,4.27,0,0,0,9.9,3m2.44,7c-.18,1.58,1.57,3.15.19,5.29a2.2,2.2,0,0,0,2.41,3.19,2.82,2.82,0,0,0,2.53-3.26c-.07-1.94-.84-2.47-2.56-3.93s-.42-4.55-.42-4.55-2,1.52-2.15,3.26M6.69,14.65c-.13-.16-.33,1.17.07,2.3A5.12,5.12,0,0,0,10,20.52c1.91.72,4.59.84,6.14-1.14.35-.44-.1-.27-.58-.09a3.73,3.73,0,0,1-3.49-.67c-1.32-1.11-.8-2.33-1.46-2.35a4.82,4.82,0,0,1-3.9-1.62" fill="#f8f8f2" style="isolation:isolate"/></svg>