<svg id="Storages" xmlns="http://www.w3.org/2000/svg" viewBox="0 0 24 24"><path d="M21,14.89a2.89,2.89,0,0,1-2.83,2.89H7.28a4.28,4.28,0,0,1-.54-8.52,5.79,5.79,0,0,0-.52,2.39.61.61,0,0,0,0,.14,5.78,5.78,0,0,1,11.55,0v-.17a5.6,5.6,0,0,0-.52-2.38,1.51,1.51,0,0,1,.3,0,2.41,2.41,0,0,1,1.11,4.55,2.44,2.44,0,0,0,1.25-1.16A2.88,2.88,0,0,1,21,14.89ZM16.63,12A4.63,4.63,0,1,0,12,16.62,4.63,4.63,0,0,0,16.63,12Zm-.58,0A4.05,4.05,0,1,1,12,8,4,4,0,0,1,16.05,12Zm-1.9-.7a1.74,1.74,0,0,0-1.73-1.73H10.51a.66.66,0,0,0-.66.66v3.54a.66.66,0,1,0,1.31,0V13h1.26A1.73,1.73,0,0,0,14.15,11.3Zm-1.21,0a.51.51,0,0,1-.51.51H11.15v-1h1.28A.51.51,0,0,1,12.94,11.3Z" fill="#f8f8f2"/></svg>