<svg xmlns="http://www.w3.org/2000/svg" viewBox="0 0 24 24"><g id="Buttons"><path d="M0,0H24V24H0Z" fill="none"/><path d="M19.88,6.27a2.23,2.23,0,0,1,1.12,2V15.5a2.22,2.22,0,0,1-1.16,1.95l-6.75,4.27a2.28,2.28,0,0,1-2.18,0L4.16,17.45A2.23,2.23,0,0,1,3,15.5V8.22a2.22,2.22,0,0,1,1.16-2l6.75-4a2.31,2.31,0,0,1,2.25,0l6.75,4Z" fill="none" stroke="#f8f8f2" stroke-linecap="round" stroke-linejoin="round" stroke-width="2"/><path d="M9,12a3,3,0,1,0,3-3,3,3,0,0,0-3,3" fill="none" stroke="#f8f8f2" stroke-linecap="round" stroke-linejoin="round" stroke-width="2"/></g></svg>