<svg xmlns="http://www.w3.org/2000/svg" viewBox="0 0 24 24"><g id="Buttons"><path d="M0,0H24V24H0Z" fill="none"/><path d="M9,6H19" fill="none" stroke="#ffb86c" stroke-linecap="round" stroke-linejoin="round" stroke-width="2" opacity="0.2"/><path d="M3,17a3,3,0,1,0,3-3,3,3,0,0,0-3,3" fill="#ffb86c" opacity="0.2"/><path d="M13,17a3,3,0,1,0,3-3,3,3,0,0,0-3,3" fill="#ffb86c" opacity="0.2"/><path d="M3,17a3,3,0,1,0,3-3,3,3,0,0,0-3,3" fill="none" stroke="#ffb86c" stroke-linecap="round" stroke-linejoin="round" stroke-width="2"/><path d="M13,17a3,3,0,1,0,3-3,3,3,0,0,0-3,3" fill="none" stroke="#ffb86c" stroke-linecap="round" stroke-linejoin="round" stroke-width="2"/><path d="M9,17V4H19V17" fill="none" stroke="#ffb86c" stroke-linecap="round" stroke-linejoin="round" stroke-width="2"/><path d="M9,8H19" fill="none" stroke="#ffb86c" stroke-linecap="round" stroke-linejoin="round" stroke-width="2"/></g></svg>