<svg xmlns="http://www.w3.org/2000/svg" viewBox="0 0 24 24"><g id="Buttons"><path d="M0,0H24V24H0Z" fill="none"/><path d="M3,6A2,2,0,0,1,5,4H19a2,2,0,0,1,2,2h0a2,2,0,0,1-2,2H5A2,2,0,0,1,3,6Z" fill="#ffb86c" opacity="0.2"/><path d="M3,6A2,2,0,0,1,5,4H19a2,2,0,0,1,2,2h0a2,2,0,0,1-2,2H5A2,2,0,0,1,3,6Z" fill="none" stroke="#ffb86c" stroke-linecap="round" stroke-linejoin="round" stroke-width="2"/><path d="M5,8V18a2,2,0,0,0,2,2H17a2,2,0,0,0,2-2V8" fill="none" stroke="#ffb86c" stroke-linecap="round" stroke-linejoin="round" stroke-width="2"/><path d="M5,8V18a2,2,0,0,0,2,2H17a2,2,0,0,0,2-2V8" fill="#ffb86c" opacity="0.2"/><path d="M10,12h4" fill="none" stroke="#ffb86c" stroke-linecap="round" stroke-linejoin="round" stroke-width="2"/></g></svg>