<svg xmlns="http://www.w3.org/2000/svg" viewBox="0 0 24 24"><g id="Buttons"><path d="M0,0H24V24H0Z" fill="none"/><path d="M4,6A2,2,0,0,1,6,4H18a2,2,0,0,1,2,2V18a2,2,0,0,1-2,2H6a2,2,0,0,1-2-2Z" fill="#f55" opacity="0.2"/><path d="M4,6A2,2,0,0,1,6,4H18a2,2,0,0,1,2,2V18a2,2,0,0,1-2,2H6a2,2,0,0,1-2-2Z" fill="none" stroke="#f55" stroke-linecap="round" stroke-linejoin="round" stroke-width="2"/><path d="M8,4V20" fill="none" stroke="#f55" stroke-linecap="round" stroke-linejoin="round" stroke-width="2"/><path d="M16,4V20" fill="none" stroke="#f55" stroke-linecap="round" stroke-linejoin="round" stroke-width="2"/><path d="M4,8H8" fill="none" stroke="#f55" stroke-linecap="round" stroke-linejoin="round" stroke-width="2"/><path d="M4,16H8" fill="none" stroke="#f55" stroke-linecap="round" stroke-linejoin="round" stroke-width="2"/><path d="M4,12H20" fill="none" stroke="#f55" stroke-linecap="round" stroke-linejoin="round" stroke-width="2"/><path d="M16,8h4" fill="none" stroke="#f55" stroke-linecap="round" stroke-linejoin="round" stroke-width="2"/><path d="M16,16h4" fill="none" stroke="#f55" stroke-linecap="round" stroke-linejoin="round" stroke-width="2"/></g></svg>