<svg xmlns="http://www.w3.org/2000/svg" viewBox="0 0 24 24"><g id="Buttons"><path d="M0,0H24V24H0Z" fill="none"/><path d="M12,3a12,12,0,0,0,8.5,3,12,12,0,0,1-8.13,14.9L12,21A12,12,0,0,1,3.4,6.37c0-.12.06-.25.1-.37A12,12,0,0,0,12,3" fill="#f55" opacity="0.2"/><path d="M12,3a12,12,0,0,0,8.5,3,12,12,0,0,1-8.13,14.9L12,21A12,12,0,0,1,3.4,6.37c0-.12.06-.25.1-.37A12,12,0,0,0,12,3" fill="none" stroke="#f55" stroke-linecap="round" stroke-linejoin="round" stroke-width="2"/><path d="M11,11a1,1,0,1,0,1-1,1,1,0,0,0-1,1" fill="none" stroke="#f55" stroke-linecap="round" stroke-linejoin="round" stroke-width="2"/><path d="M12,12v2.5" fill="none" stroke="#f55" stroke-linecap="round" stroke-linejoin="round" stroke-width="2"/></g></svg>