<svg xmlns="http://www.w3.org/2000/svg" viewBox="0 0 24 24"><g id="Buttons"><path d="M0,0H24V24H0Z" fill="none"/><path d="M15,10l4.55-2.28a1,1,0,0,1,1.45.9v6.76a1,1,0,0,1-1,1,1,1,0,0,1-.45-.1L15,14Z" fill="none" stroke="#ffb86c" stroke-linecap="round" stroke-linejoin="round" stroke-width="2"/><path d="M3,8A2,2,0,0,1,5,6h8a2,2,0,0,1,2,2v8a2,2,0,0,1-2,2H5a2,2,0,0,1-2-2Z" fill="none" stroke="#ffb86c" stroke-linecap="round" stroke-linejoin="round" stroke-width="2"/><path d="M15,10l4.55-2.28a1,1,0,0,1,1.45.9v6.76a1,1,0,0,1-1,1,1,1,0,0,1-.45-.1L15,14Z" fill="#ffb86c" opacity="0.2"/><path d="M3,8A2,2,0,0,1,5,6h8a2,2,0,0,1,2,2v8a2,2,0,0,1-2,2H5a2,2,0,0,1-2-2Z" fill="#ffb86c" opacity="0.2"/></g></svg>