<svg xmlns="http://www.w3.org/2000/svg" viewBox="0 0 24 24"><g id="Buttons"><path d="M0,0H24V24H0Z" fill="none"/><path d="M9,11a3,3,0,1,0,3-3,3,3,0,0,0-3,3" fill="none" stroke="#50fa7b" stroke-linecap="round" stroke-linejoin="round" stroke-width="2"/><path d="M17.66,16.66,13.41,20.9a2,2,0,0,1-2.82,0L6.34,16.66a8,8,0,1,1,11.32,0Z" fill="#50fa7b" opacity="0.2"/><path d="M17.66,16.66,13.41,20.9a2,2,0,0,1-2.82,0L6.34,16.66a8,8,0,1,1,11.32,0Z" fill="none" stroke="#50fa7b" stroke-linecap="round" stroke-linejoin="round" stroke-width="2"/></g></svg>