<svg xmlns="http://www.w3.org/2000/svg" viewBox="0 0 24 24"><g id="Buttons"><path d="M0,0H24V24H0Z" fill="none"/><path d="M5,13a2,2,0,0,1,2-2H17a2,2,0,0,1,2,2v6a2,2,0,0,1-2,2H7a2,2,0,0,1-2-2Z" fill="#f55" opacity="0.2"/><path d="M8,11V7a4,4,0,0,1,8,0v4" fill="#f55" opacity="0.2"/><path d="M5,13a2,2,0,0,1,2-2H17a2,2,0,0,1,2,2v6a2,2,0,0,1-2,2H7a2,2,0,0,1-2-2Z" fill="none" stroke="#f55" stroke-linecap="round" stroke-linejoin="round" stroke-width="2"/><path d="M11,16a1,1,0,1,0,1-1,1,1,0,0,0-1,1" fill="none" stroke="#f55" stroke-linecap="round" stroke-linejoin="round" stroke-width="2"/><path d="M8,11V7a4,4,0,0,1,8,0v4" fill="none" stroke="#f55" stroke-linecap="round" stroke-linejoin="round" stroke-width="2"/></g></svg>