<svg xmlns="http://www.w3.org/2000/svg" viewBox="0 0 24 24"><g id="Files"><circle cx="12" cy="12" r="12" fill="#393a59"/><path d="M22,10.06a10,10,0,0,1-3.1,7.26,10.44,10.44,0,0,1-2.12,1.56,10.12,10.12,0,0,1-9.67,0c-.23-.13-.45-.27-.67-.41A10.06,10.06,0,1,1,22,10.06Z" fill="#6a6577"/><path d="M8.73,11A1.62,1.62,0,0,0,7.48,12a1.57,1.57,0,0,0-.08.64l0,.23H7.29a1.94,1.94,0,0,0-1.44.57,2,2,0,0,0-.33.43,2.07,2.07,0,0,0-.15.34,1.94,1.94,0,0,0,.14,1.57h0a1.92,1.92,0,0,0-1.16-1.05A2,2,0,0,0,2,15.53a.21.21,0,0,1,0,.06,1.63,1.63,0,0,0-.71-.48,1.6,1.6,0,0,0-.89,0c-.06-.22-.11-.45-.16-.68l1-1.76.36.36a1.44,1.44,0,0,0,1.69.28l-.47-.94.29.06a1.05,1.05,0,0,0,1.19-.59l.12-.27.47,1a1.45,1.45,0,0,0,.78-1,1.29,1.29,0,0,0,0-.48l-.07-.51.22,0Z" fill="#393a59"/><path d="M22.17,15a.14.14,0,0,1-.27,0,1.61,1.61,0,0,0-.85-.81,1.58,1.58,0,0,0-.63-.13l-.23,0a1504405629375.53,1504405629375.53,0,0,1,0-.14,2,2,0,0,0-.48-1.48,1.93,1.93,0,0,0-.4-.35A1.74,1.74,0,0,0,19,12a2,2,0,0,0-1.58,0v0a2,2,0,0,0,1.14-1.1,2,2,0,0,0-.62-2.31l-.06-.05a1.63,1.63,0,0,0,.53-.68,1.66,1.66,0,0,0,0-1.18.13.13,0,0,1,.2-.16l2.09,1.31a.15.15,0,0,1,0,.23l-.24.21a1.44,1.44,0,0,0-.45,1.51.13.13,0,0,0,.19.09l.56-.23a.14.14,0,0,1,.19.17h0A1.06,1.06,0,0,0,21.5,11h0a.14.14,0,0,1,0,.25l-.57.24a.13.13,0,0,0-.07.19,1.45,1.45,0,0,0,1.39.76l.32,0a.14.14,0,0,1,.15.17v0Z" fill="#393a59"/><path d="M9.9,1.53a.14.14,0,0,1,0,.26,1.6,1.6,0,0,0-1,.68,1.57,1.57,0,0,0-.25.6,1.64,1.64,0,0,0,0,.22l-.07,0-.07,0A1.93,1.93,0,0,0,7,3.43a2,2,0,0,0-.43.33,2.26,2.26,0,0,0-.23.29A2,2,0,0,0,6,5.6H6A2,2,0,0,0,2.76,4.44l0,.06a1.72,1.72,0,0,0-.57-.66A1.66,1.66,0,0,0,1,3.59a.14.14,0,0,1-.13-.23l1.69-1.8a.14.14,0,0,1,.23,0l.16.27a1.44,1.44,0,0,0,1.4.74.16.16,0,0,0,.13-.17l-.13-.6a.14.14,0,0,1,.21-.15h0a1,1,0,0,0,1.3-.27h0a.15.15,0,0,1,.25.06l.12.6a.14.14,0,0,0,.18.11,1.47,1.47,0,0,0,.88-.76A1.74,1.74,0,0,0,7.41,1l0-.32A.14.14,0,0,1,7.64.53h0Z" fill="#393a59"/><path d="M20.3,20.67a12.5,12.5,0,0,1-2.53,1.86,12.06,12.06,0,0,1-11.54,0A12.5,12.5,0,0,1,3.7,20.67a5.42,5.42,0,0,1,4.84-3.42h6.92A5.42,5.42,0,0,1,20.3,20.67Z" fill="#282942"/><path d="M12,21s8.31-6,8-6.58a4.58,4.58,0,0,0-1.76-1.74A6.44,6.44,0,0,0,16.07,12L9.46,17.57Z" fill="#d863bb"/><path d="M12,21s8.31-6,8-6.58a4.58,4.58,0,0,0-1.76-1.74c.67.74,1.31,1.87.32,2.86a1.39,1.39,0,0,1-.52.33,4.86,4.86,0,0,0-1.76,1Z" fill="#282942"/><path d="M12,21s-8.31-6-8-6.58a4.58,4.58,0,0,1,1.76-1.74A6.44,6.44,0,0,1,7.93,12Z" fill="#d863bb"/><path d="M18.87,7,16.59,8.37v2.74a1.14,1.14,0,0,0,1.14,1.15h0a1.14,1.14,0,0,0,1.14-1.15V7Z" fill="#ccc"/><path d="M5.12,7,7.41,8.37v2.74a1.14,1.14,0,0,1-1.14,1.15h0a1.15,1.15,0,0,1-1.15-1.15V7Z" fill="#ccc"/><path d="M14.54,14.45v2.73A2.54,2.54,0,0,1,12,19.72h0a2.54,2.54,0,0,1-2.54-2.54V14.45Z" fill="#ccc"/><path d="M17.66,6.8v4.8a5.66,5.66,0,0,1-11.32,0V6.8a6.33,6.33,0,0,1,0-.76A5.58,5.58,0,0,1,7.14,3.9c1-1.65,8.73-1.65,9.72,0A5.75,5.75,0,0,1,17.61,6,6.33,6.33,0,0,1,17.66,6.8Z" fill="#ededed"/><path d="M8,11.6V6.8a5.66,5.66,0,0,1,4.84-5.6A5.55,5.55,0,0,0,12,1.14,5.65,5.65,0,0,0,6.34,6.8v4.8A5.66,5.66,0,0,0,12,17.26a5.55,5.55,0,0,0,.82-.06A5.66,5.66,0,0,1,8,11.6Z" fill="#ccc"/><path d="M14.82,10.48V9.4a.51.51,0,0,0-.52-.51h0a.51.51,0,0,0-.51.51v1.08a.51.51,0,0,0,.51.52h0A.52.52,0,0,0,14.82,10.48Z" fill="#393a59"/><path d="M9.18,9.4v1.08a.51.51,0,0,0,.51.52h0a.52.52,0,0,0,.52-.52V9.4a.51.51,0,0,0-.52-.51h0A.51.51,0,0,0,9.18,9.4Z" fill="#393a59"/><circle cx="14.48" cy="9.59" r="0.33" fill="#7f7d89"/><circle cx="9.87" cy="9.59" r="0.33" fill="#7f7d89"/><circle cx="14.11" cy="10.38" r="0.19" fill="#7f7d89"/><circle cx="9.5" cy="10.38" r="0.19" fill="#7f7d89"/><path d="M7.59,6a.91.91,0,0,0,0,.17,2.22,2.22,0,0,1-.72,1.84,4,4,0,0,1-.54.37V6.8a5.61,5.61,0,0,1,.8-2.9,2.8,2.8,0,0,1,.65,1.21A2.25,2.25,0,0,0,7.59,6Z" fill="#282942"/><path d="M17.66,6.8V8.42a4,4,0,0,1-.54-.37,2.22,2.22,0,0,1-.72-1.84.91.91,0,0,0,0-.17,2.25,2.25,0,0,0-.2-.93,2.74,2.74,0,0,1,.65-1.21A5.61,5.61,0,0,1,17.66,6.8Z" fill="#282942"/><rect x="9.01" y="7.78" width="1.27" height="2.22" transform="translate(-2.13 14.69) rotate(-68.86)" fill="#ededed"/><rect x="13.24" y="8.26" width="2.22" height="1.27" transform="translate(-2.24 5.77) rotate(-21.14)" fill="#ededed"/><path d="M14.68,12.08A2.7,2.7,0,0,1,12,14.76a2.64,2.64,0,0,1-1.52-.48,2.67,2.67,0,0,1-1.16-2.2,7.19,7.19,0,0,0,.76.32,5.93,5.93,0,0,0,.83.21,5.67,5.67,0,0,0,1.09.1,5.74,5.74,0,0,0,1.09-.1,6.31,6.31,0,0,0,.83-.21A8.2,8.2,0,0,0,14.68,12.08Z" fill="#393a59"/><path d="M13.52,14.28a2.65,2.65,0,0,1-3,0,2.69,2.69,0,0,1,3,0Z" fill="#e87bc2"/><path d="M15.15,8H8.84l1.77,1.33h.2a.62.62,0,0,1,.62.62v1a.59.59,0,0,0,.56.59.57.57,0,0,0,.58-.57v-1a.62.62,0,0,1,.62-.62h.19Z" fill="#ccc"/><path d="M13.92,12.4a3.76,3.76,0,0,1-.14.62,4.78,4.78,0,0,1-.28.71L13.24,13l-.15-.41A6.31,6.31,0,0,0,13.92,12.4Z" fill="#f0f0f0"/><path d="M10.91,12.61l-.15.41-.26.71a3.75,3.75,0,0,1-.28-.71,3.76,3.76,0,0,1-.14-.62A5.93,5.93,0,0,0,10.91,12.61Z" fill="#f0f0f0"/><path d="M8,8.33l.49-.75a.28.28,0,0,1,.4-.09l2,1.27a.29.29,0,0,1-.22.53L8.13,8.77A.29.29,0,0,1,8,8.33Z" fill="#393a59"/><path d="M16.05,8.33l-.49-.75a.28.28,0,0,0-.4-.09l-2,1.27a.29.29,0,0,0,.22.53l2.46-.52A.29.29,0,0,0,16.05,8.33Z" fill="#393a59"/><path d="M12.62,15.74H11.38a.23.23,0,0,1-.23-.23h0a.23.23,0,0,1,.23-.23h1.24a.23.23,0,0,1,.23.23h0A.23.23,0,0,1,12.62,15.74Z" fill="#ccc"/><path d="M16.86,3.9a5.66,5.66,0,0,0-9.72,0A5.58,5.58,0,0,0,6.39,6h1.2A2.21,2.21,0,0,1,9.8,3.83h.08a1.93,1.93,0,0,1,1.84,2v.3a.28.28,0,0,0,.28.27h0a.28.28,0,0,0,.28-.27v-.3a1.93,1.93,0,0,1,1.84-1.95h.08A2.21,2.21,0,0,1,16.41,6h1.2A5.75,5.75,0,0,0,16.86,3.9Z" fill="#282942"/><path d="M12,21s-8.31-6-8-6.58a4.58,4.58,0,0,1,1.76-1.74c-.67.74-1.31,1.87-.32,2.86A1.39,1.39,0,0,0,6,15.9a4.86,4.86,0,0,1,1.76,1Z" fill="#282942"/><path d="M14,20.68l-1.85.68a.34.34,0,0,1-.28,0L10,20.68a.38.38,0,0,0-.52.36v1.14a.39.39,0,0,0,.52.37l1.85-.69a.45.45,0,0,1,.28,0l1.85.69a.39.39,0,0,0,.52-.37V21A.38.38,0,0,0,14,20.68Z" fill="#e87bc2"/><path d="M13.78,13a4.78,4.78,0,0,1-.28.71L13.24,13a.58.58,0,0,1,.26,0A.87.87,0,0,1,13.78,13Z" fill="#e87bc2"/><path d="M10.76,13l-.26.71a3.75,3.75,0,0,1-.28-.71.87.87,0,0,1,.28,0A.58.58,0,0,1,10.76,13Z" fill="#e87bc2"/></g></svg>