<svg xmlns="http://www.w3.org/2000/svg" viewBox="0 0 24 24"><g id="Bookmarks"><path d="M13,17.81c6.35-.14,8-1.76,8-7.4C21,4.48,19.2,3,12,3S3,4.48,3,10.41C3,15,4.1,17,8,17.58V21Z" fill="none" stroke="#f8f8f2" stroke-linecap="round" stroke-linejoin="round" stroke-width="2"/><path d="M8.3,9a.5.5,0,0,0,.5.49A.49.49,0,0,0,9.3,9V8a.49.49,0,0,0-.5-.49A.5.5,0,0,0,8.3,8V9a5,5,0,0,0,5,4.93h1a.5.5,0,1,0,0-1h-1a.5.5,0,1,0,0,1" fill="none" stroke="#f8f8f2" stroke-linecap="round" stroke-linejoin="round" stroke-width="2"/><path d="M12.51,8.85a1,1,0,0,1,1,.94" fill="none" stroke="#f8f8f2" stroke-linecap="round" stroke-linejoin="round" stroke-width="1.5"/><path d="M12.85,6.62A2.84,2.84,0,0,1,15.7,9.44" fill="none" stroke="#f8f8f2" stroke-linecap="round" stroke-linejoin="round" stroke-width="1.5"/><path d="M0,0H24V24H0Z" fill="none"/></g></svg>